<svg width="920" height="300" viewBox="0 0 920 300" fill="none" xmlns="http://www.w3.org/2000/svg">
<rect width="920" height="300" fill="white"/>
<rect x="52" y="30" width="580" height="240" rx="120" stroke="#A6ABB1" stroke-width="3" stroke-linecap="round" stroke-dasharray="4 8"/>
<rect x="378.25" y="1.25" width="157.5" height="157.5" rx="78.75" fill="white"/>
<path d="M449.214 73.44V74.916C449.214 77.436 448.53 79.506 447.18 81.126C445.884 82.692 444.444 83.916 442.878 84.816L441.6 83.538C443.166 82.638 444.48 81.558 445.524 80.316C446.676 78.858 447.27 77.4 447.27 75.96V75.096H442.536V73.44H449.214ZM455.928 87.678H454.056V79.236H452.238V87.138H450.384V72.414H452.238V77.526H454.056V72.09H455.928V87.678ZM460.402 72.684V74.862H464.524V72.684H466.414V79.902H458.512V72.684H460.402ZM460.402 76.41V78.336H464.524V76.41H460.402ZM470.824 80.442H468.916V72.09H470.824V75.492H473.11V77.184H470.824V80.442ZM471.112 87.678H460.348V83.502H468.898V82.404H460.348V80.874H470.842V85.014H462.274V86.13H471.112V87.678Z" fill="#272B2F"/>
<rect x="378.25" y="1.25" width="157.5" height="157.5" rx="78.75" stroke="#485059" stroke-width="2.5"/>
<rect x="273.25" y="71.25" width="157.5" height="157.5" rx="78.75" fill="#F5F6F7"/>
<path d="M318.568 156.634V145.42H314.662V143.566H324.544V145.42H320.584V156.634H318.568ZM325.733 156.634V143.566H333.869V145.42H327.749V148.948H333.419V150.748H327.749V154.834H333.869V156.634H325.733ZM334.948 155.77L335.686 154.078C336.73 154.708 337.738 155.014 338.746 155.014C339.52 155.014 340.15 154.87 340.636 154.582C341.104 154.294 341.338 153.844 341.338 153.232C341.338 152.692 341.14 152.242 340.762 151.9C340.366 151.576 339.718 151.252 338.818 150.928C336.406 150.208 335.2 148.966 335.2 147.238C335.2 146.14 335.632 145.222 336.514 144.502C337.378 143.782 338.53 143.422 339.952 143.422C340.528 143.422 341.068 143.512 341.59 143.674C342.094 143.854 342.562 144.088 342.976 144.358L342.274 145.96C341.914 145.744 341.518 145.564 341.104 145.42C340.672 145.294 340.258 145.222 339.898 145.222C339.142 145.222 338.548 145.402 338.134 145.744C337.702 146.104 337.486 146.518 337.486 146.986C337.486 147.526 337.684 147.94 338.098 148.228C338.494 148.534 339.178 148.876 340.15 149.254C341.338 149.722 342.22 150.226 342.796 150.784C343.336 151.36 343.624 152.098 343.624 153.034C343.624 154.186 343.228 155.122 342.454 155.806C341.662 156.508 340.42 156.85 338.746 156.85C337.99 156.85 337.27 156.724 336.55 156.472C335.812 156.238 335.272 156.004 334.948 155.77ZM347.396 156.634V145.42H343.49V143.566H353.372V145.42H349.412V156.634H347.396ZM367.935 145.726H358.863V144.268H367.935V145.726ZM365.793 143.692H361.005V142.252H365.793V143.692ZM367.593 148.462C367.593 148.804 367.467 149.128 367.233 149.416C366.981 149.722 366.675 149.974 366.315 150.154C365.937 150.352 365.505 150.496 365.001 150.568C364.785 150.604 364.587 150.64 364.389 150.64V151.504C366.009 151.468 367.485 151.342 368.817 151.162V152.71C367.251 152.926 365.415 153.034 363.309 153.034H358.071V151.486H362.499V150.658C362.265 150.64 362.049 150.604 361.851 150.568C361.347 150.496 360.897 150.352 360.501 150.154C360.105 149.974 359.817 149.722 359.619 149.416C359.403 149.128 359.295 148.804 359.295 148.462C359.295 148.12 359.403 147.796 359.619 147.472C359.817 147.184 360.105 146.932 360.501 146.752C360.897 146.554 361.347 146.41 361.851 146.302C362.319 146.23 362.841 146.176 363.399 146.176C363.957 146.176 364.497 146.23 365.001 146.302C365.487 146.41 365.919 146.554 366.315 146.752C366.675 146.95 366.981 147.184 367.233 147.472C367.467 147.778 367.593 148.102 367.593 148.462ZM365.703 148.462C365.703 148.228 365.523 148.03 365.163 147.85C364.785 147.706 364.191 147.616 363.399 147.616C362.697 147.616 362.157 147.706 361.761 147.85C361.365 148.012 361.167 148.21 361.167 148.462C361.167 148.714 361.365 148.894 361.779 149.038C362.175 149.2 362.715 149.272 363.399 149.272C364.191 149.272 364.767 149.2 365.145 149.02C365.505 148.876 365.703 148.678 365.703 148.462ZM371.463 154.582H369.555V142.09H371.463V147.31H373.623V149.02H371.463V154.582ZM371.841 157.678H360.393V153.844H362.337V156.112H371.841V157.678ZM380.922 149.362C379.32 150.73 377.448 151.666 375.324 152.206L374.316 150.766C376.368 150.244 378.042 149.434 379.374 148.318C380.724 147.202 381.408 146.14 381.408 145.132V144.664H375.54V143.026H383.406V144.502H386.088V142.09H387.978V151.558H386.088V149.704H382.578V148.156H386.088V146.05H383.208C382.866 147.238 382.11 148.354 380.922 149.362ZM388.356 154.87C388.356 155.374 388.212 155.806 387.924 156.184C387.636 156.58 387.222 156.904 386.718 157.192C386.214 157.498 385.584 157.714 384.846 157.858C384.09 158.002 383.298 158.074 382.506 158.074C381.714 158.074 380.958 158.002 380.22 157.858C379.464 157.714 378.834 157.498 378.33 157.192C377.808 156.904 377.412 156.58 377.16 156.184C376.872 155.806 376.746 155.374 376.746 154.87C376.746 154.384 376.872 153.952 377.16 153.556C377.412 153.178 377.808 152.836 378.33 152.548C378.834 152.26 379.464 152.026 380.22 151.864C380.958 151.72 381.714 151.648 382.506 151.648C383.298 151.648 384.09 151.72 384.846 151.864C385.584 152.026 386.214 152.26 386.718 152.548C387.222 152.836 387.636 153.178 387.924 153.556C388.212 153.952 388.356 154.384 388.356 154.87ZM386.43 154.87C386.43 154.636 386.34 154.438 386.16 154.258C385.98 154.096 385.71 153.934 385.386 153.772C385.026 153.628 384.594 153.502 384.09 153.394C383.55 153.322 383.028 153.268 382.506 153.268C382.002 153.268 381.48 153.322 380.976 153.412C380.436 153.52 380.004 153.628 379.68 153.772C379.338 153.916 379.086 154.078 378.924 154.24C378.744 154.42 378.672 154.636 378.672 154.87C378.672 155.122 378.762 155.338 378.96 155.518C379.14 155.734 379.392 155.878 379.68 155.986C380.022 156.13 380.454 156.238 380.976 156.31C381.48 156.4 382.002 156.436 382.506 156.436C383.028 156.436 383.55 156.4 384.09 156.31C384.594 156.238 385.026 156.13 385.386 155.986C385.728 155.842 385.998 155.662 386.178 155.482C386.34 155.32 386.43 155.122 386.43 154.87Z" fill="#272B2F"/>
<rect x="273.25" y="71.25" width="157.5" height="157.5" rx="78.75" stroke="#485059" stroke-width="2.5" stroke-linecap="round"/>
<rect x="168.25" y="141.25" width="157.5" height="157.5" rx="78.75" fill="white"/>
<path d="M245.118 215.78C245.118 216.284 244.956 216.734 244.632 217.148C244.308 217.58 243.858 217.958 243.318 218.264C242.814 218.552 242.22 218.768 241.5 218.912C240.78 219.092 240.024 219.164 239.232 219.164C238.44 219.164 237.684 219.092 237 218.912C236.28 218.75 235.668 218.534 235.128 218.246C234.624 217.994 234.21 217.652 233.904 217.184C233.58 216.752 233.418 216.284 233.418 215.78C233.418 215.312 233.562 214.844 233.868 214.412C234.156 213.998 234.588 213.638 235.128 213.314C235.668 212.99 236.298 212.738 237 212.576C237.684 212.432 238.44 212.36 239.232 212.36C240.024 212.36 240.762 212.432 241.482 212.576C242.166 212.738 242.778 212.99 243.318 213.314C243.858 213.638 244.308 213.998 244.632 214.412C244.956 214.844 245.118 215.294 245.118 215.78ZM243.192 215.78C243.192 215.528 243.102 215.312 242.922 215.096C242.724 214.898 242.436 214.7 242.076 214.52C241.716 214.322 241.284 214.178 240.816 214.088C240.33 214.016 239.808 213.98 239.232 213.98C238.638 213.98 238.116 214.016 237.666 214.088C237.198 214.178 236.766 214.322 236.406 214.52C236.028 214.7 235.758 214.898 235.596 215.096C235.416 215.312 235.344 215.528 235.344 215.78C235.344 216.032 235.416 216.248 235.596 216.446C235.758 216.662 236.028 216.878 236.406 217.058C236.766 217.238 237.18 217.364 237.648 217.436C238.116 217.526 238.638 217.562 239.232 217.562C239.808 217.562 240.33 217.526 240.816 217.436C241.284 217.364 241.716 217.238 242.076 217.058C242.4 216.914 242.67 216.716 242.886 216.482C243.084 216.266 243.192 216.032 243.192 215.78ZM246.99 220.136V221.774H240.348V224.672H238.44V221.774H231.546V220.136H246.99ZM245.118 227.678H233.454V223.088H235.362V226.04H245.118V227.678ZM256.81 216.752C256.81 217.148 256.738 217.508 256.63 217.85H259.69V215.888H256.702C256.774 216.176 256.81 216.464 256.81 216.752ZM255.676 219.398C255.622 219.47 255.568 219.524 255.514 219.56C255.1 219.938 254.632 220.226 254.092 220.424C253.552 220.64 252.958 220.748 252.346 220.748C251.752 220.748 251.194 220.64 250.672 220.424C250.132 220.226 249.646 219.938 249.25 219.56C248.854 219.2 248.548 218.786 248.332 218.282C248.08 217.814 247.972 217.292 247.972 216.752C247.972 216.212 248.08 215.69 248.332 215.186C248.548 214.7 248.854 214.268 249.25 213.908C249.646 213.548 250.132 213.242 250.672 213.026C251.194 212.81 251.752 212.702 252.346 212.702C252.958 212.702 253.552 212.81 254.092 213.026C254.632 213.242 255.1 213.548 255.514 213.908C255.658 214.052 255.784 214.196 255.91 214.34H259.69V212.09H261.598V221.666H259.69V219.398H255.676ZM254.902 216.752C254.902 216.428 254.83 216.104 254.704 215.816C254.56 215.528 254.362 215.276 254.128 215.06C253.912 214.862 253.66 214.682 253.354 214.538C253.03 214.412 252.706 214.34 252.346 214.34C252.022 214.34 251.716 214.412 251.41 214.538C251.086 214.682 250.834 214.862 250.618 215.06C250.384 215.276 250.204 215.528 250.078 215.816C249.934 216.104 249.88 216.428 249.88 216.752C249.88 217.076 249.934 217.364 250.078 217.652C250.204 217.94 250.384 218.192 250.618 218.408C250.834 218.624 251.086 218.786 251.41 218.912C251.716 219.056 252.022 219.11 252.346 219.11C252.706 219.11 253.03 219.056 253.354 218.912C253.66 218.786 253.912 218.624 254.128 218.408C254.362 218.192 254.56 217.94 254.704 217.652C254.83 217.364 254.902 217.076 254.902 216.752ZM260.104 224.87C260.104 224.636 260.014 224.42 259.852 224.222C259.672 224.042 259.402 223.88 259.042 223.736C258.682 223.592 258.25 223.484 257.746 223.394C257.224 223.322 256.702 223.268 256.18 223.268C255.676 223.268 255.154 223.322 254.632 223.394C254.092 223.484 253.678 223.592 253.372 223.736C253.048 223.88 252.796 224.042 252.616 224.222C252.418 224.42 252.328 224.636 252.328 224.87C252.328 225.122 252.418 225.32 252.598 225.5C252.76 225.698 253.012 225.878 253.372 226.022C253.696 226.166 254.11 226.274 254.65 226.328C255.154 226.4 255.676 226.436 256.18 226.436C256.702 226.436 257.224 226.4 257.746 226.328C258.25 226.274 258.682 226.166 259.042 226.022C259.366 225.896 259.636 225.734 259.834 225.518C260.014 225.338 260.104 225.122 260.104 224.87ZM262.012 224.87C262.012 225.356 261.868 225.788 261.58 226.184C261.274 226.58 260.878 226.922 260.374 227.21C259.87 227.498 259.24 227.714 258.484 227.858C257.728 228.002 256.954 228.074 256.18 228.074C255.424 228.074 254.668 228.002 253.93 227.858C253.174 227.714 252.544 227.498 252.04 227.21C251.518 226.922 251.122 226.58 250.852 226.184C250.564 225.788 250.42 225.356 250.42 224.87C250.42 224.402 250.564 223.952 250.852 223.556C251.122 223.16 251.518 222.818 252.04 222.53C252.544 222.242 253.174 222.026 253.93 221.864C254.668 221.72 255.424 221.648 256.18 221.648C256.954 221.648 257.728 221.72 258.484 221.864C259.24 222.026 259.87 222.242 260.374 222.53C260.878 222.818 261.274 223.16 261.58 223.556C261.868 223.97 262.012 224.402 262.012 224.87Z" fill="#272B2F"/>
<rect x="168.25" y="141.25" width="157.5" height="157.5" rx="78.75" stroke="#485059" stroke-width="2.5"/>
<path d="M572 138H679" stroke="#FF6600" stroke-width="2.5"/>
<path d="M692 138L679 131.5V144.5L692 138Z" fill="#FF6600"/>
<path d="M692 162H585" stroke="#FF6600" stroke-width="2.5"/>
<path d="M572 162L585 155.5V168.5L572 162Z" fill="#FF6600"/>
<rect x="720" y="50" width="200" height="200" rx="100" fill="#FF6600"/>
<path d="M798.642 127.658C798.642 130.122 799.148 132.036 800.16 133.444C801.018 134.808 802.25 136.106 803.856 137.338L802.074 138.966C800.446 137.778 799.06 136.304 797.894 134.588C797.63 134.192 797.432 133.884 797.322 133.664C797.19 133.972 796.97 134.346 796.662 134.808C795.43 136.678 794.044 138.196 792.526 139.362L790.634 137.734C792.196 136.502 793.45 135.138 794.396 133.686C795.408 132.146 795.936 130.078 795.936 127.482V124.886H798.642V127.658ZM807.222 123.478V130.276H810.214V132.674H807.222V142.794H804.582V123.478H807.222ZM827.716 127.834C827.716 128.45 827.518 129 827.122 129.506C826.726 130.034 826.176 130.452 825.516 130.804C825.472 130.848 825.428 130.87 825.384 130.87V132.982H829.982V135.138H810.798V132.982H815.396V130.914C815.308 130.87 815.242 130.848 815.198 130.804C814.538 130.452 814.01 130.034 813.636 129.506C813.24 129 813.064 128.45 813.064 127.834C813.064 127.174 813.24 126.602 813.636 126.118C814.01 125.634 814.516 125.216 815.176 124.864C815.858 124.512 816.65 124.226 817.552 124.05C818.432 123.896 819.378 123.808 820.346 123.808C821.314 123.808 822.238 123.896 823.162 124.072C824.042 124.248 824.834 124.512 825.516 124.864C826.176 125.238 826.726 125.678 827.122 126.162C827.518 126.69 827.716 127.24 827.716 127.834ZM822.766 131.618C821.974 131.728 821.16 131.772 820.346 131.772C819.532 131.772 818.762 131.728 818.014 131.618V132.982H822.766V131.618ZM825.01 127.812C825.01 127.57 824.9 127.35 824.724 127.13C824.504 126.954 824.196 126.756 823.8 126.558C823.36 126.382 822.876 126.25 822.304 126.14C821.732 126.052 821.072 125.986 820.346 125.986C819.598 125.986 818.96 126.052 818.41 126.14C817.838 126.25 817.332 126.382 816.936 126.536C816.518 126.712 816.232 126.91 816.056 127.108C815.858 127.328 815.77 127.57 815.77 127.812C815.77 128.032 815.858 128.252 816.056 128.472C816.232 128.714 816.518 128.912 816.936 129.088C817.332 129.242 817.816 129.374 818.388 129.462C818.96 129.572 819.598 129.616 820.346 129.616C821.05 129.616 821.688 129.572 822.304 129.462C822.876 129.374 823.382 129.264 823.8 129.088C824.196 128.912 824.482 128.714 824.702 128.472C824.9 128.252 825.01 128.032 825.01 127.812ZM828.002 139.648C828.002 140.22 827.804 140.748 827.408 141.21C826.99 141.694 826.44 142.09 825.758 142.42C825.076 142.772 824.262 143.014 823.294 143.102C822.326 143.234 821.336 143.278 820.368 143.278C819.4 143.278 818.432 143.234 817.464 143.102C816.474 143.014 815.638 142.772 814.978 142.42C814.318 142.09 813.79 141.694 813.416 141.21C813.02 140.77 812.822 140.242 812.822 139.648C812.822 139.098 813.02 138.57 813.438 138.064C813.834 137.58 814.34 137.162 815 136.854C815.66 136.546 816.496 136.304 817.464 136.15C818.432 136.018 819.4 135.93 820.368 135.93C821.336 135.93 822.326 135.996 823.294 136.128C824.24 136.282 825.054 136.524 825.758 136.854C826.418 137.184 826.968 137.58 827.386 138.042C827.782 138.526 828.002 139.076 828.002 139.648ZM825.318 139.648C825.318 139.406 825.208 139.186 824.988 139.01C824.746 138.856 824.438 138.702 824.086 138.57C823.646 138.438 823.096 138.328 822.48 138.218C821.82 138.13 821.116 138.064 820.368 138.064C819.62 138.064 818.916 138.108 818.3 138.196C817.662 138.306 817.134 138.438 816.716 138.57C816.364 138.702 816.078 138.856 815.858 139.01C815.616 139.186 815.506 139.406 815.506 139.626C815.506 139.868 815.594 140.066 815.814 140.242C815.99 140.418 816.298 140.594 816.694 140.726C817.134 140.88 817.662 140.99 818.3 141.056C818.916 141.144 819.62 141.166 820.368 141.166C821.094 141.166 821.798 141.144 822.458 141.056C823.118 140.99 823.646 140.88 824.086 140.748C824.438 140.616 824.724 140.462 824.966 140.286C825.186 140.11 825.318 139.912 825.318 139.648ZM838.178 127.526V128.582C838.178 130.298 838.728 131.948 839.828 133.532C840.62 134.742 841.83 136.062 843.414 137.47L841.544 139.054C839.916 137.646 838.596 136.194 837.584 134.698C837.276 134.28 837.056 133.928 836.902 133.642C836.726 133.95 836.484 134.368 836.154 134.874C834.812 136.854 833.47 138.35 832.106 139.362L830.17 137.844C831.666 136.568 832.898 135.182 833.844 133.73C834.944 132.124 835.494 130.408 835.494 128.582V127.526H831.27V125.238H842.314V127.526H838.178ZM846.582 123.478V130.848H849.574V133.246H846.582V142.794H843.942V123.478H846.582ZM794.413 171.218C791.993 171.526 789.441 171.68 786.801 171.68H782.797V158.128H792.763V160.416H785.481V169.414H787.197C789.441 169.414 791.861 169.26 794.413 168.952V171.218ZM798.505 156.478V175.794H795.887V156.478H798.505ZM804.654 158.128V162.726H809.34V158.128H812.002V172.142H801.992V158.128H804.654ZM804.654 164.97V169.876H809.34V164.97H804.654ZM817.172 156.478V163.54H820.054V165.938H817.172V175.794H814.532V156.478H817.172ZM821.672 165.146C821.672 163.188 822.156 161.472 823.146 160.02C824.202 158.524 825.5 157.776 827.062 157.776C828.602 157.776 829.9 158.524 831 160.02C832.012 161.428 832.518 163.144 832.518 165.146C832.518 167.104 832.012 168.798 831 170.25C829.966 171.746 828.646 172.472 827.062 172.472C825.5 172.472 824.202 171.746 823.146 170.25C822.156 168.842 821.672 167.126 821.672 165.146ZM824.334 165.146C824.334 166.488 824.576 167.676 825.104 168.71C825.676 169.722 826.314 170.206 827.062 170.206C827.788 170.206 828.448 169.722 829.02 168.71C829.57 167.654 829.856 166.466 829.856 165.146C829.856 163.76 829.57 162.572 829.042 161.582C828.426 160.57 827.766 160.042 827.062 160.042C826.314 160.042 825.654 160.57 825.104 161.582C824.576 162.638 824.334 163.826 824.334 165.146ZM837.864 156.478V175.794H835.246V156.478H837.864ZM851.274 159.162C851.274 161.296 852.022 163.012 853.518 164.332C854.794 165.498 856.51 166.422 858.666 167.082L857.104 169.128C854.86 168.402 852.946 167.28 851.362 165.762C850.702 165.146 850.196 164.574 849.888 164.024C849.558 164.552 849.074 165.124 848.414 165.74C846.764 167.302 844.85 168.424 842.672 169.128L841.154 167.082C843.266 166.422 844.982 165.498 846.302 164.332C847.798 163.012 848.546 161.296 848.546 159.162V157.666H851.274V159.162ZM859.502 171.812V174.078H840.318V171.812H859.502Z" fill="white"/>
<path d="M293 29.5L280 23L280 36L293 29.5Z" fill="#A6ABB1"/>
<path d="M482 270.5L495 264V277L482 270.5Z" fill="#A6ABB1"/>
<path fill-rule="evenodd" clip-rule="evenodd" d="M218.925 36.579C231.088 38.7075 240.333 49.3216 240.333 62.0951C240.333 76.147 229.145 87.5858 215.191 87.9888V88H153.476V87.9963C136.61 87.7922 123 74.0564 123 57.1419C123 41.6789 134.374 28.8724 149.213 26.6324C155.867 15.4741 168.057 8 181.993 8C199.756 8 214.682 20.1422 218.925 36.579Z" fill="#A7D4F4"/>
<path fill-rule="evenodd" clip-rule="evenodd" d="M167.868 58.0137C189.155 61.7386 205.333 80.3132 205.333 102.667C205.333 127.258 185.754 147.275 161.333 147.981V148H160H53.3335V147.994C23.8173 147.637 0.000152588 123.599 0.000152588 93.9987C0.000152588 66.9384 19.9049 44.5271 45.872 40.607C57.5172 21.0798 78.8501 8 103.238 8C134.322 8 160.444 29.2491 167.868 58.0137Z" fill="#DDEDF9"/>
<path d="M43.7473 96.496V80.304H48.6973C50.6113 80.304 52.1073 80.832 53.1853 81.844C54.1533 82.768 54.6593 83.934 54.6593 85.342C54.6593 86.816 54.1533 87.96 53.1853 88.752C52.0853 89.742 50.7213 90.226 49.0493 90.226H46.4753V96.496H43.7473ZM46.4753 82.79V87.762H48.7853C49.6653 87.762 50.3693 87.564 50.9413 87.168C51.5133 86.772 51.7993 86.178 51.7993 85.342C51.7993 84.594 51.4913 83.934 50.9193 83.406C50.4133 83.01 49.7093 82.79 48.7853 82.79H46.4753ZM66.5156 85.034V96.496H63.9196V95.176C63.1936 96.232 61.9616 96.76 60.2236 96.76C59.0356 96.76 57.9796 96.364 57.0996 95.528C56.1756 94.736 55.7356 93.416 55.7356 91.612V85.034H58.4636V91.282C58.4636 93.526 59.2996 94.626 61.0156 94.626C61.8516 94.626 62.5336 94.318 63.0616 93.68C63.5456 93.064 63.8096 92.074 63.8096 90.732V85.034H66.5156ZM71.2253 96.496H68.4973V79.16H71.2253V86.376C72.0173 85.32 73.2273 84.77 74.8773 84.77C76.3293 84.77 77.5393 85.32 78.5073 86.398C79.4753 87.498 79.9593 88.862 79.9593 90.468C79.9593 92.382 79.4093 93.9 78.3533 95.044C77.2533 96.188 75.9993 96.76 74.5913 96.76C73.0733 96.76 71.9513 96.254 71.2253 95.198V96.496ZM71.2253 89.984V91.194C71.2253 92.162 71.5113 92.976 72.0833 93.658C72.6333 94.362 73.3153 94.714 74.1293 94.714C75.0973 94.714 75.8453 94.362 76.3733 93.614C76.9013 92.888 77.1653 91.876 77.1653 90.6C77.1653 89.5 76.8793 88.576 76.3513 87.872C75.7793 87.168 75.0313 86.816 74.0853 86.816C73.4033 86.816 72.8093 87.036 72.3253 87.454C71.8193 87.894 71.4893 88.466 71.3353 89.148C71.2473 89.478 71.2253 89.764 71.2253 89.984ZM81.5813 96.496V79.16H84.3093V96.496H81.5813ZM86.2864 96.496V85.034H89.0144V96.496H86.2864ZM89.1024 79.16V82.02H86.1764V79.16H89.1024ZM99.7475 94.098L100.143 95.968C99.3515 96.496 98.2075 96.76 96.7115 96.76C94.9075 96.76 93.4335 96.21 92.2895 95.11C91.1235 94.032 90.5515 92.58 90.5515 90.732C90.5515 88.928 91.1455 87.476 92.3555 86.376C93.5435 85.276 95.1275 84.726 97.1075 84.726C98.3175 84.726 99.3295 84.968 100.121 85.452L99.5055 87.3C98.8235 86.948 98.0535 86.772 97.1955 86.772C96.0075 86.772 95.0835 87.146 94.4235 87.894C93.7195 88.642 93.3895 89.544 93.3895 90.6C93.3895 91.766 93.6975 92.712 94.3355 93.46C94.9515 94.23 95.9415 94.604 97.3495 94.604C98.2735 94.604 99.0875 94.45 99.7475 94.098ZM117.862 93.614L118.588 95.88C117.51 96.474 116.058 96.76 114.232 96.76C111.592 96.76 109.546 95.99 108.05 94.45C106.532 92.91 105.784 90.93 105.784 88.488C105.784 85.804 106.554 83.736 108.116 82.284C109.656 80.832 111.746 80.106 114.364 80.106C115.97 80.106 117.444 80.524 118.808 81.338L118.038 83.604C117.466 83.296 116.894 83.032 116.278 82.834C115.662 82.658 115.068 82.57 114.496 82.57C112.692 82.57 111.284 83.076 110.316 84.066C109.326 85.078 108.842 86.552 108.842 88.488C108.842 90.336 109.392 91.744 110.492 92.756C111.57 93.768 112.978 94.274 114.716 94.274C115.772 94.274 116.828 94.054 117.862 93.614ZM119.974 96.496V79.16H122.702V96.496H119.974ZM136.295 90.776C136.295 91.612 136.119 92.382 135.811 93.086C135.481 93.834 135.041 94.45 134.513 94.978C133.985 95.528 133.347 95.968 132.621 96.276C131.873 96.606 131.081 96.76 130.267 96.76C129.431 96.76 128.639 96.606 127.913 96.276C127.165 95.968 126.527 95.528 125.999 94.978C125.471 94.45 125.031 93.834 124.723 93.086C124.393 92.382 124.239 91.612 124.239 90.776C124.239 89.962 124.393 89.192 124.723 88.444C125.031 87.74 125.471 87.102 125.999 86.574C126.527 86.046 127.165 85.606 127.913 85.276C128.639 84.968 129.431 84.792 130.267 84.792C131.081 84.792 131.873 84.968 132.621 85.276C133.347 85.606 133.985 86.046 134.513 86.574C135.041 87.102 135.481 87.74 135.811 88.444C136.119 89.192 136.295 89.962 136.295 90.776ZM133.435 90.798C133.435 90.27 133.347 89.786 133.171 89.302C132.995 88.84 132.753 88.422 132.489 88.07C132.181 87.74 131.851 87.476 131.477 87.256C131.081 87.058 130.685 86.948 130.267 86.948C129.827 86.948 129.431 87.058 129.057 87.256C128.661 87.476 128.331 87.74 128.045 88.07C127.737 88.422 127.517 88.84 127.363 89.302C127.187 89.786 127.099 90.27 127.099 90.798C127.099 91.326 127.187 91.832 127.363 92.294C127.517 92.778 127.737 93.174 128.045 93.526C128.331 93.878 128.661 94.142 129.057 94.34C129.431 94.56 129.827 94.648 130.267 94.648C130.685 94.648 131.081 94.56 131.477 94.34C131.851 94.142 132.181 93.878 132.489 93.526C132.753 93.174 132.995 92.778 133.171 92.294C133.347 91.832 133.435 91.326 133.435 90.798ZM148.607 85.034V96.496H146.011V95.176C145.285 96.232 144.053 96.76 142.315 96.76C141.127 96.76 140.071 96.364 139.191 95.528C138.267 94.736 137.827 93.416 137.827 91.612V85.034H140.555V91.282C140.555 93.526 141.391 94.626 143.107 94.626C143.943 94.626 144.625 94.318 145.153 93.68C145.637 93.064 145.901 92.074 145.901 90.732V85.034H148.607ZM158.883 96.496V95.154C158.157 96.232 156.991 96.76 155.385 96.76C153.933 96.76 152.701 96.21 151.689 95.066C150.655 93.944 150.149 92.426 150.149 90.512C150.149 88.906 150.633 87.542 151.601 86.42C152.547 85.32 153.735 84.77 155.143 84.77C156.925 84.77 158.179 85.298 158.883 86.354V79.16H161.611V96.496H158.883ZM158.883 89.984C158.883 89.764 158.839 89.478 158.773 89.148C158.597 88.466 158.245 87.894 157.739 87.454C157.211 87.036 156.639 86.816 155.979 86.816C154.945 86.816 154.175 87.146 153.691 87.806C153.185 88.466 152.943 89.39 152.943 90.556C152.943 91.832 153.207 92.844 153.757 93.592C154.285 94.34 155.055 94.714 156.023 94.714C156.705 94.714 157.321 94.45 157.849 93.922C158.377 93.416 158.685 92.822 158.795 92.162C158.839 91.788 158.883 91.458 158.883 91.194V89.984Z" fill="#272B2F"/>
</svg>
