<svg width="838" height="81" viewBox="0 0 838 81" fill="none" xmlns="http://www.w3.org/2000/svg">
<path d="M26.946 58.97C25.056 58.97 23.544 57.998 22.41 56.054L10.314 34.508V59.942H2.322V22.142C2.322 19.01 3.78 17.39 6.588 17.39C8.37 17.39 9.828 18.362 11.016 20.306L26.946 48.872L42.93 20.306C44.064 18.362 45.468 17.39 47.196 17.39C50.058 17.39 51.516 19.01 51.624 22.142V59.942H43.632V34.508L31.482 56.054C30.294 57.998 28.782 58.97 26.946 58.97ZM56.7 59.942V27.866H64.8V59.942H56.7ZM65.772 21.764C65.772 23.114 65.286 24.194 64.314 25.004C63.342 25.868 62.1 26.3 60.696 26.3C59.292 26.3 58.104 25.868 57.186 25.004C56.214 24.194 55.782 23.114 55.782 21.764C55.782 20.468 56.214 19.388 57.186 18.47C58.104 17.606 59.292 17.174 60.696 17.174C62.1 17.174 63.342 17.606 64.314 18.47C65.286 19.334 65.772 20.468 65.772 21.764ZM104.22 59.942H82.782C78.678 59.942 75.438 58.754 73.116 56.378C70.794 54.11 69.66 50.924 69.66 46.82V40.988C69.66 36.884 70.794 33.644 73.116 31.376C75.438 29.054 78.678 27.866 82.782 27.758H104.22V34.454H83.808C81.432 34.454 79.812 35.102 78.84 36.344C78.084 37.424 77.706 39.152 77.706 41.42V46.388C77.706 48.656 78.084 50.33 78.84 51.41C79.812 52.652 81.432 53.246 83.808 53.246H104.22V59.942ZM108.417 37.964C108.417 34.832 109.443 32.348 111.549 30.458C113.493 28.676 116.517 27.758 120.621 27.758H132.825V34.454H121.431C118.083 34.454 116.463 35.966 116.463 38.99V59.942H108.417V37.964ZM158.027 53.246C160.187 53.246 161.753 52.652 162.725 51.41C163.535 50.33 163.967 48.656 163.967 46.388V41.42C163.967 39.152 163.535 37.478 162.725 36.344C161.753 35.102 160.187 34.454 158.027 34.454H149.927C147.767 34.454 146.201 35.102 145.283 36.344C144.473 37.424 144.095 39.152 144.095 41.42V46.388C144.095 48.656 144.473 50.33 145.283 51.41C146.201 52.652 147.767 53.246 149.927 53.246H158.027ZM158.783 59.942H149.225C145.121 59.942 141.881 58.754 139.559 56.378C137.237 54.11 136.103 50.924 136.103 46.82V40.934C136.103 36.83 137.237 33.59 139.559 31.322C141.881 29 145.121 27.812 149.225 27.758H158.783C162.887 27.812 166.127 29 168.503 31.322C170.771 33.59 171.959 36.83 171.959 40.934V46.82C171.959 50.924 170.771 54.11 168.503 56.378C166.127 58.754 162.887 59.942 158.783 59.942ZM221.168 21.386L227.756 46.496L235.64 17.498H243.632L232.886 55.406C231.914 58.538 230.132 60.05 227.648 60.05C225.164 60.05 223.49 58.538 222.626 55.406L216.686 33.05L210.746 55.406C209.828 58.538 208.154 60.05 205.67 60.05C203.186 60.05 201.458 58.538 200.486 55.406L189.74 17.498H197.732L205.616 46.496L212.204 21.386C213.014 19.01 214.526 17.768 216.686 17.768C218.846 17.768 220.358 19.01 221.168 21.386ZM257.373 42.662H266.931C270.009 42.662 271.575 41.474 271.575 39.098V37.964C271.575 35.588 270.009 34.346 266.931 34.346H257.373C254.295 34.346 252.783 35.588 252.783 37.964V39.098C252.783 41.474 254.295 42.662 257.373 42.662ZM279.567 37.424V39.692C279.567 42.392 278.595 44.66 276.651 46.496C274.653 48.332 272.223 49.25 269.307 49.25H252.783V49.412C252.783 52.004 254.565 53.3 258.237 53.3H278.109V59.942H257.427C253.377 59.942 250.245 58.916 248.031 56.81C245.871 54.758 244.791 51.95 244.791 48.332V37.37C244.791 34.67 245.709 32.402 247.653 30.566C249.597 28.73 252.135 27.758 255.267 27.758H269.037C272.169 27.758 274.707 28.73 276.651 30.566C278.595 32.456 279.567 34.724 279.567 37.424ZM291.54 46.442C291.54 48.71 291.918 50.33 292.728 51.41C293.646 52.652 295.158 53.246 297.318 53.246H304.5C306.606 53.246 308.172 52.652 309.144 51.41C309.9 50.33 310.332 48.656 310.332 46.388V41.42C310.332 39.152 309.9 37.424 309.144 36.344C308.172 35.102 306.606 34.454 304.5 34.454H291.54V46.442ZM283.548 46.82V17.39H291.54V27.758H305.202C309.252 27.866 312.438 29.054 314.814 31.376C317.136 33.644 318.324 36.884 318.324 40.988V46.82C318.324 50.924 317.136 54.11 314.814 56.378C312.438 58.754 309.252 59.942 305.148 59.942H296.67C292.566 59.942 289.326 58.754 287.004 56.378C284.682 54.11 283.548 50.924 283.548 46.82ZM344.661 40.556C348.063 40.556 350.655 41.15 352.383 42.338C354.597 43.85 355.731 46.064 355.731 49.088V51.518C355.731 54.542 354.597 56.756 352.383 58.214C350.601 59.402 347.901 59.942 344.229 59.942H322.791V53.246H343.689C346.335 53.246 347.685 52.49 347.685 50.924V49.574C347.685 48.008 346.389 47.198 343.797 47.198H333.051C329.703 47.198 327.111 46.658 325.329 45.47C323.169 44.012 322.089 41.798 322.089 38.774V36.29C322.089 33.266 323.169 30.998 325.329 29.54C327.057 28.352 329.757 27.758 333.375 27.758H354.003V34.454H334.077C331.431 34.454 330.135 35.264 330.135 36.83V38.234C330.135 39.8 331.377 40.556 333.915 40.556H344.661ZM372.123 42.662H381.681C384.759 42.662 386.325 41.474 386.325 39.098V37.964C386.325 35.588 384.759 34.346 381.681 34.346H372.123C369.045 34.346 367.533 35.588 367.533 37.964V39.098C367.533 41.474 369.045 42.662 372.123 42.662ZM394.317 37.424V39.692C394.317 42.392 393.345 44.66 391.401 46.496C389.403 48.332 386.973 49.25 384.057 49.25H367.533V49.412C367.533 52.004 369.315 53.3 372.987 53.3H392.859V59.942H372.177C368.127 59.942 364.995 58.916 362.781 56.81C360.621 54.758 359.541 51.95 359.541 48.332V37.37C359.541 34.67 360.459 32.402 362.403 30.566C364.347 28.73 366.885 27.758 370.017 27.758H383.787C386.919 27.758 389.457 28.73 391.401 30.566C393.345 32.456 394.317 34.724 394.317 37.424ZM398.298 37.964C398.298 34.832 399.324 32.348 401.43 30.458C403.374 28.676 406.398 27.758 410.502 27.758H422.706V34.454H411.312C407.964 34.454 406.344 35.966 406.344 38.99V59.942H398.298V37.964ZM442.981 60.05C442.117 60.05 441.307 59.834 440.659 59.348C439.903 58.916 439.309 58.16 438.877 57.188L423.757 27.758H432.127L443.035 49.142L453.943 27.758H462.313L447.193 57.188C446.707 58.16 446.113 58.916 445.465 59.348C444.709 59.834 443.899 60.05 442.981 60.05ZM464.442 59.942V27.866H472.542V59.942H464.442ZM473.514 21.764C473.514 23.114 473.028 24.194 472.056 25.004C471.084 25.868 469.842 26.3 468.438 26.3C467.034 26.3 465.846 25.868 464.928 25.004C463.956 24.194 463.524 23.114 463.524 21.764C463.524 20.468 463.956 19.388 464.928 18.47C465.846 17.606 467.034 17.174 468.438 17.174C469.842 17.174 471.084 17.606 472.056 18.47C473.028 19.334 473.514 20.468 473.514 21.764ZM511.962 59.942H490.524C486.42 59.942 483.18 58.754 480.858 56.378C478.536 54.11 477.402 50.924 477.402 46.82V40.988C477.402 36.884 478.536 33.644 480.858 31.376C483.18 29.054 486.42 27.866 490.524 27.758H511.962V34.454H491.55C489.174 34.454 487.554 35.102 486.582 36.344C485.826 37.424 485.448 39.152 485.448 41.42V46.388C485.448 48.656 485.826 50.33 486.582 51.41C487.554 52.652 489.174 53.246 491.55 53.246H511.962V59.942ZM528.849 42.662H538.407C541.485 42.662 543.051 41.474 543.051 39.098V37.964C543.051 35.588 541.485 34.346 538.407 34.346H528.849C525.771 34.346 524.259 35.588 524.259 37.964V39.098C524.259 41.474 525.771 42.662 528.849 42.662ZM551.043 37.424V39.692C551.043 42.392 550.071 44.66 548.127 46.496C546.129 48.332 543.699 49.25 540.783 49.25H524.259V49.412C524.259 52.004 526.041 53.3 529.713 53.3H549.585V59.942H528.903C524.853 59.942 521.721 58.916 519.507 56.81C517.347 54.758 516.267 51.95 516.267 48.332V37.37C516.267 34.67 517.185 32.402 519.129 30.566C521.073 28.73 523.611 27.758 526.743 27.758H540.513C543.645 27.758 546.183 28.73 548.127 30.566C550.071 32.456 551.043 34.724 551.043 37.424ZM595.689 38.612C599.523 38.612 601.467 37.208 601.467 34.292V28.514C601.467 25.652 599.523 24.194 595.689 24.194H579.111V38.612H595.689ZM609.459 34.886C609.459 37.964 608.325 40.448 606.111 42.392C603.951 44.336 600.873 45.254 596.877 45.254H579.111V59.942H571.119V17.498H596.553C600.765 17.498 603.951 18.47 606.111 20.414C608.325 22.358 609.459 24.896 609.459 27.974V34.886ZM613.997 59.942V17.39H622.097V59.942H613.997ZM648.611 44.984H639.107C636.029 44.984 634.517 46.226 634.517 48.602V49.736C634.517 52.112 636.029 53.3 639.107 53.3H648.611C651.743 53.3 653.309 52.112 653.309 49.736V48.602C653.309 46.226 651.743 44.984 648.611 44.984ZM636.947 59.942C633.815 59.942 631.277 59.024 629.387 57.188C627.443 55.352 626.525 53.084 626.525 50.384V48.062C626.525 45.362 627.443 43.094 629.387 41.204C631.277 39.368 633.707 38.396 636.677 38.396H653.309V38.288C653.309 35.696 651.473 34.346 647.855 34.346H629.063V27.758H648.611C652.607 27.758 655.739 28.838 658.007 30.944C660.167 33.05 661.301 35.912 661.301 39.476V50.654C661.301 53.462 660.275 55.784 658.277 57.512C656.387 59.132 653.849 59.942 650.609 59.942H636.947ZM681.968 27.758H691.472V34.292H681.968V59.942H673.922V34.292H664.418V27.758H673.922V20.738H681.968V27.758ZM702.449 27.92H714.113V34.562H702.395V59.942H694.349V27.92C694.349 24.896 695.429 22.358 697.697 20.414C699.857 18.47 703.151 17.498 707.633 17.498H714.113V24.194H708.011C704.663 24.194 702.773 25.436 702.449 27.92ZM739.476 53.246C741.636 53.246 743.202 52.652 744.174 51.41C744.984 50.33 745.416 48.656 745.416 46.388V41.42C745.416 39.152 744.984 37.478 744.174 36.344C743.202 35.102 741.636 34.454 739.476 34.454H731.376C729.216 34.454 727.65 35.102 726.732 36.344C725.922 37.424 725.544 39.152 725.544 41.42V46.388C725.544 48.656 725.922 50.33 726.732 51.41C727.65 52.652 729.216 53.246 731.376 53.246H739.476ZM740.232 59.942H730.674C726.57 59.942 723.33 58.754 721.008 56.378C718.686 54.11 717.552 50.924 717.552 46.82V40.934C717.552 36.83 718.686 33.59 721.008 31.322C723.33 29 726.57 27.812 730.674 27.758H740.232C744.336 27.812 747.576 29 749.952 31.322C752.22 33.59 753.408 36.83 753.408 40.934V46.82C753.408 50.924 752.22 54.11 749.952 56.378C747.576 58.754 744.336 59.942 740.232 59.942ZM757.525 37.964C757.525 34.832 758.551 32.348 760.657 30.458C762.601 28.676 765.625 27.758 769.729 27.758H781.933V34.454H770.539C767.191 34.454 765.571 35.966 765.571 38.99V59.942H757.525V37.964ZM810.158 31.646C812.318 29.054 815.126 27.758 818.474 27.758H822.686C826.466 27.758 829.49 29 831.866 31.376C834.026 33.644 835.106 36.722 835.106 40.718V59.942H827.168V40.88C827.168 38.612 826.682 36.992 825.764 36.02C824.792 34.994 823.442 34.454 821.822 34.454H819.338C817.718 34.454 816.422 34.994 815.45 36.02C814.532 36.992 814.1 38.612 814.1 40.88V59.942H806.216V40.88C806.216 38.612 805.73 36.992 804.812 36.02C803.84 34.994 802.49 34.454 800.87 34.454H798.386C796.766 34.454 795.47 34.994 794.498 36.02C793.58 36.992 793.148 38.612 793.148 40.88V59.942H785.21V40.718C785.21 36.722 786.236 33.644 788.342 31.376C790.61 29 793.688 27.758 797.468 27.758H801.68C805.136 27.758 807.944 29.054 810.158 31.646Z" fill="white"/>
</svg>
