<svg width="524" height="56" viewBox="0 0 524 56" fill="none" xmlns="http://www.w3.org/2000/svg">
<path d="M2.36313 45.504V7.776H22.7151C27.3711 7.776 30.9711 9.072 33.5151 11.664C36.2031 14.4 37.5471 17.856 37.5471 21.984V31.392C37.5471 35.52 36.2031 38.928 33.5151 41.664C30.9711 44.256 27.3711 45.504 22.7151 45.504H2.36313ZM9.46713 13.728V39.552H22.3311C24.8751 39.552 26.8911 38.736 28.3791 37.104C29.7231 35.568 30.4431 33.504 30.4431 30.96V22.368C30.4431 19.824 29.7711 17.76 28.4271 16.176C26.8911 14.544 24.8751 13.728 22.3311 13.728H9.46713ZM41.9781 45.504V16.992H49.1781V45.504H41.9781ZM50.0421 11.568C50.0421 12.768 49.6101 13.728 48.7461 14.448C47.8821 15.216 46.7781 15.6 45.5301 15.6C44.2821 15.6 43.2261 15.216 42.4101 14.448C41.5461 13.728 41.1621 12.768 41.1621 11.568C41.1621 10.416 41.5461 9.456 42.4101 8.64C43.2261 7.872 44.2821 7.488 45.5301 7.488C46.7781 7.488 47.8821 7.872 48.7461 8.64C49.6101 9.408 50.0421 10.416 50.0421 11.568ZM73.1781 28.272C76.2021 28.272 78.5061 28.8 80.0421 29.856C82.0101 31.2 83.0181 33.168 83.0181 35.856V38.016C83.0181 40.704 82.0101 42.672 80.0421 43.968C78.4581 45.024 76.0581 45.504 72.7941 45.504H53.7381V39.552H72.3141C74.6661 39.552 75.8661 38.88 75.8661 37.488V36.288C75.8661 34.896 74.7141 34.176 72.4101 34.176H62.8581C59.8821 34.176 57.5781 33.696 55.9941 32.64C54.0741 31.344 53.1141 29.376 53.1141 26.688V24.48C53.1141 21.792 54.0741 19.776 55.9941 18.48C57.5301 17.424 59.9301 16.896 63.1461 16.896H81.4821V22.848H63.7701C61.4181 22.848 60.2661 23.568 60.2661 24.96V26.208C60.2661 27.6 61.3701 28.272 63.6261 28.272H73.1781ZM117.124 45.504H98.0684C94.4204 45.504 91.5404 44.448 89.4764 42.336C87.4124 40.32 86.4044 37.488 86.4044 33.84V28.656C86.4044 25.008 87.4124 22.128 89.4764 20.112C91.5404 18.048 94.4204 16.992 98.0684 16.896H117.124V22.848H98.9804C96.8684 22.848 95.4284 23.424 94.5644 24.528C93.8924 25.488 93.5564 27.024 93.5564 29.04V33.456C93.5564 35.472 93.8924 36.96 94.5644 37.92C95.4284 39.024 96.8684 39.552 98.9804 39.552H117.124V45.504ZM140.343 39.552C142.263 39.552 143.655 39.024 144.519 37.92C145.239 36.96 145.623 35.472 145.623 33.456V29.04C145.623 27.024 145.239 25.536 144.519 24.528C143.655 23.424 142.263 22.848 140.343 22.848H133.143C131.223 22.848 129.831 23.424 129.015 24.528C128.295 25.488 127.959 27.024 127.959 29.04V33.456C127.959 35.472 128.295 36.96 129.015 37.92C129.831 39.024 131.223 39.552 133.143 39.552H140.343ZM141.015 45.504H132.519C128.871 45.504 125.991 44.448 123.927 42.336C121.863 40.32 120.855 37.488 120.855 33.84V28.608C120.855 24.96 121.863 22.08 123.927 20.064C125.991 18 128.871 16.944 132.519 16.896H141.015C144.663 16.944 147.543 18 149.655 20.064C151.671 22.08 152.727 24.96 152.727 28.608V33.84C152.727 37.488 151.671 40.32 149.655 42.336C147.543 44.448 144.663 45.504 141.015 45.504ZM171.027 45.6C170.259 45.6 169.539 45.408 168.963 44.976C168.291 44.592 167.763 43.92 167.379 43.056L153.938 16.896H161.379L171.075 35.904L180.771 16.896H188.211L174.771 43.056C174.339 43.92 173.811 44.592 173.235 44.976C172.563 45.408 171.843 45.6 171.027 45.6ZM200.807 30.144H209.303C212.039 30.144 213.431 29.088 213.431 26.976V25.968C213.431 23.856 212.039 22.752 209.303 22.752H200.807C198.071 22.752 196.727 23.856 196.727 25.968V26.976C196.727 29.088 198.071 30.144 200.807 30.144ZM220.535 25.488V27.504C220.535 29.904 219.671 31.92 217.943 33.552C216.167 35.184 214.007 36 211.415 36H196.727V36.144C196.727 38.448 198.311 39.6 201.575 39.6H219.239V45.504H200.855C197.255 45.504 194.471 44.592 192.503 42.72C190.583 40.896 189.623 38.4 189.623 35.184V25.44C189.623 23.04 190.439 21.024 192.167 19.392C193.895 17.76 196.151 16.896 198.935 16.896H211.175C213.959 16.896 216.215 17.76 217.943 19.392C219.671 21.072 220.535 23.088 220.535 25.488ZM224.074 25.968C224.074 23.184 224.986 20.976 226.858 19.296C228.586 17.712 231.274 16.896 234.922 16.896H245.77V22.848H235.642C232.666 22.848 231.226 24.192 231.226 26.88V45.504H224.074V25.968ZM290.397 33.504V7.776H297.501V41.28C297.501 44.16 296.157 45.6 293.469 45.6C292.221 45.6 291.213 45.168 290.445 44.256L269.949 19.824V45.504H262.845V12C262.845 9.12 264.141 7.68 266.829 7.68C268.029 7.68 269.037 8.16 269.901 9.072L290.397 33.504ZM312.745 30.144H321.241C323.977 30.144 325.369 29.088 325.369 26.976V25.968C325.369 23.856 323.977 22.752 321.241 22.752H312.745C310.009 22.752 308.665 23.856 308.665 25.968V26.976C308.665 29.088 310.009 30.144 312.745 30.144ZM332.473 25.488V27.504C332.473 29.904 331.609 31.92 329.881 33.552C328.105 35.184 325.945 36 323.353 36H308.665V36.144C308.665 38.448 310.249 39.6 313.513 39.6H331.177V45.504H312.793C309.193 45.504 306.409 44.592 304.441 42.72C302.521 40.896 301.561 38.4 301.561 35.184V25.44C301.561 23.04 302.377 21.024 304.105 19.392C305.833 17.76 308.089 16.896 310.873 16.896H323.113C325.897 16.896 328.153 17.76 329.881 19.392C331.609 21.072 332.473 23.088 332.473 25.488ZM359.052 45.504L350.748 36.096L342.444 45.504H333.755L346.428 31.2L333.755 16.896H342.444L350.748 26.304L359.052 16.896H367.74L355.116 31.2L367.74 45.504H359.052ZM383.6 16.896H392.048V22.704H383.6V45.504H376.448V22.704H368V16.896H376.448V10.656H383.6V16.896ZM422.831 39.504H440.975V45.504H421.631C413.087 45.504 408.815 41.856 408.815 34.56V7.776H415.967V33.504C415.967 37.536 418.223 39.504 422.831 39.504ZM463.402 32.208H454.954C452.218 32.208 450.874 33.312 450.874 35.424V36.432C450.874 38.544 452.218 39.6 454.954 39.6H463.402C466.186 39.6 467.578 38.544 467.578 36.432V35.424C467.578 33.312 466.186 32.208 463.402 32.208ZM453.034 45.504C450.25 45.504 447.994 44.688 446.314 43.056C444.586 41.424 443.77 39.408 443.77 37.008V34.944C443.77 32.544 444.586 30.528 446.314 28.848C447.994 27.216 450.154 26.352 452.794 26.352H467.578V26.256C467.578 23.952 465.946 22.752 462.73 22.752H446.026V16.896H463.402C466.954 16.896 469.738 17.856 471.754 19.728C473.674 21.6 474.682 24.144 474.682 27.312V37.248C474.682 39.744 473.77 41.808 471.994 43.344C470.314 44.784 468.058 45.504 465.178 45.504H453.034ZM485.709 33.504C485.709 35.52 486.045 36.96 486.765 37.92C487.581 39.024 488.925 39.552 490.845 39.552H497.229C499.101 39.552 500.493 39.024 501.357 37.92C502.029 36.96 502.413 35.472 502.413 33.456V29.04C502.413 27.024 502.029 25.488 501.357 24.528C500.493 23.424 499.101 22.848 497.229 22.848H485.709V33.504ZM478.605 33.84V7.68H485.709V16.896H497.853C501.453 16.992 504.285 18.048 506.397 20.112C508.461 22.128 509.517 25.008 509.517 28.656V33.84C509.517 37.488 508.461 40.32 506.397 42.336C504.285 44.448 501.453 45.504 497.805 45.504H490.269C486.621 45.504 483.741 44.448 481.677 42.336C479.613 40.32 478.605 37.488 478.605 33.84ZM522.032 42.96C522.032 44.16 521.6 45.12 520.784 45.888C519.92 46.704 518.816 47.088 517.568 47.088C516.272 47.088 515.216 46.704 514.4 45.888C513.536 45.12 513.104 44.16 513.104 42.96C513.104 41.808 513.536 40.8 514.4 39.984C515.216 39.216 516.272 38.832 517.568 38.832C518.816 38.832 519.92 39.216 520.784 39.984C521.6 40.8 522.032 41.808 522.032 42.96Z" fill="#272B2F"/>
</svg>
