<svg width="502" height="56" viewBox="0 0 502 56" fill="none" xmlns="http://www.w3.org/2000/svg">
<path d="M24.5938 29.664H9.85775V39.552H24.5938C28.0018 39.552 29.7298 38.352 29.7298 35.856V33.408C29.7298 30.912 28.0018 29.664 24.5938 29.664ZM24.5938 23.76C28.0018 23.76 29.7298 22.512 29.7298 20.016V17.472C29.7298 14.976 28.0018 13.728 24.5938 13.728H9.85775V23.76H24.5938ZM33.9058 26.736C35.8258 28.176 36.8338 30.288 36.8338 33.072V36.288C36.8338 39.024 35.8258 41.232 33.8578 42.96C31.9378 44.688 29.0578 45.504 25.3138 45.504H2.75375V7.776H25.3618C29.1058 7.776 31.9378 8.64 33.8578 10.368C35.8258 12.096 36.8338 14.352 36.8338 17.088V20.448C36.8338 23.232 35.8258 25.344 33.9058 26.736ZM52.9044 45.504C49.2084 45.504 46.2804 44.4 44.1204 42.192C41.9604 40.08 40.9044 37.104 40.9044 33.312V16.896H48.0084V32.784C48.0084 35.136 48.3924 36.816 49.1604 37.776C50.1684 38.976 51.6084 39.552 53.5284 39.552H58.0884C60.0564 39.552 61.5444 38.976 62.5524 37.776C63.3684 36.816 63.8004 35.136 63.8004 32.784V16.896H70.9044V33.312C70.9044 37.104 69.8004 40.08 67.6884 42.192C65.4804 44.4 62.5524 45.504 58.8084 45.504H52.9044ZM75.1813 45.504V16.992H82.3813V45.504H75.1813ZM83.2453 11.568C83.2453 12.768 82.8133 13.728 81.9493 14.448C81.0853 15.216 79.9813 15.6 78.7333 15.6C77.4853 15.6 76.4293 15.216 75.6133 14.448C74.7493 13.728 74.3652 12.768 74.3652 11.568C74.3652 10.416 74.7493 9.456 75.6133 8.64C76.4293 7.872 77.4853 7.488 78.7333 7.488C79.9813 7.488 81.0853 7.872 81.9493 8.64C82.8133 9.408 83.2453 10.416 83.2453 11.568ZM87.1813 45.504V7.68H94.3813V45.504H87.1813ZM122.365 33.504V22.848H110.797C108.877 22.848 107.533 23.424 106.717 24.528C105.997 25.488 105.661 27.024 105.661 29.04V33.456C105.661 35.472 105.997 36.96 106.717 37.92C107.533 39.024 108.877 39.552 110.797 39.552H117.181C119.053 39.552 120.445 39.024 121.309 37.92C121.981 36.96 122.365 35.52 122.365 33.504ZM129.469 33.84C129.469 37.488 128.413 40.32 126.349 42.336C124.237 44.448 121.405 45.504 117.757 45.504H110.221C106.573 45.504 103.693 44.448 101.629 42.336C99.5653 40.32 98.5573 37.488 98.5573 33.84V28.656C98.5573 25.008 99.5653 22.128 101.629 20.112C103.693 18.048 106.573 16.992 110.221 16.896H122.365V7.68H129.469V33.84ZM164.69 25.584L176.546 7.776H184.802L168.242 32.4V45.504H161.138V32.4L144.53 7.776H152.786L164.69 25.584ZM203.078 39.552C204.998 39.552 206.39 39.024 207.254 37.92C207.974 36.96 208.358 35.472 208.358 33.456V29.04C208.358 27.024 207.974 25.536 207.254 24.528C206.39 23.424 204.998 22.848 203.078 22.848H195.878C193.958 22.848 192.566 23.424 191.75 24.528C191.03 25.488 190.694 27.024 190.694 29.04V33.456C190.694 35.472 191.03 36.96 191.75 37.92C192.566 39.024 193.958 39.552 195.878 39.552H203.078ZM203.75 45.504H195.254C191.606 45.504 188.726 44.448 186.662 42.336C184.598 40.32 183.59 37.488 183.59 33.84V28.608C183.59 24.96 184.598 22.08 186.662 20.064C188.726 18 191.606 16.944 195.254 16.896H203.75C207.398 16.944 210.278 18 212.39 20.064C214.406 22.08 215.462 24.96 215.462 28.608V33.84C215.462 37.488 214.406 40.32 212.39 42.336C210.278 44.448 207.398 45.504 203.75 45.504ZM231.217 45.504C227.521 45.504 224.593 44.4 222.433 42.192C220.273 40.08 219.217 37.104 219.217 33.312V16.896H226.321V32.784C226.321 35.136 226.705 36.816 227.473 37.776C228.481 38.976 229.921 39.552 231.841 39.552H236.401C238.369 39.552 239.857 38.976 240.865 37.776C241.681 36.816 242.113 35.136 242.113 32.784V16.896H249.217V33.312C249.217 37.104 248.113 40.08 246.001 42.192C243.793 44.4 240.865 45.504 237.121 45.504H231.217ZM252.918 25.968C252.918 23.184 253.83 20.976 255.702 19.296C257.43 17.712 260.118 16.896 263.766 16.896H274.614V22.848H264.486C261.51 22.848 260.07 24.192 260.07 26.88V45.504H252.918V25.968ZM323.897 7.776V13.728H304.073C300.425 13.728 298.601 14.976 298.601 17.472V19.776C298.601 22.272 300.377 23.472 303.929 23.472H314.441C317.945 23.472 320.681 24.336 322.601 26.064C324.617 27.792 325.625 30.048 325.625 32.784V36.288C325.625 39.024 324.617 41.232 322.601 42.96C320.681 44.688 317.801 45.504 314.057 45.504H292.841V39.552H313.001C316.649 39.552 318.473 38.304 318.473 35.808V33.168C318.473 30.672 316.649 29.376 313.097 29.376H302.585C299.033 29.376 296.345 28.56 294.425 26.832C292.409 25.104 291.449 22.896 291.449 20.16V17.088C291.449 14.352 292.409 12.096 294.425 10.368C296.345 8.64 299.177 7.776 302.921 7.776H323.897ZM340.651 30.144H349.147C351.883 30.144 353.275 29.088 353.275 26.976V25.968C353.275 23.856 351.883 22.752 349.147 22.752H340.651C337.915 22.752 336.571 23.856 336.571 25.968V26.976C336.571 29.088 337.915 30.144 340.651 30.144ZM360.379 25.488V27.504C360.379 29.904 359.515 31.92 357.787 33.552C356.011 35.184 353.851 36 351.259 36H336.571V36.144C336.571 38.448 338.155 39.6 341.419 39.6H359.083V45.504H340.699C337.099 45.504 334.315 44.592 332.347 42.72C330.427 40.896 329.467 38.4 329.467 35.184V25.44C329.467 23.04 330.283 21.024 332.011 19.392C333.739 17.76 335.995 16.896 338.779 16.896H351.019C353.803 16.896 356.059 17.76 357.787 19.392C359.515 21.072 360.379 23.088 360.379 25.488ZM363.918 25.968C363.918 23.184 364.83 20.976 366.702 19.296C368.43 17.712 371.118 16.896 374.766 16.896H385.614V22.848H375.486C372.51 22.848 371.07 24.192 371.07 26.88V45.504H363.918V25.968ZM403.636 45.6C402.868 45.6 402.148 45.408 401.572 44.976C400.9 44.592 400.372 43.92 399.988 43.056L386.548 16.896H393.988L403.684 35.904L413.38 16.896H420.82L407.38 43.056C406.948 43.92 406.42 44.592 405.844 44.976C405.172 45.408 404.452 45.6 403.636 45.6ZM422.713 45.504V16.992H429.913V45.504H422.713ZM430.777 11.568C430.777 12.768 430.345 13.728 429.481 14.448C428.617 15.216 427.513 15.6 426.265 15.6C425.017 15.6 423.961 15.216 423.145 14.448C422.281 13.728 421.896 12.768 421.896 11.568C421.896 10.416 422.281 9.456 423.145 8.64C423.961 7.872 425.017 7.488 426.265 7.488C427.513 7.488 428.617 7.872 429.481 8.64C430.345 9.408 430.777 10.416 430.777 11.568ZM464.953 45.504H445.897C442.249 45.504 439.368 44.448 437.305 42.336C435.241 40.32 434.233 37.488 434.233 33.84V28.656C434.233 25.008 435.241 22.128 437.305 20.112C439.368 18.048 442.249 16.992 445.897 16.896H464.953V22.848H446.809C444.697 22.848 443.257 23.424 442.393 24.528C441.721 25.488 441.385 27.024 441.385 29.04V33.456C441.385 35.472 441.721 36.96 442.393 37.92C443.257 39.024 444.697 39.552 446.809 39.552H464.953V45.504ZM479.963 30.144H488.459C491.195 30.144 492.587 29.088 492.587 26.976V25.968C492.587 23.856 491.195 22.752 488.459 22.752H479.963C477.227 22.752 475.883 23.856 475.883 25.968V26.976C475.883 29.088 477.227 30.144 479.963 30.144ZM499.691 25.488V27.504C499.691 29.904 498.827 31.92 497.099 33.552C495.323 35.184 493.163 36 490.571 36H475.883V36.144C475.883 38.448 477.467 39.6 480.731 39.6H498.395V45.504H480.011C476.411 45.504 473.627 44.592 471.659 42.72C469.739 40.896 468.779 38.4 468.779 35.184V25.44C468.779 23.04 469.595 21.024 471.323 19.392C473.051 17.76 475.307 16.896 478.091 16.896H490.331C493.115 16.896 495.371 17.76 497.099 19.392C498.827 21.072 499.691 23.088 499.691 25.488Z" fill="white"/>
</svg>
