<svg width="264" height="56" viewBox="0 0 264 56" fill="none" xmlns="http://www.w3.org/2000/svg">
<path d="M25.9624 45.504H14.0584C10.3144 45.504 7.38638 44.496 5.37038 42.432C3.35438 40.512 2.39438 37.584 2.39438 33.648V19.728C2.39438 15.792 3.35438 12.816 5.37038 10.8C7.38638 8.784 10.3144 7.776 14.1064 7.776H26.1544C29.8984 7.776 32.8264 8.832 34.8904 10.848C36.9064 12.864 37.9144 15.792 37.9144 19.728V33.648C37.9144 37.584 36.9064 40.512 34.8904 42.432C32.7784 44.448 29.8024 45.504 25.9624 45.504ZM25.3384 39.552C27.4024 39.552 28.8904 39.024 29.7544 37.92C30.4264 36.96 30.8104 35.376 30.8104 33.168V20.208C30.8104 18 30.4264 16.368 29.7544 15.408C28.8904 14.304 27.4024 13.728 25.3384 13.728H14.8744C12.8104 13.728 11.3704 14.304 10.5064 15.408C9.83438 16.368 9.49838 18 9.49838 20.208V33.168C9.49838 35.376 9.83438 36.96 10.5064 37.92C11.3704 39.024 12.8104 39.552 14.8744 39.552H25.3384ZM53.9981 45.504C50.3021 45.504 47.3741 44.4 45.2141 42.192C43.0541 40.08 41.9981 37.104 41.9981 33.312V16.896H49.1021V32.784C49.1021 35.136 49.4861 36.816 50.2541 37.776C51.2621 38.976 52.7021 39.552 54.6221 39.552H59.1821C61.1501 39.552 62.6381 38.976 63.6461 37.776C64.4621 36.816 64.8941 35.136 64.8941 32.784V16.896H71.9981V33.312C71.9981 37.104 70.8941 40.08 68.7821 42.192C66.5741 44.4 63.6461 45.504 59.9021 45.504H53.9981ZM75.699 25.968C75.699 23.184 76.611 20.976 78.483 19.296C80.211 17.712 82.899 16.896 86.547 16.896H97.395V22.848H87.267C84.291 22.848 82.851 24.192 82.851 26.88V45.504H75.699V25.968ZM140.39 11.232L146.246 33.552L153.254 7.776H160.358L150.806 41.472C149.942 44.256 148.358 45.6 146.15 45.6C143.942 45.6 142.454 44.256 141.686 41.472L136.406 21.6L131.126 41.472C130.31 44.256 128.822 45.6 126.614 45.6C124.406 45.6 122.87 44.256 122.006 41.472L112.454 7.776H119.558L126.566 33.552L132.422 11.232C133.142 9.12 134.486 8.016 136.406 8.016C138.326 8.016 139.67 9.12 140.39 11.232ZM180.781 39.552C182.701 39.552 184.093 39.024 184.957 37.92C185.677 36.96 186.061 35.472 186.061 33.456V29.04C186.061 27.024 185.677 25.536 184.957 24.528C184.093 23.424 182.701 22.848 180.781 22.848H173.581C171.661 22.848 170.269 23.424 169.453 24.528C168.733 25.488 168.397 27.024 168.397 29.04V33.456C168.397 35.472 168.733 36.96 169.453 37.92C170.269 39.024 171.661 39.552 173.581 39.552H180.781ZM181.453 45.504H172.957C169.309 45.504 166.429 44.448 164.365 42.336C162.301 40.32 161.293 37.488 161.293 33.84V28.608C161.293 24.96 162.301 22.08 164.365 20.064C166.429 18 169.309 16.944 172.957 16.896H181.453C185.101 16.944 187.981 18 190.093 20.064C192.109 22.08 193.165 24.96 193.165 28.608V33.84C193.165 37.488 192.109 40.32 190.093 42.336C187.981 44.448 185.101 45.504 181.453 45.504ZM196.824 25.968C196.824 23.184 197.736 20.976 199.608 19.296C201.336 17.712 204.024 16.896 207.672 16.896H218.52V22.848H208.392C205.416 22.848 203.976 24.192 203.976 26.88V45.504H196.824V25.968ZM228.585 7.68V26.304L241.497 16.896H251.961L233.001 31.2L251.961 45.504H241.497L228.585 36.144V45.504H221.433V7.68H228.585ZM262.001 42.96C262.001 44.16 261.569 45.12 260.753 45.888C259.889 46.704 258.785 47.088 257.537 47.088C256.241 47.088 255.185 46.704 254.369 45.888C253.505 45.12 253.073 44.16 253.073 42.96C253.073 41.808 253.505 40.8 254.369 39.984C255.185 39.216 256.241 38.832 257.537 38.832C258.785 38.832 259.889 39.216 260.753 39.984C261.569 40.8 262.001 41.808 262.001 42.96Z" fill="#272B2F"/>
</svg>
