<svg width="315" height="57" viewBox="0 0 315 57" fill="none" xmlns="http://www.w3.org/2000/svg">
<path d="M2.51269 31.892V22.484C2.51269 18.356 3.85669 14.9 6.54469 12.164C9.04069 9.572 12.5927 8.276 17.2487 8.276H37.6967V14.228H18.0167C15.2327 14.228 13.1207 15.044 11.6327 16.676C10.2887 18.26 9.61669 20.276 9.66469 22.772V31.556C9.61669 34.052 10.2887 36.068 11.6327 37.604C13.1207 39.236 15.2327 40.052 18.0167 40.052H37.6967V46.004H17.2487C12.5927 46.004 9.04069 44.756 6.54469 42.164C3.85669 39.428 2.51269 36.02 2.51269 31.892ZM60.9917 40.052C62.9117 40.052 64.3037 39.524 65.1677 38.42C65.8877 37.46 66.2717 35.972 66.2717 33.956V29.54C66.2717 27.524 65.8877 26.036 65.1677 25.028C64.3037 23.924 62.9117 23.348 60.9917 23.348H53.7917C51.8717 23.348 50.4797 23.924 49.6637 25.028C48.9437 25.988 48.6077 27.524 48.6077 29.54V33.956C48.6077 35.972 48.9437 37.46 49.6637 38.42C50.4797 39.524 51.8717 40.052 53.7917 40.052H60.9917ZM61.6637 46.004H53.1677C49.5197 46.004 46.6397 44.948 44.5757 42.836C42.5117 40.82 41.5037 37.988 41.5037 34.34V29.108C41.5037 25.46 42.5117 22.58 44.5757 20.564C46.6397 18.5 49.5197 17.444 53.1677 17.396H61.6637C65.3117 17.444 68.1917 18.5 70.3037 20.564C72.3197 22.58 73.3757 25.46 73.3757 29.108V34.34C73.3757 37.988 72.3197 40.82 70.3037 42.836C68.1917 44.948 65.3117 46.004 61.6637 46.004ZM89.1309 17.396H95.0349C98.7789 17.396 101.707 18.5 103.915 20.66C106.027 22.868 107.131 25.892 107.131 29.684V46.004H100.027V30.164C100.027 27.86 99.5949 26.18 98.7789 25.172C97.7709 23.972 96.2829 23.348 94.3149 23.348H89.7549C87.8349 23.348 86.3949 23.972 85.3869 25.172C84.6189 26.18 84.2349 27.86 84.2349 30.164V46.004H77.1309V29.684C77.1309 25.892 78.1869 22.868 80.3469 20.66C82.5069 18.5 85.4349 17.396 89.1309 17.396ZM125.28 17.396H133.728V23.204H125.28V46.004H118.128V23.204H109.68V17.396H118.128V11.156H125.28V17.396ZM155.629 32.708H147.181C144.445 32.708 143.101 33.812 143.101 35.924V36.932C143.101 39.044 144.445 40.1 147.181 40.1H155.629C158.413 40.1 159.805 39.044 159.805 36.932V35.924C159.805 33.812 158.413 32.708 155.629 32.708ZM145.261 46.004C142.477 46.004 140.221 45.188 138.541 43.556C136.813 41.924 135.997 39.908 135.997 37.508V35.444C135.997 33.044 136.813 31.028 138.541 29.348C140.221 27.716 142.381 26.852 145.021 26.852H159.805V26.756C159.805 24.452 158.173 23.252 154.957 23.252H138.253V17.396H155.629C159.181 17.396 161.965 18.356 163.981 20.228C165.901 22.1 166.909 24.644 166.909 27.812V37.748C166.909 40.244 165.997 42.308 164.221 43.844C162.541 45.284 160.285 46.004 157.405 46.004H145.261ZM201.648 46.004H182.592C178.944 46.004 176.064 44.948 174 42.836C171.936 40.82 170.928 37.988 170.928 34.34V29.156C170.928 25.508 171.936 22.628 174 20.612C176.064 18.548 178.944 17.492 182.592 17.396H201.648V23.348H183.504C181.392 23.348 179.952 23.924 179.088 25.028C178.416 25.988 178.08 27.524 178.08 29.54V33.956C178.08 35.972 178.416 37.46 179.088 38.42C179.952 39.524 181.392 40.052 183.504 40.052H201.648V46.004ZM219.827 17.396H228.275V23.204H219.827V46.004H212.675V23.204H204.227V17.396H212.675V11.156H219.827V17.396ZM264.29 40.004C266.978 40.004 269.042 39.236 270.482 37.7C271.826 36.212 272.546 34.1 272.546 31.412V8.276H279.65V31.988C279.65 36.212 278.306 39.668 275.618 42.308C273.074 44.804 269.426 46.004 264.722 46.004H259.826C255.122 46.004 251.522 44.804 249.026 42.308C246.338 39.668 244.994 36.212 244.994 31.988V8.276H252.098V31.412C252.098 34.1 252.722 36.212 254.066 37.7C255.458 39.236 257.522 40.004 260.21 40.004H264.29ZM303.389 28.772C306.413 28.772 308.717 29.3 310.253 30.356C312.221 31.7 313.229 33.668 313.229 36.356V38.516C313.229 41.204 312.221 43.172 310.253 44.468C308.669 45.524 306.269 46.004 303.005 46.004H283.949V40.052H302.525C304.877 40.052 306.077 39.38 306.077 37.988V36.788C306.077 35.396 304.925 34.676 302.621 34.676H293.069C290.093 34.676 287.789 34.196 286.205 33.14C284.285 31.844 283.325 29.876 283.325 27.188V24.98C283.325 22.292 284.285 20.276 286.205 18.98C287.741 17.924 290.141 17.396 293.357 17.396H311.693V23.348H293.981C291.629 23.348 290.477 24.068 290.477 25.46V26.708C290.477 28.1 291.581 28.772 293.837 28.772H303.389Z" fill="white"/>
</svg>
