<svg width="860" height="640" viewBox="0 0 860 640" fill="none" xmlns="http://www.w3.org/2000/svg">
<path opacity="0.5" d="M655.931 419.597L697.368 443.521L656.209 467.452L614.782 443.518L655.931 419.597Z" stroke="#FF8F4C"/>
<path opacity="0.3" d="M655.931 402.588L697.368 426.511L656.209 450.442L614.782 426.508L655.931 402.588Z" stroke="#FF8F4C"/>
<path opacity="0.1" d="M655.931 385.578L697.368 409.502L656.209 433.432L614.782 409.499L655.931 385.578Z" stroke="#FF8F4C"/>
<path opacity="0.5" d="M268.127 182.427L292.614 196.565L268.291 210.707L243.81 196.563L268.127 182.427Z" stroke="#FF8F4C" stroke-width="0.590946"/>
<path opacity="0.3" d="M268.127 172.376L292.614 186.513L268.291 200.655L243.81 186.512L268.127 172.376Z" stroke="#FF8F4C" stroke-width="0.590946"/>
<path opacity="0.1" d="M268.127 162.324L292.614 176.461L268.291 190.603L243.81 176.46L268.127 162.324Z" stroke="#FF8F4C" stroke-width="0.590946"/>
<path opacity="0.5" d="M44.1461 428.597L85.583 452.521L44.4243 476.452L2.99719 452.518L44.1461 428.597Z" stroke="#FF8F4C"/>
<path opacity="0.3" d="M44.1461 411.588L85.583 435.511L44.4243 459.442L2.99719 435.508L44.1461 411.588Z" stroke="#FF8F4C"/>
<path opacity="0.1" d="M44.1461 394.578L85.583 418.502L44.4243 442.432L2.99719 418.499L44.1461 394.578Z" stroke="#FF8F4C"/>
</svg>
