<svg width="860" height="640" viewBox="0 0 860 640" fill="none" xmlns="http://www.w3.org/2000/svg">
<g opacity="0.12">
<path d="M250.423 289.23L250.723 344.1L155.356 399.54L154.646 399.14L249.723 343.86L249.413 289.23H250.423Z" fill="white"/>
<path d="M258.98 291.471L259.29 346.341L161.584 403.141L160.874 402.731L258.29 346.101L257.98 291.471H258.98Z" fill="white"/>
<path d="M267.547 293.711L267.857 348.581L167.812 406.741L167.103 406.331L266.858 348.341L266.548 293.711H267.547Z" fill="white"/>
<path d="M284.691 298.18L284.991 353.05L180.267 413.93L179.558 413.52L283.991 352.81L283.681 298.18H284.691Z" fill="white"/>
<path d="M276.114 295.951L276.424 350.811L174.04 410.331L173.33 409.921L275.424 350.571L275.124 295.951H276.114Z" fill="white"/>
</g>
<g opacity="0.12">
<path d="M840.576 609.491L839.876 609.901L704.993 536.591H616.714L539.771 492.151L539.711 481.631L494.107 455.301L494.807 454.891L540.701 481.391L540.761 491.911L617.124 536.011H705.403L840.576 609.491Z" fill="white"/>
<path d="M849.293 604.43L848.583 604.84L713.71 531.53H625.421L548.468 487.09L548.418 476.57L502.814 450.23L503.524 449.82L549.418 476.33L549.478 486.84L625.831 530.94L714.12 530.95L849.293 604.43Z" fill="white"/>
<path d="M858 599.36L857.3 599.77L722.417 526.46H634.128L557.185 482.02L557.125 471.51L511.521 445.17L512.231 444.76L558.135 471.26L558.185 481.78L634.538 525.88H722.827L858 599.36Z" fill="white"/>
<path d="M831.869 614.549L831.169 614.959L696.286 541.649H607.997L531.054 497.209L531.004 486.699L485.4 460.359L486.1 459.949L531.994 486.459L532.054 496.969L608.407 541.069H696.696L831.869 614.549Z" fill="white"/>
</g>
<g opacity="0.12">
<path d="M267.457 482.811L266.757 483.221L225.532 459.421H137.252L60.3095 414.971L60.2495 404.461L14.6455 378.121L15.3453 377.711L61.2492 404.221L61.3091 414.731L137.662 458.841H225.941L267.457 482.811Z" fill="white"/>
<path d="M276.164 477.75L275.464 478.16L234.248 454.35H145.959L69.0163 409.91L68.9563 399.4L23.3623 373.06L24.0621 372.65L69.956 399.16L70.0159 409.67L146.379 453.77H234.658L276.164 477.75Z" fill="white"/>
<path d="M284.881 472.68L284.181 473.09L242.956 449.29H154.677L77.7235 404.85L77.6636 394.34L32.0596 368L32.7793 367.58L78.6732 394.09L78.7232 404.61L155.086 448.71H243.365L284.881 472.68Z" fill="white"/>
<path d="M258.75 487.879L258.05 488.279L216.824 464.479H128.545L51.5925 420.039L51.5425 409.519L5.93848 383.179L6.63823 382.779L52.5421 409.279L52.5921 419.799L128.955 463.899H217.234L258.75 487.879Z" fill="white"/>
</g>
<g opacity="0.12">
<path d="M319.559 489.209L284.682 509.489L264.469 497.809L299.347 477.539L319.559 489.209Z" fill="white"/>
</g>
<g opacity="0.12">
<path d="M711.202 312.6L676.334 332.87L656.121 321.2L690.989 300.92L711.202 312.6Z" fill="white"/>
</g>
<g opacity="0.12">
<path d="M394.773 540.62L394.863 557.12H393.873L393.783 540.86L321.599 499.17L322.298 498.76L394.773 540.62Z" fill="white"/>
<path d="M389.314 543.79L389.404 560.29L388.405 560.3L388.315 544.03L316.13 502.34L316.84 501.93L389.314 543.79Z" fill="white"/>
<path d="M372.93 553.319L373.02 569.819H372.031L371.931 553.559L299.746 511.859L300.456 511.459L372.93 553.319Z" fill="white"/>
<path d="M378.388 550.139L378.488 566.639H377.488L377.399 550.379L305.214 508.689L305.914 508.279L378.388 550.139Z" fill="white"/>
<path d="M383.846 546.969L383.946 563.469H382.947L382.857 547.209L310.672 505.519L311.372 505.109L383.846 546.969Z" fill="white"/>
</g>
<g opacity="0.1">
<path d="M369.832 477.721L370.022 512.271L404.3 532.071L404.38 545.451L456.491 575.551L455.792 575.961L403.38 545.691L403.3 532.311L369.022 512.511L368.832 477.721H369.832Z" fill="white"/>
<path d="M392.324 464.641L392.514 499.201L426.792 519.001L426.872 532.371L478.983 562.471L478.274 562.891L425.862 532.611L425.792 519.241L391.514 499.441L391.324 464.641H392.324Z" fill="white"/>
<path d="M387.826 467.26L388.016 501.81L422.294 521.61L422.364 534.99L474.485 565.09L473.786 565.5L421.364 535.23L421.304 521.85L387.016 502.05L386.826 467.25L387.826 467.26Z" fill="white"/>
<path d="M383.327 469.871L383.517 504.431L417.805 524.221L417.875 537.601L469.987 567.701L469.287 568.111L416.875 537.841L416.795 524.471L382.517 504.671L382.317 469.871H383.327Z" fill="white"/>
<path d="M378.829 472.48L379.019 507.04L413.297 526.84L413.367 540.22L465.488 570.32L464.779 570.73L412.367 540.46L412.297 527.08L378.019 507.28L377.829 472.48H378.829Z" fill="white"/>
<path d="M374.33 475.102L374.52 509.662L408.808 529.462L408.868 542.832L460.989 572.932L460.29 573.342L407.878 543.072L407.808 529.692L373.53 509.902L373.33 475.102H374.33Z" fill="white"/>
</g>
<g opacity="0.1">
<path d="M564.054 212.58L564.234 247.14L598.521 266.94L598.591 280.31L650.713 310.41L650.003 310.82L597.592 280.55L597.522 267.18L563.244 247.38L563.044 212.58H564.054Z" fill="white"/>
<path d="M586.546 199.5L586.726 234.06L621.014 253.86L621.084 267.23L673.205 297.34L672.496 297.75L620.084 267.48L620.014 254.1L585.736 234.3L585.536 199.5H586.546Z" fill="white"/>
<path d="M582.038 202.119L582.238 236.679L616.516 256.469L616.586 269.849L668.697 299.949L667.998 300.359L615.586 270.089L615.516 256.709L581.238 236.919L581.038 202.119H582.038Z" fill="white"/>
<path d="M577.539 204.74L577.739 239.29L612.017 259.09L612.087 272.47L664.208 302.57L663.499 302.98L611.087 272.71L611.017 259.33L576.729 239.53L576.539 204.74H577.539Z" fill="white"/>
<path d="M573.051 207.35L573.241 241.91L607.519 261.71L607.589 275.08L659.7 305.18L659 305.59L606.589 275.32L606.519 261.95L572.241 242.15L572.041 207.35H573.051Z" fill="white"/>
<path d="M568.542 209.971L568.742 244.521L603.02 264.321L603.09 277.701L655.211 307.801L654.501 308.211L602.09 277.941L602.02 264.561L567.742 244.761L567.542 209.961L568.542 209.971Z" fill="white"/>
</g>
<g opacity="0.12">
<path d="M294.077 515.9C294.607 516.2 294.707 516.66 294.377 517.02L293.258 516.37L292.558 516.78L293.678 517.43C293.058 517.62 292.268 517.56 291.738 517.26C291.089 516.88 291.089 516.28 291.738 515.9C292.388 515.52 293.438 515.52 294.087 515.9H294.077Z" fill="white"/>
<path d="M329.595 536.41C330.244 536.79 330.244 537.39 329.595 537.77C328.955 538.14 327.905 538.15 327.255 537.77C326.726 537.47 326.626 537.01 326.956 536.65L328.075 537.3L328.775 536.89L327.655 536.24C328.275 536.05 329.065 536.11 329.595 536.41Z" fill="white"/>
<path d="M328.775 536.891L328.075 537.301L326.956 536.651L293.677 517.431L292.558 516.781L293.257 516.371L294.377 517.021L327.655 536.241L328.775 536.891Z" fill="white"/>
</g>
<g opacity="0.12">
<path d="M287.27 520.18C287.8 520.48 287.9 520.94 287.57 521.3L286.45 520.65L285.75 521.06L286.87 521.71C286.25 521.9 285.461 521.84 284.931 521.54C284.281 521.16 284.281 520.56 284.931 520.18C285.58 519.8 286.63 519.8 287.28 520.18H287.27Z" fill="white"/>
<path d="M322.787 540.689C323.437 541.069 323.437 541.669 322.787 542.049C322.147 542.419 321.098 542.429 320.448 542.049C319.918 541.749 319.818 541.289 320.148 540.929L321.267 541.579L321.967 541.169L320.848 540.519C321.467 540.329 322.257 540.389 322.787 540.689Z" fill="white"/>
<path d="M321.977 541.17L321.268 541.57L320.148 540.93L286.87 521.71L285.75 521.06L286.45 520.65L287.569 521.3L320.858 540.52L321.977 541.17Z" fill="white"/>
</g>
<g opacity="0.12">
<path d="M280.462 524.449C280.992 524.749 281.092 525.209 280.762 525.569L279.643 524.919L278.943 525.329L280.062 525.979C279.443 526.169 278.653 526.109 278.123 525.809C277.473 525.429 277.473 524.829 278.123 524.449C278.773 524.069 279.822 524.069 280.472 524.449H280.462Z" fill="white"/>
<path d="M315.979 544.968C316.629 545.348 316.629 545.948 315.979 546.328C315.34 546.698 314.29 546.708 313.64 546.328C313.11 546.028 313.01 545.568 313.34 545.208L314.46 545.858L315.16 545.448L314.04 544.798C314.66 544.608 315.45 544.668 315.979 544.968Z" fill="white"/>
<path d="M315.17 545.44L314.46 545.85L313.34 545.2L280.062 525.99L278.942 525.34L279.642 524.93L280.762 525.58L314.05 544.8L315.17 545.44Z" fill="white"/>
</g>
<g opacity="0.12">
<path d="M273.656 528.73C274.185 529.03 274.285 529.49 273.955 529.85L272.836 529.2L272.136 529.61L273.256 530.26C272.636 530.45 271.846 530.39 271.316 530.09C270.667 529.71 270.667 529.11 271.316 528.73C271.966 528.35 273.016 528.35 273.666 528.73H273.656Z" fill="white"/>
<path d="M309.173 549.24C309.822 549.62 309.822 550.22 309.173 550.6C308.533 550.97 307.483 550.98 306.834 550.6C306.304 550.3 306.204 549.84 306.534 549.48L307.653 550.13L308.353 549.72L307.233 549.07C307.853 548.88 308.643 548.94 309.173 549.24Z" fill="white"/>
<path d="M308.363 549.721L307.653 550.131L306.534 549.481L273.255 530.261L272.136 529.621L272.845 529.211L273.965 529.851L307.243 549.071L308.363 549.721Z" fill="white"/>
</g>
<g opacity="0.12">
<path d="M266.847 533.01C267.377 533.31 267.477 533.77 267.147 534.13L266.027 533.48L265.328 533.89L266.447 534.54C265.827 534.73 265.038 534.67 264.508 534.37C263.858 533.99 263.858 533.39 264.508 533.01C265.158 532.63 266.207 532.63 266.857 533.01H266.847Z" fill="white"/>
<path d="M302.364 553.519C303.014 553.899 303.014 554.499 302.364 554.879C301.724 555.249 300.675 555.259 300.025 554.879C299.495 554.579 299.395 554.119 299.725 553.759L300.845 554.409L301.544 553.999L300.425 553.349C301.045 553.159 301.834 553.219 302.364 553.519Z" fill="white"/>
<path d="M301.554 554L300.845 554.41L299.725 553.76L266.447 534.54L265.327 533.89L266.037 533.48L267.156 534.13L300.435 553.35L301.554 554Z" fill="white"/>
</g>
<g opacity="0.12">
<path d="M657.83 250.801C658.36 251.101 658.46 251.561 658.13 251.921L657.011 251.271L656.311 251.681L657.431 252.331C656.811 252.521 656.021 252.461 655.491 252.161C654.841 251.781 654.841 251.181 655.491 250.801C656.141 250.421 657.191 250.421 657.84 250.801H657.83Z" fill="white"/>
<path d="M693.348 271.31C693.997 271.69 693.997 272.29 693.348 272.67C692.708 273.04 691.658 273.05 691.008 272.67C690.479 272.37 690.379 271.91 690.708 271.55L691.828 272.2L692.528 271.79L691.408 271.14C692.028 270.95 692.818 271.01 693.348 271.31Z" fill="white"/>
<path d="M692.528 271.791L691.818 272.201L690.699 271.551L657.43 252.331L656.301 251.681L657.01 251.271L658.13 251.921L691.408 271.141L692.528 271.791Z" fill="white"/>
</g>
<g opacity="0.12">
<path d="M301.255 390.51C302.075 390.99 302.085 391.76 301.255 392.24C300.555 392.64 299.496 392.7 298.686 392.42L299.746 391.8L299.036 391.39L297.976 392.01C297.486 391.54 297.576 390.92 298.276 390.52C299.096 390.04 300.425 390.04 301.245 390.52L301.255 390.51Z" fill="white"/>
<path d="M279.023 403.029L278.554 403.299L279.263 403.709L279.733 403.439C280.223 403.909 280.123 404.529 279.433 404.929C278.624 405.399 277.284 405.399 276.464 404.929C275.645 404.459 275.645 403.679 276.464 403.209C277.164 402.799 278.234 402.749 279.044 403.029H279.023Z" fill="white"/>
<path d="M285.341 406.67L284.871 406.94L285.581 407.35L286.051 407.08C286.54 407.55 286.44 408.17 285.751 408.57C284.941 409.04 283.601 409.04 282.782 408.57C281.962 408.09 281.962 407.32 282.782 406.85C283.482 406.44 284.551 406.38 285.361 406.67H285.341Z" fill="white"/>
<path d="M312.381 399.09L311.312 399.71L292.358 410.73L291.888 411L291.179 410.59L291.649 410.32L310.602 399.3L311.662 398.68L312.381 399.09Z" fill="white"/>
<path d="M307.563 394.161C308.383 394.641 308.393 395.411 307.563 395.891C306.863 396.291 305.804 396.351 304.994 396.071L306.053 395.451L305.344 395.041L304.284 395.661C303.784 395.191 303.884 394.571 304.584 394.171C305.404 393.691 306.733 393.691 307.553 394.171L307.563 394.161Z" fill="white"/>
<path d="M306.064 395.451L305.004 396.061L286.051 407.081L285.581 407.361L284.871 406.951L285.341 406.671L304.294 395.651L305.354 395.041L306.064 395.451Z" fill="white"/>
<path d="M299.756 391.801L298.697 392.421L279.733 403.441L279.263 403.711L278.554 403.301L279.024 403.031L297.987 392.011L299.047 391.391L299.756 391.801Z" fill="white"/>
<path d="M294.947 386.87C295.767 387.35 295.767 388.12 294.947 388.59C294.248 389 293.188 389.05 292.378 388.77L293.438 388.15L292.728 387.74L291.668 388.36C291.179 387.89 291.269 387.27 291.968 386.87C292.788 386.39 294.118 386.39 294.947 386.87Z" fill="white"/>
<path d="M293.438 388.15L292.378 388.77L273.425 399.79L272.955 400.06L272.245 399.66L272.715 399.38L291.668 388.36L292.728 387.75L293.438 388.15Z" fill="white"/>
<path d="M273.425 399.79C273.925 400.26 273.815 400.88 273.115 401.28C272.306 401.75 270.976 401.76 270.146 401.28C269.317 400.8 269.317 400.03 270.126 399.56C270.826 399.16 271.896 399.1 272.705 399.38L272.236 399.65L272.945 400.06L273.415 399.79H273.425Z" fill="white"/>
<path d="M313.881 397.809C314.701 398.289 314.701 399.059 313.881 399.529C313.181 399.929 312.121 399.989 311.322 399.709L312.381 399.089L311.662 398.679L310.602 399.299C310.112 398.829 310.212 398.219 310.902 397.809C311.722 397.329 313.051 397.329 313.871 397.809H313.881Z" fill="white"/>
<path d="M291.649 410.32L291.179 410.59L291.888 411L292.358 410.73C292.848 411.2 292.738 411.82 292.048 412.22C291.239 412.69 289.909 412.7 289.079 412.22C288.25 411.74 288.26 410.97 289.079 410.5C289.779 410.1 290.839 410.03 291.649 410.32Z" fill="white"/>
</g>
<g opacity="0.12">
<path d="M651.023 255.07C651.553 255.37 651.653 255.83 651.323 256.19L650.203 255.54L649.503 255.95L650.623 256.6C650.003 256.79 649.213 256.73 648.684 256.43C648.034 256.05 648.034 255.45 648.684 255.07C649.333 254.69 650.383 254.69 651.033 255.07H651.023Z" fill="white"/>
<path d="M686.54 275.589C687.19 275.969 687.19 276.569 686.54 276.949C685.9 277.319 684.85 277.329 684.201 276.949C683.671 276.649 683.571 276.189 683.901 275.829L685.02 276.479L685.72 276.069L684.601 275.419C685.22 275.229 686.01 275.289 686.54 275.589Z" fill="white"/>
<path d="M685.721 276.061L685.021 276.471L683.891 275.831L650.623 256.611L649.493 255.961L650.203 255.551L651.323 256.201L684.601 275.421L685.721 276.061Z" fill="white"/>
</g>
<g opacity="0.12">
<path d="M644.215 259.349C644.745 259.649 644.845 260.109 644.515 260.469L643.395 259.819L642.696 260.229L643.815 260.879C643.196 261.069 642.406 261.009 641.876 260.709C641.226 260.329 641.226 259.729 641.876 259.349C642.526 258.969 643.575 258.969 644.225 259.349H644.215Z" fill="white"/>
<path d="M679.732 279.869C680.382 280.249 680.382 280.849 679.732 281.229C679.092 281.599 678.043 281.609 677.393 281.229C676.863 280.929 676.763 280.469 677.093 280.109L678.213 280.759L678.913 280.349L677.793 279.699C678.413 279.509 679.202 279.569 679.732 279.869Z" fill="white"/>
<path d="M678.913 280.34L678.213 280.75L677.083 280.1L643.815 260.88L642.695 260.24L643.395 259.83L644.515 260.47L677.793 279.69L678.913 280.34Z" fill="white"/>
</g>
<g opacity="0.12">
<path d="M468.187 162.15C468.717 162.45 468.817 162.91 468.487 163.27L467.367 162.62L466.667 163.03L467.787 163.68C467.167 163.87 466.377 163.81 465.848 163.51C465.198 163.13 465.198 162.53 465.848 162.15C466.497 161.77 467.547 161.77 468.197 162.15H468.187Z" fill="white"/>
<path d="M503.704 182.669C504.354 183.049 504.354 183.649 503.704 184.029C503.064 184.399 502.015 184.409 501.365 184.029C500.835 183.729 500.735 183.269 501.065 182.909L502.184 183.559L502.884 183.149L501.765 182.499C502.384 182.309 503.174 182.369 503.704 182.669Z" fill="white"/>
<path d="M502.894 183.141L502.185 183.551L501.065 182.901L467.787 163.681L466.667 163.041L467.377 162.631L468.496 163.271L501.775 182.501L502.894 183.141Z" fill="white"/>
</g>
<g opacity="0.12">
<path d="M457.29 163.84C457.82 164.14 457.92 164.6 457.59 164.96L456.471 164.31L455.771 164.72L456.891 165.37C456.271 165.56 455.481 165.5 454.951 165.2C454.301 164.82 454.301 164.22 454.951 163.84C455.601 163.46 456.651 163.46 457.3 163.84H457.29Z" fill="white"/>
<path d="M492.807 184.349C493.457 184.729 493.457 185.329 492.807 185.709C492.168 186.079 491.118 186.089 490.468 185.709C489.938 185.409 489.839 184.949 490.168 184.589L491.288 185.239L491.988 184.829L490.868 184.179C491.488 183.989 492.278 184.049 492.807 184.349Z" fill="white"/>
<path d="M491.988 184.831L491.288 185.241L490.168 184.591L456.89 165.371L455.771 164.721L456.47 164.311L457.59 164.961L490.868 184.181L491.988 184.831Z" fill="white"/>
</g>
<g opacity="0.12">
<path d="M447.084 165.98C447.614 166.28 447.714 166.74 447.384 167.1L446.265 166.45L445.565 166.86L446.684 167.51C446.065 167.7 445.275 167.64 444.745 167.34C444.095 166.96 444.095 166.36 444.745 165.98C445.395 165.6 446.445 165.6 447.094 165.98H447.084Z" fill="white"/>
<path d="M482.601 186.49C483.251 186.87 483.251 187.47 482.601 187.85C481.962 188.22 480.912 188.23 480.262 187.85C479.732 187.55 479.632 187.09 479.962 186.73L481.082 187.38L481.782 186.97L480.662 186.32C481.282 186.13 482.072 186.19 482.601 186.49Z" fill="white"/>
<path d="M481.782 186.971L481.072 187.381L479.953 186.731L446.684 167.511L445.555 166.861L446.264 166.451L447.384 167.101L480.662 186.321L481.782 186.971Z" fill="white"/>
</g>
<g opacity="0.12">
<path d="M637.408 263.631C637.937 263.931 638.037 264.391 637.707 264.751L636.588 264.101L635.888 264.511L637.008 265.161C636.388 265.351 635.598 265.291 635.068 264.991C634.419 264.611 634.419 264.011 635.068 263.631C635.718 263.251 636.768 263.251 637.418 263.631H637.408Z" fill="white"/>
<path d="M672.925 284.14C673.574 284.52 673.574 285.12 672.925 285.5C672.285 285.87 671.235 285.88 670.585 285.5C670.056 285.2 669.956 284.74 670.286 284.38L671.405 285.03L672.105 284.62L670.985 283.97C671.605 283.78 672.395 283.84 672.925 284.14Z" fill="white"/>
<path d="M672.105 284.622L671.405 285.032L670.286 284.382L637.007 265.162L635.888 264.512L636.587 264.102L637.707 264.752L670.985 283.972L672.105 284.622Z" fill="white"/>
</g>
<g opacity="0.12">
<path d="M60.5497 448.04C61.2794 448.46 61.2894 449.15 60.5697 449.58C59.8399 450 58.6403 450 57.9106 449.58C57.1808 449.16 57.1808 448.47 57.9106 448.04C58.6403 447.62 59.8199 447.62 60.5597 448.04H60.5497Z" fill="white"/>
<path d="M67.6378 452.139C68.3775 452.569 68.3775 453.249 67.6478 453.679C66.918 454.099 65.7285 454.109 64.9887 453.679C64.259 453.259 64.259 452.569 64.9887 452.139C65.7185 451.719 66.898 451.719 67.6378 452.139Z" fill="white"/>
<path d="M74.7351 456.239C75.4649 456.659 75.4749 457.349 74.7351 457.769C74.0054 458.189 72.8158 458.199 72.0861 457.769C71.3463 457.339 71.3463 456.649 72.0861 456.229C72.8158 455.809 73.9954 455.809 74.7351 456.229V456.239Z" fill="white"/>
<path d="M81.8222 460.329C82.5519 460.749 82.5619 461.439 81.8222 461.859C81.0925 462.279 79.9029 462.289 79.1731 461.859C78.4434 461.439 78.4334 460.739 79.1731 460.319C79.9029 459.899 81.0925 459.899 81.8222 460.319V460.329Z" fill="white"/>
<path d="M88.9199 464.428C89.6496 464.848 89.6596 465.538 88.9199 465.958C88.1901 466.378 87.0005 466.388 86.2708 465.958C85.541 465.538 85.531 464.839 86.2708 464.419C87.0005 463.999 88.1901 463.999 88.9199 464.419V464.428Z" fill="white"/>
<path d="M6.19931 481.309C6.92905 481.729 6.93905 482.419 6.2093 482.849C5.47956 483.269 4.27998 483.269 3.55024 482.849C2.82049 482.429 2.82049 481.739 3.55024 481.309C4.27998 480.889 5.45957 480.889 6.19931 481.309Z" fill="white"/>
<path d="M13.286 485.399C14.0257 485.829 14.0257 486.509 13.306 486.939C12.5762 487.359 11.3867 487.369 10.6469 486.939C9.91717 486.519 9.91717 485.829 10.6469 485.399C11.3767 484.979 12.5562 484.979 13.296 485.399H13.286Z" fill="white"/>
<path d="M20.3836 489.499C21.1133 489.919 21.1233 490.609 20.3836 491.029C19.6538 491.449 18.4642 491.459 17.7345 491.029C16.9948 490.599 16.9948 489.909 17.7345 489.489C18.4642 489.069 19.6438 489.069 20.3836 489.489V489.499Z" fill="white"/>
<path d="M27.4716 493.598C28.2014 494.018 28.2114 494.708 27.4716 495.128C26.7319 495.548 25.5523 495.558 24.8225 495.128C24.0928 494.708 24.0828 494.008 24.8225 493.588C25.5523 493.168 26.7419 493.168 27.4716 493.588V493.598Z" fill="white"/>
<path d="M34.5585 497.69C35.2883 498.11 35.2983 498.8 34.5585 499.22C33.8288 499.64 32.6392 499.65 31.9095 499.22C31.1797 498.8 31.1697 498.1 31.9095 497.68C32.6392 497.26 33.8288 497.26 34.5585 497.68V497.69Z" fill="white"/>
<path d="M88.1101 480.219C88.8398 480.639 88.8498 481.329 88.1201 481.759C87.3903 482.179 86.2007 482.179 85.471 481.759C84.7412 481.339 84.7312 480.649 85.471 480.229C86.2007 479.809 87.3803 479.809 88.1201 480.229L88.1101 480.219Z" fill="white"/>
<path d="M87.5803 473.35L45.4351 497.86L3 473.35L45.1552 448.85L87.5803 473.35Z" fill="white"/>
<path d="M81.0622 484.319C81.792 484.739 81.8019 485.429 81.0722 485.859C80.3425 486.279 79.1529 486.279 78.4231 485.859C77.6934 485.439 77.6834 484.749 78.4231 484.329C79.1629 483.909 80.3325 483.909 81.0722 484.329L81.0622 484.319Z" fill="white"/>
<path d="M74.0151 488.42C74.7448 488.84 74.7548 489.53 74.0351 489.96C73.3053 490.38 72.1158 490.38 71.386 489.96C70.6563 489.54 70.6463 488.85 71.386 488.43C72.1158 488.01 73.2953 488.01 74.0351 488.43L74.0151 488.42Z" fill="white"/>
<path d="M66.9776 492.508C67.7074 492.928 67.7174 493.618 66.9876 494.048C66.2579 494.478 65.0583 494.468 64.3286 494.048C63.5988 493.628 63.5988 492.938 64.3286 492.508C65.0583 492.088 66.2379 492.088 66.9776 492.508Z" fill="white"/>
<path d="M59.9295 496.61C60.6593 497.03 60.6693 497.72 59.9495 498.15C59.2198 498.57 58.0202 498.57 57.2905 498.15C56.5607 497.73 56.5607 497.04 57.2905 496.61C58.0202 496.19 59.1998 496.19 59.9395 496.61H59.9295Z" fill="white"/>
<path d="M27.3317 451.18C28.0615 451.6 28.0715 452.29 27.3417 452.72C26.612 453.14 25.4224 453.14 24.6927 452.72C23.9629 452.3 23.9529 451.61 24.6927 451.19C25.4224 450.77 26.602 450.77 27.3417 451.19L27.3317 451.18Z" fill="white"/>
<path d="M35.4782 446.959C36.208 447.379 36.218 448.069 35.4882 448.499C34.7585 448.919 33.5689 448.919 32.8391 448.499C32.1094 448.079 32.0994 447.389 32.8391 446.969C33.5689 446.549 34.7485 446.549 35.4882 446.969L35.4782 446.959Z" fill="white"/>
<path d="M20.2837 455.28C21.0134 455.7 21.0234 456.39 20.3036 456.82C19.5739 457.24 18.3843 457.24 17.6546 456.82C16.9248 456.4 16.9148 455.71 17.6546 455.29C18.3843 454.87 19.5639 454.87 20.3036 455.29L20.2837 455.28Z" fill="white"/>
<path d="M13.2364 459.37C13.9662 459.79 13.9762 460.48 13.2464 460.91C12.5167 461.34 11.3171 461.33 10.5873 460.91C9.8576 460.49 9.8576 459.8 10.5873 459.37C11.3171 458.95 12.4967 458.95 13.2364 459.37Z" fill="white"/>
<path d="M6.19908 463.469C6.92882 463.889 6.93882 464.579 6.21907 465.009C5.48933 465.429 4.28975 465.429 3.56 465.009C2.83026 464.589 2.83026 463.899 3.56 463.469C4.28975 463.049 5.46933 463.049 6.20907 463.469H6.19908Z" fill="white"/>
</g>
<g opacity="0.12">
<path d="M671.366 442.2C672.096 442.62 672.106 443.31 671.376 443.74C670.647 444.16 669.447 444.16 668.717 443.74C667.987 443.32 667.987 442.63 668.717 442.2C669.447 441.77 670.627 441.78 671.366 442.2Z" fill="white"/>
<path d="M678.453 446.299C679.193 446.729 679.193 447.409 678.463 447.839C677.734 448.259 676.544 448.269 675.804 447.839C675.074 447.419 675.074 446.729 675.804 446.299C676.534 445.879 677.713 445.879 678.453 446.299Z" fill="white"/>
<path d="M685.551 450.399C686.281 450.819 686.291 451.509 685.551 451.929C684.822 452.349 683.632 452.359 682.902 451.929C682.163 451.499 682.163 450.809 682.902 450.389C683.642 449.969 684.812 449.969 685.551 450.389V450.399Z" fill="white"/>
<path d="M692.648 454.489C693.378 454.909 693.388 455.599 692.648 456.019C691.919 456.439 690.729 456.449 689.999 456.019C689.27 455.599 689.26 454.899 689.999 454.479C690.729 454.059 691.919 454.059 692.648 454.479V454.489Z" fill="white"/>
<path d="M699.736 458.589C700.466 459.009 700.476 459.699 699.736 460.119C699.006 460.539 697.817 460.549 697.087 460.119C696.357 459.689 696.347 458.999 697.087 458.579C697.827 458.159 699.006 458.159 699.736 458.579V458.589Z" fill="white"/>
<path d="M617.015 475.469C617.745 475.889 617.755 476.579 617.035 477.009C616.306 477.429 615.106 477.429 614.376 477.009C613.647 476.589 613.647 475.899 614.376 475.469C615.106 475.049 616.286 475.049 617.025 475.469H617.015Z" fill="white"/>
<path d="M624.103 479.559C624.842 479.989 624.842 480.669 624.113 481.099C623.383 481.529 622.193 481.529 621.454 481.099C620.724 480.679 620.724 479.989 621.454 479.559C622.183 479.139 623.363 479.139 624.103 479.559Z" fill="white"/>
<path d="M631.2 483.659C631.93 484.079 631.94 484.769 631.2 485.189C630.47 485.609 629.281 485.619 628.551 485.189C627.811 484.759 627.811 484.069 628.551 483.649C629.281 483.229 630.46 483.229 631.2 483.649V483.659Z" fill="white"/>
<path d="M638.298 487.759C639.028 488.179 639.038 488.869 638.298 489.289C637.568 489.709 636.378 489.719 635.649 489.289C634.919 488.869 634.909 488.169 635.649 487.749C636.378 487.329 637.568 487.329 638.298 487.749V487.759Z" fill="white"/>
<path d="M645.385 491.85C646.114 492.27 646.124 492.96 645.385 493.38C644.655 493.8 643.465 493.81 642.736 493.38C642.006 492.96 641.996 492.26 642.736 491.84C643.465 491.42 644.655 491.42 645.385 491.84V491.85Z" fill="white"/>
<path d="M698.926 474.389C699.656 474.809 699.666 475.499 698.936 475.929C698.207 476.349 697.017 476.349 696.287 475.929C695.558 475.509 695.548 474.819 696.287 474.399C697.017 473.979 698.197 473.979 698.936 474.399L698.926 474.389Z" fill="white"/>
<path d="M698.407 467.51L656.251 492.02L613.826 467.51L655.971 443.01L698.407 467.51Z" fill="white"/>
<path d="M691.878 478.479C692.608 478.899 692.618 479.589 691.898 480.019C691.169 480.439 689.979 480.439 689.249 480.019C688.52 479.599 688.51 478.909 689.249 478.489C689.979 478.069 691.159 478.069 691.898 478.489L691.878 478.479Z" fill="white"/>
<path d="M684.841 482.58C685.571 483 685.581 483.69 684.861 484.12C684.141 484.55 682.942 484.54 682.212 484.12C681.482 483.7 681.472 483.01 682.212 482.59C682.942 482.17 684.121 482.17 684.861 482.59L684.841 482.58Z" fill="white"/>
<path d="M677.794 486.669C678.524 487.089 678.534 487.778 677.814 488.208C677.084 488.628 675.884 488.628 675.155 488.208C674.425 487.788 674.425 487.099 675.155 486.669C675.884 486.249 677.064 486.249 677.804 486.669H677.794Z" fill="white"/>
<path d="M670.746 490.77C671.476 491.19 671.486 491.88 670.756 492.31C670.026 492.74 668.827 492.73 668.097 492.31C667.367 491.89 667.367 491.2 668.097 490.77C668.827 490.35 670.006 490.35 670.746 490.77Z" fill="white"/>
<path d="M638.148 445.34C638.878 445.76 638.888 446.45 638.168 446.88C637.438 447.3 636.249 447.3 635.519 446.88C634.789 446.46 634.779 445.77 635.519 445.35C636.249 444.93 637.428 444.93 638.168 445.35L638.148 445.34Z" fill="white"/>
<path d="M646.305 441.119C647.035 441.539 647.045 442.229 646.325 442.659C645.595 443.079 644.406 443.079 643.676 442.659C642.946 442.239 642.936 441.549 643.676 441.129C644.406 440.709 645.585 440.709 646.325 441.129L646.305 441.119Z" fill="white"/>
<path d="M631.1 449.44C631.83 449.86 631.84 450.55 631.12 450.98C630.4 451.41 629.201 451.4 628.471 450.98C627.741 450.56 627.731 449.87 628.471 449.45C629.201 449.03 630.38 449.03 631.12 449.45L631.1 449.44Z" fill="white"/>
<path d="M624.062 453.53C624.792 453.95 624.802 454.64 624.082 455.07C623.353 455.49 622.153 455.49 621.423 455.07C620.694 454.65 620.694 453.96 621.423 453.53C622.153 453.11 623.333 453.11 624.072 453.53H624.062Z" fill="white"/>
<path d="M617.015 457.629C617.745 458.049 617.755 458.739 617.035 459.169C616.316 459.599 615.106 459.589 614.376 459.169C613.647 458.749 613.647 458.059 614.376 457.629C615.106 457.209 616.286 457.209 617.025 457.629H617.015Z" fill="white"/>
</g>
<g opacity="0.12">
<path d="M77.2142 358.789C77.744 359.089 77.844 359.549 77.5141 359.909L76.3945 359.259L75.6947 359.669L76.8143 360.319C76.1946 360.509 75.4048 360.449 74.875 360.149C74.2253 359.769 74.2253 359.169 74.875 358.789C75.5248 358.409 76.5744 358.409 77.2242 358.789H77.2142Z" fill="white"/>
<path d="M112.731 379.298C113.381 379.678 113.381 380.278 112.731 380.658C112.092 381.028 111.042 381.038 110.392 380.658C109.862 380.358 109.762 379.898 110.092 379.538L111.212 380.188L111.912 379.778L110.792 379.128C111.412 378.938 112.201 378.998 112.731 379.298Z" fill="white"/>
<path d="M111.912 379.77L111.212 380.18L110.092 379.54L76.8139 360.32L75.6943 359.67L76.3941 359.26L77.5137 359.91L110.792 379.13L111.912 379.77Z" fill="white"/>
</g>
<g opacity="0.12">
<path d="M92.1185 358.789C92.6483 359.089 92.7483 359.549 92.4184 359.909L91.2988 359.259L90.599 359.669L91.7186 360.319C91.0989 360.509 90.3091 360.449 89.7793 360.149C89.1295 359.769 89.1295 359.169 89.7793 358.789C90.4291 358.409 91.4787 358.409 92.1285 358.789H92.1185Z" fill="white"/>
<path d="M127.636 379.298C128.285 379.678 128.285 380.278 127.636 380.658C126.996 381.028 125.946 381.038 125.296 380.658C124.767 380.358 124.667 379.898 124.997 379.538L126.116 380.188L126.816 379.778L125.696 379.128C126.316 378.938 127.106 378.998 127.636 379.298Z" fill="white"/>
<path d="M126.826 379.77L126.116 380.18L124.997 379.54L91.7182 360.32L90.5986 359.67L91.3084 359.26L92.428 359.91L125.706 379.13L126.826 379.77Z" fill="white"/>
</g>
<g opacity="0.12">
<path d="M62.9691 358.789C63.4989 359.089 63.5989 359.549 63.269 359.909L62.1494 359.259L61.4496 359.669L62.5692 360.319C61.9494 360.509 61.1597 360.449 60.6299 360.149C59.9801 359.769 59.9801 359.169 60.6299 358.789C61.2797 358.409 62.3293 358.409 62.9791 358.789H62.9691Z" fill="white"/>
<path d="M98.4862 379.298C99.1359 379.678 99.1359 380.278 98.4862 380.658C97.8464 381.028 96.7968 381.038 96.147 380.658C95.6172 380.358 95.5172 379.898 95.8471 379.538L96.9667 380.188L97.6665 379.778L96.5469 379.128C97.1666 378.938 97.9564 378.998 98.4862 379.298Z" fill="white"/>
<path d="M97.6765 379.78L96.9668 380.18L95.8471 379.54L62.5688 360.32L61.4492 359.67L62.159 359.26L63.2786 359.91L96.5569 379.13L97.6765 379.78Z" fill="white"/>
</g>
<g opacity="0.12">
<path d="M182.917 423.569L167.942 432.279L126.347 408.249L141.321 399.539L182.917 423.569Z" fill="white"/>
</g>
<g opacity="0.12">
<path d="M492.368 45L492.668 99.87L397.302 155.31L396.592 154.9L491.668 99.63L491.369 45H492.368Z" fill="white"/>
<path d="M500.936 47.2305L501.246 102.11L403.53 158.91L402.83 158.5L500.246 101.87L499.936 47.2405L500.936 47.2305Z" fill="white"/>
<path d="M509.503 49.4707L509.812 104.341L409.768 162.511L409.048 162.091L508.803 104.101L508.503 49.4807L509.503 49.4707Z" fill="white"/>
<path d="M526.636 53.9492L526.946 108.819L422.213 169.699L421.503 169.289L525.946 108.579L525.636 53.9492H526.636Z" fill="white"/>
<path d="M518.069 51.7109L518.369 106.581L415.985 166.101L415.275 165.691L517.37 106.341L517.07 51.7109H518.069Z" fill="white"/>
</g>
<g opacity="0.12">
<path d="M424.872 179.341L409.897 188.041L368.292 164.021L383.267 155.311L424.872 179.341Z" fill="white"/>
</g>
<g opacity="0.12">
<path d="M47.9443 524.86L122.968 482.59H207.608L270.836 519.45" stroke="white" stroke-linecap="round" stroke-linejoin="round"/>
</g>
<g opacity="0.12">
<path d="M290.19 434.471C291.009 434.951 291.019 435.721 290.19 436.201C289.49 436.601 288.43 436.661 287.62 436.381L288.68 435.761L287.97 435.351L286.911 435.971C286.421 435.501 286.511 434.881 287.211 434.481C288.03 434.001 289.36 434.001 290.18 434.481L290.19 434.471Z" fill="white"/>
<path d="M267.967 446.981L267.497 447.251L268.207 447.661L268.677 447.391C269.166 447.861 269.066 448.481 268.377 448.881C267.567 449.351 266.227 449.351 265.408 448.881C264.588 448.411 264.588 447.631 265.408 447.161C266.108 446.751 267.177 446.691 267.987 446.981H267.967Z" fill="white"/>
<path d="M274.274 450.631L273.805 450.901L274.514 451.311L274.984 451.041C275.474 451.511 275.374 452.131 274.684 452.531C273.875 453.001 272.535 453.001 271.715 452.531C270.896 452.051 270.896 451.281 271.715 450.811C272.415 450.401 273.485 450.341 274.294 450.631H274.274Z" fill="white"/>
<path d="M301.315 443.051L300.255 443.661L281.302 454.681L280.832 454.961L280.112 454.541L280.582 454.271L299.536 443.251L300.605 442.631L301.315 443.051Z" fill="white"/>
<path d="M296.506 438.11C297.326 438.59 297.336 439.36 296.506 439.84C295.807 440.24 294.747 440.3 293.937 440.02L294.997 439.4L294.287 438.99L293.227 439.61C292.728 439.14 292.828 438.52 293.527 438.12C294.347 437.64 295.677 437.64 296.496 438.12L296.506 438.11Z" fill="white"/>
<path d="M295.007 439.4L293.948 440.02L274.984 451.04L274.514 451.31L273.805 450.9L274.275 450.63L293.238 439.61L294.297 438.99L295.007 439.4Z" fill="white"/>
<path d="M288.69 435.75L287.63 436.37L268.677 447.39L268.207 447.66L267.497 447.26L267.967 446.98L286.92 435.96L287.98 435.34L288.69 435.75Z" fill="white"/>
<path d="M283.882 430.831C284.702 431.311 284.702 432.081 283.882 432.551C283.182 432.961 282.123 433.011 281.313 432.731L282.372 432.111L281.663 431.701L280.603 432.321C280.113 431.851 280.203 431.231 280.903 430.831C281.723 430.351 283.052 430.351 283.882 430.831Z" fill="white"/>
<path d="M282.382 432.111L281.323 432.731L262.359 443.741L261.889 444.021L261.18 443.611L261.65 443.341L280.613 432.321L281.672 431.701L282.382 432.111Z" fill="white"/>
<path d="M262.359 443.741C262.859 444.211 262.749 444.831 262.049 445.231C261.239 445.701 259.91 445.711 259.08 445.231C258.26 444.751 258.25 443.981 259.06 443.511C259.76 443.111 260.829 443.051 261.639 443.331L261.169 443.601L261.879 444.011L262.349 443.741H262.359Z" fill="white"/>
<path d="M302.814 441.76C303.634 442.24 303.634 443.01 302.814 443.48C302.115 443.88 301.055 443.94 300.255 443.66L301.315 443.04L300.595 442.63L299.536 443.25C299.046 442.78 299.146 442.17 299.835 441.76C300.655 441.28 301.985 441.28 302.804 441.76H302.814Z" fill="white"/>
<path d="M280.583 454.271L280.113 454.541L280.833 454.951L281.303 454.681C281.792 455.151 281.683 455.771 280.993 456.171C280.183 456.641 278.854 456.651 278.024 456.171C277.194 455.691 277.204 454.921 278.024 454.451C278.724 454.051 279.783 453.981 280.593 454.271H280.583Z" fill="white"/>
</g>
<g opacity="0.12">
<path d="M45.0357 526.481C45.9953 527.041 46.0053 527.941 45.0357 528.501C44.076 529.051 42.5066 529.041 41.5469 528.481C40.5872 527.921 40.5872 527.011 41.5469 526.461C42.5166 525.901 44.076 525.921 45.0357 526.481Z" fill="white"/>
</g>
<g opacity="0.12">
<path d="M87.9405 514.421C88.7802 514.901 88.7902 515.691 87.9605 516.171C87.2508 516.581 86.1612 516.641 85.3314 516.351L86.8009 515.501L86.0912 515.091L84.6217 515.941C84.1119 515.461 84.2118 514.831 84.9316 514.421C85.7613 513.941 87.1108 513.941 87.9505 514.421H87.9405Z" fill="white"/>
<path d="M33.1299 545.871L31.6604 546.721L32.3701 547.131L33.8396 546.281C34.3495 546.761 34.2495 547.391 33.5297 547.801C32.7 548.281 31.3405 548.281 30.5108 547.801C29.6811 547.321 29.6711 546.541 30.5108 546.051C31.2305 545.631 32.3202 545.571 33.1399 545.871H33.1299Z" fill="white"/>
<path d="M86.7908 515.5L85.3213 516.35L33.8394 546.28L32.3699 547.14L31.6602 546.73L33.1296 545.87L84.6116 515.95L86.0811 515.09L86.7908 515.5Z" fill="white"/>
</g>
<g opacity="0.12">
<path d="M103.995 516.04C104.835 516.52 104.845 517.31 104.015 517.79C103.305 518.2 102.216 518.26 101.386 517.97L102.856 517.12L102.146 516.71L100.676 517.56C100.167 517.08 100.267 516.45 100.986 516.04C101.816 515.56 103.166 515.56 104.005 516.04H103.995Z" fill="white"/>
<path d="M49.1943 547.49L47.7249 548.34L48.4346 548.75L49.9041 547.9C50.4139 548.38 50.3139 549.01 49.5942 549.42C48.7645 549.9 47.405 549.9 46.5753 549.42C45.7455 548.94 45.7355 548.16 46.5753 547.67C47.295 547.25 48.3846 547.19 49.2043 547.49H49.1943Z" fill="white"/>
<path d="M102.855 517.119L101.386 517.969L49.9038 547.899L48.4344 548.749L47.7246 548.339L49.1941 547.489L100.676 517.559L102.146 516.709L102.855 517.119Z" fill="white"/>
</g>
<g opacity="0.12">
<path d="M120.059 517.649C120.898 518.129 120.908 518.919 120.079 519.399C119.369 519.809 118.279 519.869 117.45 519.579L118.919 518.729L118.209 518.319L116.74 519.169C116.23 518.689 116.33 518.059 117.05 517.649C117.879 517.169 119.229 517.169 120.069 517.649H120.059Z" fill="white"/>
<path d="M65.248 549.1L63.7786 549.95L64.4883 550.36L65.9578 549.51C66.4676 549.99 66.3677 550.62 65.6479 551.03C64.8182 551.51 63.4587 551.51 62.629 551.03C61.7993 550.55 61.7893 549.77 62.629 549.28C63.3487 548.86 64.4383 548.8 65.258 549.1H65.248Z" fill="white"/>
<path d="M118.909 518.728L117.439 519.578L65.9573 549.508L64.4878 550.368L63.7881 549.958L65.2476 549.098L116.73 519.178L118.199 518.318L118.909 518.728Z" fill="white"/>
</g>
</svg>
