<svg width="860" height="640" viewBox="0 0 860 640" fill="none" xmlns="http://www.w3.org/2000/svg">
<g opacity="0.12">
<path d="M250.423 289.23L250.723 344.1L155.357 399.54L154.647 399.14L249.724 343.86L249.414 289.23H250.423Z" fill="white"/>
<path d="M258.981 291.471L259.29 346.341L161.585 403.141L160.875 402.731L258.291 346.101L257.981 291.471H258.981Z" fill="white"/>
<path d="M267.547 293.711L267.857 348.581L167.812 406.741L167.103 406.331L266.858 348.341L266.548 293.711H267.547Z" fill="white"/>
<path d="M284.691 298.18L284.991 353.05L180.268 413.93L179.558 413.52L283.991 352.81L283.682 298.18H284.691Z" fill="white"/>
<path d="M276.114 295.951L276.424 350.811L174.04 410.331L173.331 409.921L275.425 350.571L275.125 295.951H276.114Z" fill="white"/>
</g>
<g opacity="0.12">
<path d="M840.576 609.491L839.877 609.901L704.994 536.591H616.715L539.772 492.151L539.712 481.631L494.108 455.301L494.808 454.891L540.702 481.391L540.762 491.911L617.125 536.011H705.404L840.576 609.491Z" fill="white"/>
<path d="M849.293 604.43L848.584 604.84L713.711 531.53H625.422L548.469 487.09L548.419 476.57L502.815 450.23L503.525 449.82L549.419 476.33L549.479 486.84L625.832 530.94L714.121 530.95L849.293 604.43Z" fill="white"/>
<path d="M858 599.36L857.3 599.77L722.417 526.46H634.128L557.185 482.02L557.125 471.51L511.521 445.17L512.231 444.76L558.135 471.26L558.185 481.78L634.538 525.88H722.827L858 599.36Z" fill="white"/>
<path d="M831.869 614.549L831.17 614.959L696.287 541.649H607.998L531.055 497.209L531.005 486.699L485.401 460.359L486.101 459.949L531.995 486.459L532.054 496.969L608.408 541.069H696.697L831.869 614.549Z" fill="white"/>
</g>
<g opacity="0.12">
<path d="M267.457 482.811L266.758 483.221L225.532 459.421H137.253L60.31 414.971L60.25 404.461L14.646 378.121L15.3458 377.711L61.2496 404.221L61.3096 414.731L137.663 458.841H225.942L267.457 482.811Z" fill="white"/>
<path d="M276.164 477.75L275.464 478.16L234.249 454.35H145.96L69.0168 409.91L68.9568 399.4L23.3628 373.06L24.0625 372.65L69.9564 399.16L70.0164 409.67L146.38 453.77H234.659L276.164 477.75Z" fill="white"/>
<path d="M284.881 472.68L284.181 473.09L242.956 449.29H154.677L77.7235 404.85L77.6636 394.34L32.0596 368L32.7793 367.58L78.6732 394.09L78.7232 404.61L155.086 448.71H243.365L284.881 472.68Z" fill="white"/>
<path d="M258.75 487.879L258.051 488.279L216.825 464.479H128.546L51.5929 420.039L51.543 409.519L5.93896 383.179L6.63872 382.779L52.5426 409.279L52.5926 419.799L128.956 463.899H217.235L258.75 487.879Z" fill="white"/>
</g>
<g opacity="0.12">
<path d="M319.559 489.21L284.681 509.49L264.468 497.81L299.346 477.54L319.559 489.21Z" fill="white"/>
</g>
<g opacity="0.12">
<path d="M711.202 312.6L676.334 332.87L656.121 321.2L690.989 300.92L711.202 312.6Z" fill="white"/>
</g>
<g opacity="0.12">
<path d="M394.773 540.62L394.863 557.12H393.873L393.783 540.86L321.599 499.17L322.298 498.76L394.773 540.62Z" fill="white"/>
<path d="M389.315 543.79L389.405 560.29L388.405 560.3L388.315 544.03L316.13 502.34L316.84 501.93L389.315 543.79Z" fill="white"/>
<path d="M372.93 553.32L373.02 569.82H372.031L371.931 553.56L299.746 511.86L300.456 511.46L372.93 553.32Z" fill="white"/>
<path d="M378.389 550.139L378.489 566.639H377.489L377.399 550.379L305.214 508.689L305.914 508.279L378.389 550.139Z" fill="white"/>
<path d="M383.847 546.969L383.947 563.469H382.947L382.857 547.209L310.672 505.519L311.372 505.109L383.847 546.969Z" fill="white"/>
</g>
<g opacity="0.1">
<path d="M369.831 477.721L370.021 512.271L404.299 532.071L404.379 545.451L456.491 575.551L455.791 575.961L403.379 545.691L403.299 532.311L369.021 512.511L368.832 477.721H369.831Z" fill="white"/>
<path d="M392.323 464.641L392.513 499.201L426.791 519.001L426.871 532.371L478.983 562.471L478.273 562.891L425.862 532.611L425.792 519.241L391.514 499.441L391.324 464.641H392.323Z" fill="white"/>
<path d="M387.825 467.26L388.015 501.81L422.293 521.61L422.363 534.99L474.484 565.09L473.785 565.5L421.363 535.23L421.303 521.85L387.015 502.05L386.825 467.25L387.825 467.26Z" fill="white"/>
<path d="M383.327 469.871L383.516 504.431L417.804 524.221L417.874 537.601L469.986 567.701L469.286 568.111L416.875 537.841L416.795 524.471L382.517 504.671L382.317 469.871H383.327Z" fill="white"/>
<path d="M378.828 472.48L379.018 507.04L413.296 526.84L413.366 540.22L465.488 570.32L464.778 570.73L412.367 540.46L412.297 527.08L378.019 507.28L377.829 472.48H378.828Z" fill="white"/>
<path d="M374.33 475.102L374.52 509.662L408.808 529.462L408.868 542.832L460.989 572.932L460.29 573.342L407.878 543.072L407.808 529.692L373.53 509.902L373.33 475.102H374.33Z" fill="white"/>
</g>
<g opacity="0.1">
<path d="M564.053 212.58L564.233 247.14L598.521 266.94L598.591 280.31L650.713 310.41L650.003 310.82L597.591 280.55L597.521 267.18L563.243 247.38L563.043 212.58H564.053Z" fill="white"/>
<path d="M586.545 199.5L586.725 234.06L621.013 253.86L621.083 267.23L673.205 297.34L672.495 297.75L620.084 267.48L620.014 254.1L585.736 234.3L585.536 199.5H586.545Z" fill="white"/>
<path d="M582.037 202.119L582.237 236.679L616.515 256.469L616.585 269.849L668.696 299.949L667.997 300.359L615.585 270.089L615.515 256.709L581.237 236.919L581.037 202.119H582.037Z" fill="white"/>
<path d="M577.538 204.74L577.738 239.29L612.016 259.09L612.086 272.47L664.208 302.57L663.498 302.98L611.086 272.71L611.016 259.33L576.729 239.53L576.539 204.74H577.538Z" fill="white"/>
<path d="M573.05 207.35L573.24 241.91L607.518 261.71L607.588 275.08L659.7 305.18L659 305.59L606.588 275.32L606.518 261.95L572.24 242.15L572.041 207.35H573.05Z" fill="white"/>
<path d="M568.542 209.971L568.742 244.521L603.02 264.321L603.09 277.701L655.211 307.801L654.501 308.211L602.09 277.941L602.02 264.561L567.742 244.761L567.542 209.961L568.542 209.971Z" fill="white"/>
</g>
<g opacity="0.12">
<path d="M294.078 515.9C294.608 516.2 294.708 516.66 294.378 517.02L293.258 516.37L292.559 516.78L293.678 517.43C293.058 517.62 292.269 517.56 291.739 517.26C291.089 516.88 291.089 516.28 291.739 515.9C292.389 515.52 293.438 515.52 294.088 515.9H294.078Z" fill="white"/>
<path d="M329.596 536.411C330.245 536.791 330.245 537.391 329.596 537.771C328.956 538.141 327.906 538.151 327.256 537.771C326.727 537.471 326.627 537.011 326.956 536.651L328.076 537.301L328.776 536.891L327.656 536.241C328.276 536.051 329.066 536.111 329.596 536.411Z" fill="white"/>
<path d="M328.776 536.89L328.076 537.3L326.957 536.65L293.678 517.43L292.559 516.78L293.258 516.37L294.378 517.02L327.656 536.24L328.776 536.89Z" fill="white"/>
</g>
<g opacity="0.12">
<path d="M287.27 520.18C287.8 520.48 287.9 520.94 287.57 521.3L286.451 520.65L285.751 521.06L286.87 521.71C286.251 521.9 285.461 521.84 284.931 521.54C284.281 521.16 284.281 520.56 284.931 520.18C285.581 519.8 286.631 519.8 287.28 520.18H287.27Z" fill="white"/>
<path d="M322.788 540.69C323.438 541.07 323.438 541.67 322.788 542.05C322.148 542.42 321.099 542.43 320.449 542.05C319.919 541.75 319.819 541.29 320.149 540.93L321.268 541.58L321.968 541.17L320.849 540.52C321.468 540.33 322.258 540.39 322.788 540.69Z" fill="white"/>
<path d="M321.978 541.169L321.269 541.569L320.149 540.929L286.871 521.709L285.751 521.059L286.451 520.649L287.57 521.299L320.859 540.519L321.978 541.169Z" fill="white"/>
</g>
<g opacity="0.12">
<path d="M280.463 524.45C280.993 524.75 281.093 525.21 280.763 525.57L279.643 524.92L278.943 525.33L280.063 525.98C279.443 526.17 278.653 526.11 278.124 525.81C277.474 525.43 277.474 524.83 278.124 524.45C278.773 524.07 279.823 524.07 280.473 524.45H280.463Z" fill="white"/>
<path d="M315.98 544.97C316.63 545.35 316.63 545.95 315.98 546.33C315.341 546.7 314.291 546.71 313.641 546.33C313.111 546.03 313.011 545.57 313.341 545.21L314.461 545.86L315.161 545.45L314.041 544.8C314.661 544.61 315.45 544.67 315.98 544.97Z" fill="white"/>
<path d="M315.171 545.44L314.461 545.85L313.341 545.2L280.063 525.99L278.943 525.34L279.643 524.93L280.763 525.58L314.051 544.8L315.171 545.44Z" fill="white"/>
</g>
<g opacity="0.12">
<path d="M273.655 528.73C274.185 529.03 274.285 529.49 273.955 529.85L272.835 529.2L272.136 529.61L273.255 530.26C272.635 530.45 271.846 530.39 271.316 530.09C270.666 529.71 270.666 529.11 271.316 528.73C271.966 528.35 273.015 528.35 273.665 528.73H273.655Z" fill="white"/>
<path d="M309.173 549.241C309.822 549.621 309.822 550.221 309.173 550.601C308.533 550.971 307.483 550.981 306.834 550.601C306.304 550.301 306.204 549.841 306.534 549.481L307.653 550.131L308.353 549.721L307.233 549.071C307.853 548.881 308.643 548.941 309.173 549.241Z" fill="white"/>
<path d="M308.363 549.72L307.653 550.13L306.534 549.48L273.255 530.26L272.136 529.62L272.845 529.21L273.965 529.85L307.243 549.07L308.363 549.72Z" fill="white"/>
</g>
<g opacity="0.12">
<path d="M266.848 533.01C267.377 533.31 267.477 533.77 267.147 534.13L266.028 533.48L265.328 533.89L266.448 534.54C265.828 534.73 265.038 534.67 264.508 534.37C263.859 533.99 263.859 533.39 264.508 533.01C265.158 532.63 266.208 532.63 266.858 533.01H266.848Z" fill="white"/>
<path d="M302.365 553.52C303.015 553.9 303.015 554.5 302.365 554.88C301.725 555.25 300.676 555.26 300.026 554.88C299.496 554.58 299.396 554.12 299.726 553.76L300.846 554.41L301.545 554L300.426 553.35C301.046 553.16 301.835 553.22 302.365 553.52Z" fill="white"/>
<path d="M301.555 553.999L300.846 554.409L299.726 553.759L266.448 534.539L265.328 533.889L266.038 533.479L267.157 534.129L300.436 553.349L301.555 553.999Z" fill="white"/>
</g>
<g opacity="0.12">
<path d="M657.83 250.801C658.36 251.101 658.46 251.561 658.13 251.921L657.011 251.271L656.311 251.681L657.431 252.331C656.811 252.521 656.021 252.461 655.491 252.161C654.841 251.781 654.841 251.181 655.491 250.801C656.141 250.421 657.191 250.421 657.84 250.801H657.83Z" fill="white"/>
<path d="M693.348 271.31C693.998 271.69 693.998 272.29 693.348 272.67C692.708 273.04 691.659 273.05 691.009 272.67C690.479 272.37 690.379 271.91 690.709 271.55L691.829 272.2L692.528 271.79L691.409 271.14C692.028 270.95 692.818 271.01 693.348 271.31Z" fill="white"/>
<path d="M692.528 271.791L691.818 272.201L690.699 271.551L657.43 252.331L656.301 251.681L657.01 251.271L658.13 251.921L691.408 271.141L692.528 271.791Z" fill="white"/>
</g>
<g opacity="0.12">
<path d="M301.255 390.51C302.075 390.99 302.085 391.76 301.255 392.24C300.556 392.64 299.496 392.7 298.686 392.42L299.746 391.8L299.036 391.39L297.977 392.01C297.487 391.54 297.577 390.92 298.277 390.52C299.096 390.04 300.426 390.04 301.245 390.52L301.255 390.51Z" fill="white"/>
<path d="M279.023 403.029L278.553 403.299L279.263 403.709L279.733 403.439C280.223 403.909 280.123 404.529 279.433 404.929C278.623 405.399 277.284 405.399 276.464 404.929C275.644 404.459 275.644 403.679 276.464 403.209C277.164 402.799 278.233 402.749 279.043 403.029H279.023Z" fill="white"/>
<path d="M285.341 406.67L284.871 406.94L285.581 407.35L286.051 407.08C286.54 407.55 286.44 408.17 285.751 408.57C284.941 409.04 283.601 409.04 282.782 408.57C281.962 408.09 281.962 407.32 282.782 406.85C283.482 406.44 284.551 406.38 285.361 406.67H285.341Z" fill="white"/>
<path d="M312.381 399.09L311.312 399.71L292.358 410.73L291.888 411L291.179 410.59L291.649 410.32L310.602 399.3L311.662 398.68L312.381 399.09Z" fill="white"/>
<path d="M307.563 394.161C308.383 394.641 308.393 395.411 307.563 395.891C306.863 396.291 305.804 396.351 304.994 396.071L306.053 395.451L305.344 395.041L304.284 395.661C303.784 395.191 303.884 394.571 304.584 394.171C305.404 393.691 306.733 393.691 307.553 394.171L307.563 394.161Z" fill="white"/>
<path d="M306.064 395.451L305.004 396.061L286.051 407.081L285.581 407.361L284.871 406.951L285.341 406.671L304.294 395.651L305.354 395.041L306.064 395.451Z" fill="white"/>
<path d="M299.756 391.801L298.696 392.421L279.733 403.441L279.263 403.711L278.553 403.301L279.023 403.031L297.986 392.011L299.046 391.391L299.756 391.801Z" fill="white"/>
<path d="M294.948 386.87C295.768 387.35 295.768 388.12 294.948 388.59C294.248 389 293.188 389.05 292.379 388.77L293.438 388.15L292.729 387.74L291.669 388.36C291.179 387.89 291.269 387.27 291.969 386.87C292.789 386.39 294.118 386.39 294.948 386.87Z" fill="white"/>
<path d="M293.438 388.15L292.379 388.77L273.425 399.79L272.955 400.06L272.246 399.66L272.715 399.38L291.669 388.36L292.728 387.75L293.438 388.15Z" fill="white"/>
<path d="M273.425 399.79C273.925 400.26 273.815 400.88 273.115 401.28C272.306 401.75 270.976 401.76 270.146 401.28C269.317 400.8 269.317 400.03 270.126 399.56C270.826 399.16 271.896 399.1 272.705 399.38L272.236 399.65L272.945 400.06L273.415 399.79H273.425Z" fill="white"/>
<path d="M313.881 397.809C314.701 398.289 314.701 399.059 313.881 399.529C313.181 399.929 312.121 399.989 311.322 399.709L312.381 399.089L311.662 398.679L310.602 399.299C310.112 398.829 310.212 398.219 310.902 397.809C311.722 397.329 313.051 397.329 313.871 397.809H313.881Z" fill="white"/>
<path d="M291.649 410.32L291.179 410.59L291.888 411L292.358 410.73C292.848 411.2 292.738 411.82 292.048 412.22C291.239 412.69 289.909 412.7 289.079 412.22C288.25 411.74 288.26 410.97 289.079 410.5C289.779 410.1 290.839 410.03 291.649 410.32Z" fill="white"/>
</g>
<g opacity="0.12">
<path d="M651.022 255.07C651.552 255.37 651.652 255.83 651.322 256.19L650.203 255.54L649.503 255.95L650.622 256.6C650.003 256.79 649.213 256.73 648.683 256.43C648.033 256.05 648.033 255.45 648.683 255.07C649.333 254.69 650.383 254.69 651.032 255.07H651.022Z" fill="white"/>
<path d="M686.54 275.589C687.19 275.969 687.19 276.569 686.54 276.949C685.9 277.319 684.85 277.329 684.201 276.949C683.671 276.649 683.571 276.189 683.901 275.829L685.02 276.479L685.72 276.069L684.601 275.419C685.22 275.229 686.01 275.289 686.54 275.589Z" fill="white"/>
<path d="M685.72 276.061L685.02 276.471L683.891 275.831L650.622 256.611L649.493 255.961L650.202 255.551L651.322 256.201L684.6 275.421L685.72 276.061Z" fill="white"/>
</g>
<g opacity="0.12">
<path d="M644.215 259.349C644.745 259.649 644.845 260.109 644.515 260.469L643.395 259.819L642.696 260.229L643.815 260.879C643.196 261.069 642.406 261.009 641.876 260.709C641.226 260.329 641.226 259.729 641.876 259.349C642.526 258.969 643.575 258.969 644.225 259.349H644.215Z" fill="white"/>
<path d="M679.733 279.869C680.382 280.249 680.382 280.849 679.733 281.229C679.093 281.599 678.043 281.609 677.394 281.229C676.864 280.929 676.764 280.469 677.094 280.109L678.213 280.759L678.913 280.349L677.793 279.699C678.413 279.509 679.203 279.569 679.733 279.869Z" fill="white"/>
<path d="M678.913 280.34L678.213 280.75L677.084 280.1L643.815 260.88L642.696 260.24L643.396 259.83L644.515 260.47L677.794 279.69L678.913 280.34Z" fill="white"/>
</g>
<g opacity="0.12">
<path d="M468.187 162.15C468.717 162.45 468.817 162.91 468.487 163.27L467.367 162.62L466.667 163.03L467.787 163.68C467.167 163.87 466.377 163.81 465.848 163.51C465.198 163.13 465.198 162.53 465.848 162.15C466.497 161.77 467.547 161.77 468.197 162.15H468.187Z" fill="white"/>
<path d="M503.704 182.669C504.354 183.049 504.354 183.649 503.704 184.029C503.065 184.399 502.015 184.409 501.365 184.029C500.835 183.729 500.735 183.269 501.065 182.909L502.185 183.559L502.885 183.149L501.765 182.499C502.385 182.309 503.175 182.369 503.704 182.669Z" fill="white"/>
<path d="M502.895 183.141L502.185 183.551L501.065 182.901L467.787 163.681L466.667 163.041L467.377 162.631L468.497 163.271L501.775 182.501L502.895 183.141Z" fill="white"/>
</g>
<g opacity="0.12">
<path d="M457.291 163.84C457.821 164.14 457.921 164.6 457.591 164.96L456.471 164.31L455.771 164.72L456.891 165.37C456.271 165.56 455.481 165.5 454.952 165.2C454.302 164.82 454.302 164.22 454.952 163.84C455.601 163.46 456.651 163.46 457.301 163.84H457.291Z" fill="white"/>
<path d="M492.808 184.349C493.458 184.729 493.458 185.329 492.808 185.709C492.169 186.079 491.119 186.089 490.469 185.709C489.939 185.409 489.839 184.949 490.169 184.589L491.289 185.239L491.989 184.829L490.869 184.179C491.489 183.989 492.279 184.049 492.808 184.349Z" fill="white"/>
<path d="M491.989 184.831L491.289 185.241L490.169 184.591L456.891 165.371L455.771 164.721L456.471 164.311L457.591 164.961L490.869 184.181L491.989 184.831Z" fill="white"/>
</g>
<g opacity="0.12">
<path d="M447.084 165.98C447.614 166.28 447.714 166.74 447.384 167.1L446.265 166.45L445.565 166.86L446.684 167.51C446.065 167.7 445.275 167.64 444.745 167.34C444.095 166.96 444.095 166.36 444.745 165.98C445.395 165.6 446.445 165.6 447.094 165.98H447.084Z" fill="white"/>
<path d="M482.602 186.49C483.252 186.87 483.252 187.47 482.602 187.85C481.962 188.22 480.912 188.23 480.263 187.85C479.733 187.55 479.633 187.09 479.963 186.73L481.082 187.38L481.782 186.97L480.663 186.32C481.282 186.13 482.072 186.19 482.602 186.49Z" fill="white"/>
<path d="M481.782 186.971L481.072 187.381L479.953 186.731L446.684 167.511L445.555 166.861L446.264 166.451L447.384 167.101L480.662 186.321L481.782 186.971Z" fill="white"/>
</g>
<g opacity="0.12">
<path d="M637.408 263.631C637.937 263.931 638.037 264.391 637.707 264.751L636.588 264.101L635.888 264.511L637.008 265.161C636.388 265.351 635.598 265.291 635.068 264.991C634.419 264.611 634.419 264.011 635.068 263.631C635.718 263.251 636.768 263.251 637.418 263.631H637.408Z" fill="white"/>
<path d="M672.925 284.14C673.575 284.52 673.575 285.12 672.925 285.5C672.285 285.87 671.236 285.88 670.586 285.5C670.056 285.2 669.956 284.74 670.286 284.38L671.406 285.03L672.105 284.62L670.986 283.97C671.606 283.78 672.395 283.84 672.925 284.14Z" fill="white"/>
<path d="M672.106 284.622L671.406 285.032L670.286 284.382L637.008 265.162L635.888 264.512L636.588 264.102L637.708 264.752L670.986 283.972L672.106 284.622Z" fill="white"/>
</g>
<g opacity="0.12">
<path d="M60.5497 448.04C61.2794 448.46 61.2894 449.15 60.5697 449.58C59.8399 450 58.6403 450 57.9106 449.58C57.1808 449.16 57.1808 448.47 57.9106 448.04C58.6403 447.62 59.8199 447.62 60.5597 448.04H60.5497Z" fill="white"/>
<path d="M67.6373 452.139C68.377 452.569 68.377 453.249 67.6473 453.679C66.9175 454.099 65.728 454.109 64.9882 453.679C64.2585 453.259 64.2585 452.569 64.9882 452.139C65.718 451.719 66.8976 451.719 67.6373 452.139Z" fill="white"/>
<path d="M74.7346 456.239C75.4644 456.659 75.4744 457.349 74.7346 457.769C74.0049 458.189 72.8153 458.199 72.0856 457.769C71.3458 457.339 71.3458 456.649 72.0856 456.229C72.8153 455.809 73.9949 455.809 74.7346 456.229V456.239Z" fill="white"/>
<path d="M81.8222 460.329C82.5519 460.749 82.5619 461.439 81.8222 461.859C81.0925 462.279 79.9029 462.289 79.1731 461.859C78.4434 461.439 78.4334 460.739 79.1731 460.319C79.9029 459.899 81.0925 459.899 81.8222 460.319V460.329Z" fill="white"/>
<path d="M88.9199 464.428C89.6496 464.848 89.6596 465.538 88.9199 465.958C88.1901 466.378 87.0005 466.388 86.2708 465.958C85.541 465.538 85.531 464.839 86.2708 464.419C87.0005 463.999 88.1901 463.999 88.9199 464.419V464.428Z" fill="white"/>
<path d="M6.19882 481.309C6.92856 481.729 6.93856 482.419 6.20882 482.849C5.47907 483.269 4.27949 483.269 3.54975 482.849C2.82001 482.429 2.82001 481.739 3.54975 481.309C4.27949 480.889 5.45908 480.889 6.19882 481.309Z" fill="white"/>
<path d="M13.2865 485.399C14.0262 485.829 14.0262 486.509 13.3065 486.939C12.5767 487.359 11.3871 487.369 10.6474 486.939C9.91766 486.519 9.91766 485.829 10.6474 485.399C11.3771 484.979 12.5567 484.979 13.2965 485.399H13.2865Z" fill="white"/>
<path d="M20.3841 489.499C21.1138 489.919 21.1238 490.609 20.3841 491.029C19.6543 491.449 18.4647 491.459 17.735 491.029C16.9952 490.599 16.9952 489.909 17.735 489.489C18.4647 489.069 19.6443 489.069 20.3841 489.489V489.499Z" fill="white"/>
<path d="M27.4716 493.599C28.2014 494.019 28.2114 494.709 27.4716 495.129C26.7319 495.549 25.5523 495.559 24.8225 495.129C24.0928 494.709 24.0828 494.009 24.8225 493.589C25.5523 493.169 26.7419 493.169 27.4716 493.589V493.599Z" fill="white"/>
<path d="M34.559 497.689C35.2888 498.109 35.2988 498.799 34.559 499.219C33.8293 499.639 32.6397 499.649 31.9099 499.219C31.1802 498.799 31.1702 498.099 31.9099 497.679C32.6397 497.259 33.8293 497.259 34.559 497.679V497.689Z" fill="white"/>
<path d="M88.1101 480.22C88.8398 480.64 88.8498 481.33 88.1201 481.76C87.3903 482.18 86.2007 482.18 85.471 481.76C84.7412 481.34 84.7312 480.65 85.471 480.23C86.2007 479.81 87.3803 479.81 88.1201 480.23L88.1101 480.22Z" fill="white"/>
<path d="M87.5803 473.35L45.4351 497.86L3 473.35L45.1552 448.85L87.5803 473.35Z" fill="white"/>
<path d="M81.0627 484.32C81.7924 484.74 81.8024 485.43 81.0727 485.86C80.3429 486.28 79.1534 486.28 78.4236 485.86C77.6939 485.44 77.6839 484.75 78.4236 484.33C79.1634 483.91 80.333 483.91 81.0727 484.33L81.0627 484.32Z" fill="white"/>
<path d="M74.0151 488.419C74.7448 488.839 74.7548 489.529 74.0351 489.959C73.3053 490.379 72.1158 490.379 71.386 489.959C70.6563 489.539 70.6463 488.849 71.386 488.429C72.1158 488.009 73.2953 488.009 74.0351 488.429L74.0151 488.419Z" fill="white"/>
<path d="M66.9776 492.509C67.7074 492.929 67.7174 493.619 66.9876 494.049C66.2579 494.479 65.0583 494.469 64.3286 494.049C63.5988 493.629 63.5988 492.939 64.3286 492.509C65.0583 492.089 66.2379 492.089 66.9776 492.509Z" fill="white"/>
<path d="M59.93 496.609C60.6598 497.029 60.6698 497.719 59.95 498.149C59.2203 498.569 58.0207 498.569 57.291 498.149C56.5612 497.729 56.5612 497.039 57.291 496.609C58.0207 496.189 59.2003 496.189 59.94 496.609H59.93Z" fill="white"/>
<path d="M27.3312 451.18C28.061 451.6 28.071 452.29 27.3412 452.72C26.6115 453.14 25.4219 453.14 24.6922 452.72C23.9624 452.3 23.9524 451.61 24.6922 451.19C25.4219 450.77 26.6015 450.77 27.3412 451.19L27.3312 451.18Z" fill="white"/>
<path d="M35.4787 446.959C36.2085 447.379 36.2185 448.069 35.4887 448.499C34.759 448.919 33.5694 448.919 32.8396 448.499C32.1099 448.079 32.0999 447.389 32.8396 446.969C33.5694 446.549 34.749 446.549 35.4887 446.969L35.4787 446.959Z" fill="white"/>
<path d="M20.2841 455.28C21.0139 455.7 21.0239 456.39 20.3041 456.82C19.5744 457.24 18.3848 457.24 17.6551 456.82C16.9253 456.4 16.9153 455.71 17.6551 455.29C18.3848 454.87 19.5644 454.87 20.3041 455.29L20.2841 455.28Z" fill="white"/>
<path d="M13.2364 459.37C13.9662 459.79 13.9762 460.48 13.2464 460.91C12.5167 461.34 11.3171 461.33 10.5873 460.91C9.8576 460.49 9.8576 459.8 10.5873 459.37C11.3171 458.95 12.4967 458.95 13.2364 459.37Z" fill="white"/>
<path d="M6.19908 463.469C6.92882 463.889 6.93882 464.579 6.21907 465.009C5.48933 465.429 4.28975 465.429 3.56 465.009C2.83026 464.589 2.83026 463.899 3.56 463.469C4.28975 463.049 5.46933 463.049 6.20907 463.469H6.19908Z" fill="white"/>
</g>
<g opacity="0.12">
<path d="M671.365 442.2C672.095 442.62 672.105 443.31 671.375 443.74C670.646 444.16 669.446 444.16 668.716 443.74C667.987 443.32 667.987 442.63 668.716 442.2C669.446 441.77 670.626 441.78 671.365 442.2Z" fill="white"/>
<path d="M678.453 446.299C679.193 446.729 679.193 447.409 678.463 447.839C677.734 448.259 676.544 448.269 675.804 447.839C675.074 447.419 675.074 446.729 675.804 446.299C676.534 445.879 677.713 445.879 678.453 446.299Z" fill="white"/>
<path d="M685.551 450.399C686.28 450.819 686.29 451.509 685.551 451.929C684.821 452.349 683.631 452.359 682.901 451.929C682.162 451.499 682.162 450.809 682.901 450.389C683.641 449.969 684.811 449.969 685.551 450.389V450.399Z" fill="white"/>
<path d="M692.648 454.489C693.378 454.909 693.388 455.599 692.648 456.019C691.918 456.439 690.729 456.449 689.999 456.019C689.269 455.599 689.259 454.899 689.999 454.479C690.729 454.059 691.918 454.059 692.648 454.479V454.489Z" fill="white"/>
<path d="M699.736 458.589C700.465 459.009 700.475 459.699 699.736 460.119C699.006 460.539 697.816 460.549 697.087 460.119C696.357 459.689 696.347 458.999 697.087 458.579C697.826 458.159 699.006 458.159 699.736 458.579V458.589Z" fill="white"/>
<path d="M617.014 475.469C617.744 475.889 617.754 476.579 617.034 477.009C616.305 477.429 615.105 477.429 614.375 477.009C613.646 476.589 613.646 475.899 614.375 475.469C615.105 475.049 616.285 475.049 617.024 475.469H617.014Z" fill="white"/>
<path d="M624.102 479.559C624.842 479.989 624.842 480.669 624.112 481.099C623.382 481.529 622.193 481.529 621.453 481.099C620.723 480.679 620.723 479.989 621.453 479.559C622.183 479.139 623.362 479.139 624.102 479.559Z" fill="white"/>
<path d="M631.199 483.659C631.929 484.079 631.939 484.769 631.199 485.189C630.47 485.609 629.28 485.619 628.55 485.189C627.811 484.759 627.811 484.069 628.55 483.649C629.28 483.229 630.46 483.229 631.199 483.649V483.659Z" fill="white"/>
<path d="M638.297 487.76C639.027 488.18 639.037 488.87 638.297 489.29C637.568 489.71 636.378 489.72 635.648 489.29C634.918 488.87 634.908 488.17 635.648 487.75C636.378 487.33 637.568 487.33 638.297 487.75V487.76Z" fill="white"/>
<path d="M645.385 491.849C646.114 492.269 646.124 492.959 645.385 493.379C644.655 493.799 643.465 493.809 642.736 493.379C642.006 492.959 641.996 492.259 642.736 491.839C643.465 491.419 644.655 491.419 645.385 491.839V491.849Z" fill="white"/>
<path d="M698.926 474.389C699.656 474.809 699.666 475.499 698.936 475.929C698.206 476.349 697.017 476.349 696.287 475.929C695.557 475.509 695.547 474.819 696.287 474.399C697.017 473.979 698.196 473.979 698.936 474.399L698.926 474.389Z" fill="white"/>
<path d="M698.406 467.51L656.251 492.02L613.826 467.51L655.971 443.01L698.406 467.51Z" fill="white"/>
<path d="M691.878 478.48C692.608 478.9 692.618 479.59 691.898 480.02C691.169 480.44 689.979 480.44 689.249 480.02C688.52 479.6 688.51 478.91 689.249 478.49C689.979 478.07 691.159 478.07 691.898 478.49L691.878 478.48Z" fill="white"/>
<path d="M684.841 482.579C685.571 482.999 685.58 483.689 684.861 484.119C684.141 484.549 682.941 484.539 682.212 484.119C681.482 483.699 681.472 483.009 682.212 482.589C682.941 482.169 684.121 482.169 684.861 482.589L684.841 482.579Z" fill="white"/>
<path d="M677.793 486.669C678.523 487.089 678.533 487.779 677.813 488.209C677.084 488.629 675.884 488.629 675.154 488.209C674.424 487.789 674.424 487.099 675.154 486.669C675.884 486.249 677.064 486.249 677.803 486.669H677.793Z" fill="white"/>
<path d="M670.746 490.769C671.475 491.189 671.485 491.879 670.756 492.309C670.026 492.739 668.826 492.729 668.097 492.309C667.367 491.889 667.367 491.199 668.097 490.769C668.826 490.349 670.006 490.349 670.746 490.769Z" fill="white"/>
<path d="M638.147 445.34C638.877 445.76 638.887 446.45 638.167 446.88C637.437 447.3 636.248 447.3 635.518 446.88C634.788 446.46 634.778 445.77 635.518 445.35C636.248 444.93 637.427 444.93 638.167 445.35L638.147 445.34Z" fill="white"/>
<path d="M646.304 441.119C647.034 441.539 647.044 442.229 646.324 442.659C645.594 443.079 644.405 443.079 643.675 442.659C642.945 442.239 642.935 441.549 643.675 441.129C644.405 440.709 645.584 440.709 646.324 441.129L646.304 441.119Z" fill="white"/>
<path d="M631.1 449.44C631.829 449.86 631.839 450.55 631.12 450.98C630.4 451.41 629.2 451.4 628.47 450.98C627.741 450.56 627.731 449.87 628.47 449.45C629.2 449.03 630.38 449.03 631.12 449.45L631.1 449.44Z" fill="white"/>
<path d="M624.062 453.53C624.792 453.95 624.802 454.64 624.082 455.07C623.353 455.49 622.153 455.49 621.423 455.07C620.694 454.65 620.694 453.96 621.423 453.53C622.153 453.11 623.333 453.11 624.072 453.53H624.062Z" fill="white"/>
<path d="M617.014 457.629C617.744 458.049 617.754 458.739 617.034 459.169C616.315 459.599 615.105 459.589 614.375 459.169C613.646 458.749 613.646 458.059 614.375 457.629C615.105 457.209 616.285 457.209 617.024 457.629H617.014Z" fill="white"/>
</g>
<g opacity="0.12">
<path d="M77.2142 358.789C77.744 359.089 77.844 359.549 77.5141 359.909L76.3945 359.259L75.6947 359.669L76.8143 360.319C76.1946 360.509 75.4048 360.449 74.875 360.149C74.2253 359.769 74.2253 359.169 74.875 358.789C75.5248 358.409 76.5744 358.409 77.2242 358.789H77.2142Z" fill="white"/>
<path d="M112.732 379.298C113.382 379.678 113.382 380.278 112.732 380.658C112.092 381.028 111.042 381.038 110.393 380.658C109.863 380.358 109.763 379.898 110.093 379.538L111.212 380.188L111.912 379.778L110.792 379.128C111.412 378.938 112.202 378.998 112.732 379.298Z" fill="white"/>
<path d="M111.912 379.77L111.212 380.18L110.093 379.54L76.8144 360.32L75.6948 359.67L76.3946 359.26L77.5142 359.91L110.793 379.13L111.912 379.77Z" fill="white"/>
</g>
<g opacity="0.12">
<path d="M92.1185 358.789C92.6483 359.089 92.7483 359.549 92.4184 359.909L91.2988 359.259L90.599 359.669L91.7186 360.319C91.0989 360.509 90.3091 360.449 89.7793 360.149C89.1295 359.769 89.1295 359.169 89.7793 358.789C90.4291 358.409 91.4787 358.409 92.1285 358.789H92.1185Z" fill="white"/>
<path d="M127.636 379.298C128.286 379.678 128.286 380.278 127.636 380.658C126.996 381.028 125.947 381.038 125.297 380.658C124.767 380.358 124.667 379.898 124.997 379.538L126.117 380.188L126.816 379.778L125.697 379.128C126.317 378.938 127.106 378.998 127.636 379.298Z" fill="white"/>
<path d="M126.826 379.77L126.117 380.18L124.997 379.54L91.7187 360.32L90.5991 359.67L91.3089 359.26L92.4285 359.91L125.707 379.13L126.826 379.77Z" fill="white"/>
</g>
<g opacity="0.12">
<path d="M62.9691 358.789C63.4989 359.089 63.5989 359.549 63.269 359.909L62.1494 359.259L61.4496 359.669L62.5692 360.319C61.9494 360.509 61.1597 360.449 60.6299 360.149C59.9801 359.769 59.9801 359.169 60.6299 358.789C61.2797 358.409 62.3293 358.409 62.9791 358.789H62.9691Z" fill="white"/>
<path d="M98.4867 379.298C99.1364 379.678 99.1364 380.278 98.4867 380.658C97.8469 381.028 96.7973 381.038 96.1475 380.658C95.6177 380.358 95.5177 379.898 95.8476 379.538L96.9672 380.188L97.667 379.778L96.5473 379.128C97.1671 378.938 97.9568 378.998 98.4867 379.298Z" fill="white"/>
<path d="M97.677 379.78L96.9672 380.18L95.8476 379.54L62.5693 360.32L61.4497 359.67L62.1595 359.26L63.2791 359.91L96.5574 379.13L97.677 379.78Z" fill="white"/>
</g>
<g opacity="0.12">
<path d="M182.917 423.569L167.942 432.279L126.347 408.249L141.321 399.539L182.917 423.569Z" fill="white"/>
</g>
<g opacity="0.12">
<path d="M492.368 45L492.668 99.87L397.302 155.31L396.592 154.9L491.668 99.63L491.369 45H492.368Z" fill="white"/>
<path d="M500.935 47.2305L501.245 102.11L403.529 158.91L402.83 158.5L500.245 101.87L499.936 47.2405L500.935 47.2305Z" fill="white"/>
<path d="M509.502 49.4707L509.812 104.341L409.767 162.511L409.047 162.091L508.802 104.101L508.502 49.4807L509.502 49.4707Z" fill="white"/>
<path d="M526.636 53.9492L526.946 108.819L422.213 169.699L421.503 169.289L525.946 108.579L525.636 53.9492H526.636Z" fill="white"/>
<path d="M518.069 51.7109L518.369 106.581L415.985 166.101L415.275 165.691L517.37 106.341L517.07 51.7109H518.069Z" fill="white"/>
</g>
<g opacity="0.12">
<path d="M424.872 179.341L409.897 188.041L368.292 164.021L383.267 155.311L424.872 179.341Z" fill="white"/>
</g>
<g opacity="0.12">
<path d="M47.9443 524.86L122.968 482.59H207.608L270.836 519.45" stroke="white" stroke-linecap="round" stroke-linejoin="round"/>
</g>
<g opacity="0.12">
<path d="M290.189 434.471C291.009 434.951 291.019 435.721 290.189 436.201C289.489 436.601 288.43 436.661 287.62 436.381L288.68 435.761L287.97 435.351L286.91 435.971C286.42 435.501 286.51 434.881 287.21 434.481C288.03 434.001 289.359 434.001 290.179 434.481L290.189 434.471Z" fill="white"/>
<path d="M267.967 446.981L267.497 447.251L268.207 447.661L268.677 447.391C269.166 447.861 269.066 448.481 268.377 448.881C267.567 449.351 266.227 449.351 265.408 448.881C264.588 448.411 264.588 447.631 265.408 447.161C266.108 446.751 267.177 446.691 267.987 446.981H267.967Z" fill="white"/>
<path d="M274.275 450.631L273.805 450.901L274.515 451.311L274.985 451.041C275.475 451.511 275.375 452.131 274.685 452.531C273.875 453.001 272.536 453.001 271.716 452.531C270.896 452.051 270.896 451.281 271.716 450.811C272.416 450.401 273.485 450.341 274.295 450.631H274.275Z" fill="white"/>
<path d="M301.315 443.051L300.256 443.661L281.302 454.681L280.833 454.961L280.113 454.541L280.583 454.271L299.536 443.251L300.606 442.631L301.315 443.051Z" fill="white"/>
<path d="M296.507 438.11C297.326 438.59 297.336 439.36 296.507 439.84C295.807 440.24 294.747 440.3 293.938 440.02L294.997 439.4L294.288 438.99L293.228 439.61C292.728 439.14 292.828 438.52 293.528 438.12C294.348 437.64 295.677 437.64 296.497 438.12L296.507 438.11Z" fill="white"/>
<path d="M295.007 439.4L293.948 440.02L274.984 451.04L274.514 451.31L273.805 450.9L274.275 450.63L293.238 439.61L294.297 438.99L295.007 439.4Z" fill="white"/>
<path d="M288.69 435.75L287.63 436.37L268.677 447.39L268.207 447.66L267.497 447.26L267.967 446.98L286.92 435.96L287.98 435.34L288.69 435.75Z" fill="white"/>
<path d="M283.881 430.831C284.701 431.311 284.701 432.081 283.881 432.551C283.182 432.961 282.122 433.011 281.312 432.731L282.372 432.111L281.662 431.701L280.603 432.321C280.113 431.851 280.203 431.231 280.902 430.831C281.722 430.351 283.052 430.351 283.881 430.831Z" fill="white"/>
<path d="M282.382 432.111L281.322 432.731L262.359 443.741L261.889 444.021L261.179 443.611L261.649 443.341L280.612 432.321L281.672 431.701L282.382 432.111Z" fill="white"/>
<path d="M262.359 443.741C262.859 444.211 262.749 444.831 262.049 445.231C261.239 445.701 259.91 445.711 259.08 445.231C258.26 444.751 258.25 443.981 259.06 443.511C259.76 443.111 260.829 443.051 261.639 443.331L261.169 443.601L261.879 444.011L262.349 443.741H262.359Z" fill="white"/>
<path d="M302.815 441.76C303.635 442.24 303.635 443.01 302.815 443.48C302.115 443.88 301.056 443.94 300.256 443.66L301.315 443.04L300.596 442.63L299.536 443.25C299.046 442.78 299.146 442.17 299.836 441.76C300.656 441.28 301.985 441.28 302.805 441.76H302.815Z" fill="white"/>
<path d="M280.582 454.271L280.113 454.541L280.832 454.951L281.302 454.681C281.792 455.151 281.682 455.771 280.992 456.171C280.183 456.641 278.853 456.651 278.023 456.171C277.194 455.691 277.204 454.921 278.023 454.451C278.723 454.051 279.783 453.981 280.592 454.271H280.582Z" fill="white"/>
</g>
<g opacity="0.12">
<path d="M45.0352 526.48C45.9948 527.04 46.0048 527.94 45.0352 528.5C44.0755 529.05 42.5061 529.04 41.5464 528.48C40.5867 527.92 40.5867 527.01 41.5464 526.46C42.5161 525.9 44.0755 525.92 45.0352 526.48Z" fill="white"/>
</g>
<g opacity="0.12">
<path d="M87.94 514.421C88.7797 514.901 88.7897 515.691 87.96 516.171C87.2503 516.581 86.1607 516.641 85.331 516.351L86.8004 515.501L86.0907 515.091L84.6212 515.941C84.1114 515.461 84.2113 514.831 84.9311 514.421C85.7608 513.941 87.1103 513.941 87.95 514.421H87.94Z" fill="white"/>
<path d="M33.1294 545.87L31.6599 546.72L32.3697 547.13L33.8391 546.28C34.349 546.76 34.249 547.39 33.5293 547.8C32.6995 548.28 31.34 548.28 30.5103 547.8C29.6806 547.32 29.6706 546.54 30.5103 546.05C31.2301 545.63 32.3197 545.57 33.1394 545.87H33.1294Z" fill="white"/>
<path d="M86.7903 515.501L85.3208 516.351L33.8389 546.281L32.3694 547.141L31.6597 546.731L33.1292 545.871L84.6111 515.951L86.0806 515.091L86.7903 515.501Z" fill="white"/>
</g>
<g opacity="0.12">
<path d="M103.995 516.04C104.834 516.52 104.844 517.31 104.015 517.79C103.305 518.2 102.215 518.26 101.386 517.97L102.855 517.12L102.145 516.71L100.676 517.56C100.166 517.08 100.266 516.45 100.986 516.04C101.815 515.56 103.165 515.56 104.005 516.04H103.995Z" fill="white"/>
<path d="M49.1938 547.489L47.7244 548.339L48.4341 548.749L49.9036 547.899C50.4134 548.379 50.3135 549.009 49.5937 549.419C48.764 549.899 47.4045 549.899 46.5748 549.419C45.7451 548.939 45.7351 548.159 46.5748 547.669C47.2945 547.249 48.3841 547.189 49.2038 547.489H49.1938Z" fill="white"/>
<path d="M102.855 517.12L101.385 517.97L49.9034 547.9L48.4339 548.75L47.7241 548.34L49.1936 547.49L100.676 517.56L102.145 516.71L102.855 517.12Z" fill="white"/>
</g>
<g opacity="0.12">
<path d="M120.059 517.65C120.898 518.13 120.908 518.92 120.079 519.4C119.369 519.81 118.279 519.87 117.45 519.58L118.919 518.73L118.209 518.32L116.74 519.17C116.23 518.69 116.33 518.06 117.05 517.65C117.879 517.17 119.229 517.17 120.069 517.65H120.059Z" fill="white"/>
<path d="M65.248 549.1L63.7786 549.95L64.4883 550.36L65.9578 549.51C66.4676 549.99 66.3677 550.62 65.6479 551.03C64.8182 551.51 63.4587 551.51 62.629 551.03C61.7993 550.55 61.7893 549.77 62.629 549.28C63.3487 548.86 64.4383 548.8 65.258 549.1H65.248Z" fill="white"/>
<path d="M118.909 518.73L117.44 519.58L65.9578 549.51L64.4883 550.37L63.7886 549.96L65.2481 549.1L116.73 519.18L118.199 518.32L118.909 518.73Z" fill="white"/>
</g>
<g opacity="0.8">
<line x1="540" y1="66" x2="540" y2="217" stroke="#9E3F00" stroke-width="2" stroke-linecap="round" stroke-dasharray="0.2 10"/>
<circle cx="539" cy="230" r="3" fill="#9E3F00"/>
</g>
<path d="M538.812 94.2706L508.822 76.9501V42.3105L538.812 59.6311V94.2706Z" fill="url(#paint0_linear_333_51599)"/>
<path d="M568.801 76.9501L538.812 94.2706V59.6311L568.801 42.3105V76.9501Z" fill="url(#paint1_linear_333_51599)"/>
<path d="M538.812 59.6395L508.822 42.3205L538.812 25L568.8 42.3205L538.812 59.6395Z" fill="url(#paint2_linear_333_51599)"/>
<path d="M422.913 470.669L353.314 430.472V350.082L422.913 390.279V470.669Z" fill="url(#paint3_linear_333_51599)"/>
<path d="M572.705 379.761L422.913 470.668V390.278L572.705 299.371V379.761Z" fill="url(#paint4_linear_333_51599)"/>
<path d="M422.913 390.3L353.314 350.106L503.067 259.182L572.662 299.378L422.913 390.3Z" fill="url(#paint5_linear_333_51599)"/>
<path d="M503.202 325.242L353.436 237.568V157.182L503.202 244.856V325.242Z" fill="url(#paint6_linear_333_51599)"/>
<path d="M572.801 285.046L503.203 325.243V244.857L572.801 204.66V285.046Z" fill="url(#paint7_linear_333_51599)"/>
<path d="M503.206 244.878L353.3 157.197L422.894 117L572.801 204.681L503.206 244.878Z" fill="url(#paint8_linear_333_51599)"/>
<path d="M342.501 419.762L272.906 379.566L272.906 204.689L342.501 244.886L342.501 419.762Z" fill="url(#paint9_linear_333_51599)"/>
<path fill-rule="evenodd" clip-rule="evenodd" d="M412.099 314.598L353.636 350.095L353.614 350.083L353.614 350.108L353.614 413.344L342.501 419.762V244.886L412.099 204.689V314.598Z" fill="url(#paint10_linear_333_51599)"/>
<path d="M342.504 244.907L272.906 204.71L342.501 164.514L412.099 204.71L342.504 244.907Z" fill="url(#paint11_linear_333_51599)"/>
<g filter="url(#filter0_d_333_51599)">
<path d="M422.913 372.426L353.314 332.23V251.84L422.913 292.037V372.426Z" fill="url(#paint12_linear_333_51599)"/>
<path d="M492.511 332.23L422.913 372.426V292.037L492.511 251.84V332.23Z" fill="url(#paint13_linear_333_51599)"/>
<path d="M422.913 292.058L353.314 251.865L422.913 211.668L492.507 251.865L422.913 292.058Z" fill="url(#paint14_linear_333_51599)"/>
</g>
<g style="mix-blend-mode:screen">
<path d="M381.956 323.161L374.173 318.529L380.388 292.025L388.168 296.655L381.956 323.161Z" fill="#F2A671"/>
<mask id="mask0_333_51599" style="mask-type:luminance" maskUnits="userSpaceOnUse" x="386" y="293" width="17" height="38">
<path d="M402.861 305.403L398.579 293.207L390.686 298.155L392.848 299.442L386.607 325.933L394.385 330.559L400.623 304.07L402.861 305.403Z" fill="white"/>
</mask>
<g mask="url(#mask0_333_51599)">
<path d="M404.981 306.655L384.549 294.49L384.436 292.51L404.868 304.674L404.981 306.655Z" fill="#F2A671"/>
<path d="M404.981 310.507L384.549 298.342L384.436 296.361L404.868 308.526L404.981 310.507Z" fill="#F2A671"/>
<path d="M404.981 314.358L384.549 302.193L384.436 300.217L404.868 312.381L404.981 314.358Z" fill="#F2A671"/>
<path d="M404.981 318.214L384.549 306.049L384.436 304.068L404.868 316.233L404.981 318.214Z" fill="#F2A671"/>
<path d="M404.981 322.063L384.549 309.899L384.436 307.918L404.868 320.083L404.981 322.063Z" fill="#F2A671"/>
<path d="M404.981 325.915L384.549 313.75L384.436 311.77L404.868 323.934L404.981 325.915Z" fill="#F2A671"/>
<path d="M404.981 329.77L384.549 317.606L384.436 315.625L404.868 327.79L404.981 329.77Z" fill="#F2A671"/>
<path d="M404.981 333.622L384.549 321.457L384.436 319.477L404.868 331.641L404.981 333.622Z" fill="#F2A671"/>
<path d="M404.981 337.473L384.549 325.309L384.436 323.328L404.868 335.493L404.981 337.473Z" fill="#F2A671"/>
<path d="M404.981 302.794L384.549 290.629L384.436 288.648L404.868 300.813L404.981 302.794Z" fill="#F2A671"/>
<path d="M404.981 298.93L384.549 286.765L384.436 284.789L404.868 296.954L404.981 298.93Z" fill="#F2A671"/>
</g>
<path d="M386.605 325.929L394.382 330.559L388.168 296.657L380.39 292.027L386.605 325.929Z" fill="#FFD5B7"/>
</g>
<g style="mix-blend-mode:color">
<path d="M381.956 323.161L374.173 318.529L380.388 292.025L388.168 296.655L381.956 323.161Z" fill="#F2A671"/>
<mask id="mask1_333_51599" style="mask-type:luminance" maskUnits="userSpaceOnUse" x="386" y="293" width="17" height="38">
<path d="M402.861 305.403L398.579 293.207L390.686 298.155L392.848 299.442L386.607 325.933L394.385 330.559L400.623 304.07L402.861 305.403Z" fill="white"/>
</mask>
<g mask="url(#mask1_333_51599)">
<path d="M404.981 306.655L384.549 294.49L384.436 292.51L404.868 304.674L404.981 306.655Z" fill="#F2A671"/>
<path d="M404.981 310.507L384.549 298.342L384.436 296.361L404.868 308.526L404.981 310.507Z" fill="#F2A671"/>
<path d="M404.981 314.358L384.549 302.193L384.436 300.217L404.868 312.381L404.981 314.358Z" fill="#F2A671"/>
<path d="M404.981 318.214L384.549 306.049L384.436 304.068L404.868 316.233L404.981 318.214Z" fill="#F2A671"/>
<path d="M404.981 322.063L384.549 309.899L384.436 307.918L404.868 320.083L404.981 322.063Z" fill="#F2A671"/>
<path d="M404.981 325.915L384.549 313.75L384.436 311.77L404.868 323.934L404.981 325.915Z" fill="#F2A671"/>
<path d="M404.981 329.77L384.549 317.606L384.436 315.625L404.868 327.79L404.981 329.77Z" fill="#F2A671"/>
<path d="M404.981 333.622L384.549 321.457L384.436 319.477L404.868 331.641L404.981 333.622Z" fill="#F2A671"/>
<path d="M404.981 337.473L384.549 325.309L384.436 323.328L404.868 335.493L404.981 337.473Z" fill="#F2A671"/>
<path d="M404.981 302.794L384.549 290.629L384.436 288.648L404.868 300.813L404.981 302.794Z" fill="#F2A671"/>
<path d="M404.981 298.93L384.549 286.765L384.436 284.789L404.868 296.954L404.981 298.93Z" fill="#F2A671"/>
</g>
<path d="M386.605 325.929L394.382 330.559L388.168 296.657L380.39 292.027L386.605 325.929Z" fill="#FFD5B7"/>
</g>
<g opacity="0.8">
<line x1="557.806" y1="440" x2="557.806" y2="459" stroke="#9E3F00" stroke-width="2" stroke-linecap="round" stroke-dasharray="0.2 10"/>
<ellipse cx="557.806" cy="472" rx="2.99895" ry="3" fill="#9E3F00"/>
</g>
<g filter="url(#filter1_d_333_51599)">
<path fill-rule="evenodd" clip-rule="evenodd" d="M577.814 442.312C579.147 443.066 580.798 442.103 580.798 440.571L580.798 370.345C580.798 369.624 580.41 368.959 579.783 368.604L542.797 347.688C541.464 346.934 539.812 347.897 539.812 349.429L539.813 419.655C539.813 420.376 540.2 421.041 540.828 421.396L577.814 442.312ZM549.149 370.278C550.336 370.984 551.298 370.437 551.298 369.056C551.298 367.676 550.336 365.984 549.149 365.278C547.963 364.572 547.001 365.119 547.001 366.5C547.001 367.881 547.963 369.572 549.149 370.278ZM554.736 368.602C554.261 368.319 553.876 368.538 553.876 369.09C553.876 369.643 554.261 370.319 554.736 370.602L569.345 379.294C569.82 379.576 570.205 379.357 570.205 378.805C570.205 378.253 569.82 377.576 569.345 377.294L554.736 368.602ZM553.876 373.09C553.876 372.538 554.261 372.319 554.736 372.602L561.611 376.692C562.085 376.974 562.47 377.651 562.47 378.203C562.47 378.756 562.085 378.974 561.611 378.692L554.736 374.602C554.261 374.319 553.876 373.643 553.876 373.09ZM551.298 387.056C551.298 388.437 550.336 388.984 549.149 388.278C547.963 387.572 547.001 385.881 547.001 384.5C547.001 383.119 547.963 382.572 549.149 383.278C550.336 383.984 551.298 385.676 551.298 387.056ZM553.876 387.09C553.876 386.538 554.261 386.319 554.736 386.602L569.345 395.294C569.82 395.576 570.205 396.253 570.205 396.805C570.205 397.357 569.82 397.576 569.345 397.294L554.736 388.602C554.261 388.319 553.876 387.643 553.876 387.09ZM554.736 390.602C554.261 390.319 553.876 390.538 553.876 391.09C553.876 391.643 554.261 392.319 554.736 392.602L561.611 396.692C562.085 396.974 562.47 396.756 562.47 396.203C562.47 395.651 562.085 394.974 561.611 394.692L554.736 390.602ZM549.149 406.278C550.336 406.984 551.298 406.437 551.298 405.056C551.298 403.676 550.336 401.984 549.149 401.278C547.963 400.572 547.001 401.119 547.001 402.5C547.001 403.881 547.963 405.572 549.149 406.278ZM554.736 404.602C554.261 404.319 553.876 404.538 553.876 405.09C553.876 405.643 554.261 406.319 554.736 406.602L569.345 415.294C569.82 415.576 570.205 415.357 570.205 414.805C570.205 414.253 569.82 413.576 569.345 413.294L554.736 404.602ZM553.876 409.09C553.876 408.538 554.261 408.319 554.736 408.602L561.611 412.692C562.085 412.974 562.47 413.651 562.47 414.203C562.47 414.756 562.085 414.974 561.611 414.692L554.736 410.602C554.261 410.319 553.876 409.643 553.876 409.09Z" fill="url(#paint15_linear_333_51599)"/>
</g>
<path d="M204.929 247L135.954 206.999V127L204.929 167.001V247Z" fill="url(#paint16_linear_333_51599)"/>
<g style="mix-blend-mode:hard-light" opacity="0.7" filter="url(#filter2_i_333_51599)">
<path d="M189.883 200.619L182.892 204.658L180.071 202.93L187.042 198.879L180.2 186.32L183.001 188.037L189.883 200.619Z" fill="#292E42"/>
<path d="M169.259 197.142L175.915 183.501L178.056 184.816L171.4 198.457L169.259 197.142Z" fill="#292E42"/>
<path d="M151.152 177.905L158.182 173.848L161.003 175.577L154.012 179.658L160.875 192.185L158.054 190.457L151.152 177.905Z" fill="#292E42"/>
</g>
<path d="M194.433 177.289V256.132L126.457 216.711V137.868L194.433 177.289Z" stroke="white"/>
<g opacity="0.8">
<line x1="167" y1="255" x2="167" y2="341" stroke="#9E3F00" stroke-width="2" stroke-linecap="round" stroke-dasharray="0.2 10"/>
<circle cx="166" cy="354" r="3" fill="#9E3F00"/>
</g>
<path opacity="0.5" d="M655.931 419.597L697.368 443.521L656.209 467.452L614.782 443.518L655.931 419.597Z" stroke="#FF8F4C"/>
<path opacity="0.3" d="M655.931 402.588L697.368 426.511L656.209 450.442L614.782 426.508L655.931 402.588Z" stroke="#FF8F4C"/>
<path opacity="0.1" d="M655.931 385.578L697.368 409.502L656.209 433.432L614.782 409.499L655.931 385.578Z" stroke="#FF8F4C"/>
<path opacity="0.5" d="M268.127 182.427L292.614 196.565L268.291 210.707L243.81 196.563L268.127 182.427Z" stroke="#FF8F4C" stroke-width="0.590946"/>
<path opacity="0.3" d="M268.127 172.377L292.614 186.514L268.291 200.656L243.81 186.513L268.127 172.377Z" stroke="#FF8F4C" stroke-width="0.590946"/>
<path opacity="0.1" d="M268.127 162.324L292.614 176.461L268.291 190.603L243.81 176.46L268.127 162.324Z" stroke="#FF8F4C" stroke-width="0.590946"/>
<path opacity="0.5" d="M44.1461 428.597L85.583 452.521L44.4243 476.452L2.99719 452.518L44.1461 428.597Z" stroke="#FF8F4C"/>
<path opacity="0.3" d="M44.1461 411.588L85.583 435.511L44.4243 459.442L2.99719 435.508L44.1461 411.588Z" stroke="#FF8F4C"/>
<path opacity="0.1" d="M44.1461 394.578L85.583 418.502L44.4243 442.432L2.99719 418.499L44.1461 394.578Z" stroke="#FF8F4C"/>
<g filter="url(#filter3_d_333_51599)">
<ellipse cx="263.909" cy="313" rx="19.993" ry="20" fill="url(#paint17_radial_333_51599)"/>
</g>
<defs>
<filter id="filter0_d_333_51599" x="353.314" y="204.668" width="159.196" height="180.758" filterUnits="userSpaceOnUse" color-interpolation-filters="sRGB">
<feFlood flood-opacity="0" result="BackgroundImageFix"/>
<feColorMatrix in="SourceAlpha" type="matrix" values="0 0 0 0 0 0 0 0 0 0 0 0 0 0 0 0 0 0 127 0" result="hardAlpha"/>
<feOffset dx="10" dy="3"/>
<feGaussianBlur stdDeviation="5"/>
<feComposite in2="hardAlpha" operator="out"/>
<feColorMatrix type="matrix" values="0 0 0 0 0.0862745 0 0 0 0 0.117647 0 0 0 0 0.196078 0 0 0 0.2 0"/>
<feBlend mode="normal" in2="BackgroundImageFix" result="effect1_dropShadow_333_51599"/>
<feBlend mode="normal" in="SourceGraphic" in2="effect1_dropShadow_333_51599" result="shape"/>
</filter>
<filter id="filter1_d_333_51599" x="491.812" y="323.426" width="136.986" height="191.148" filterUnits="userSpaceOnUse" color-interpolation-filters="sRGB">
<feFlood flood-opacity="0" result="BackgroundImageFix"/>
<feColorMatrix in="SourceAlpha" type="matrix" values="0 0 0 0 0 0 0 0 0 0 0 0 0 0 0 0 0 0 127 0" result="hardAlpha"/>
<feOffset dy="24"/>
<feGaussianBlur stdDeviation="24"/>
<feComposite in2="hardAlpha" operator="out"/>
<feColorMatrix type="matrix" values="0 0 0 0 0.0862745 0 0 0 0 0.117647 0 0 0 0 0.196078 0 0 0 0.2 0"/>
<feBlend mode="normal" in2="BackgroundImageFix" result="effect1_dropShadow_333_51599"/>
<feBlend mode="normal" in="SourceGraphic" in2="effect1_dropShadow_333_51599" result="shape"/>
</filter>
<filter id="filter2_i_333_51599" x="151.152" y="173.848" width="38.731" height="31.8105" filterUnits="userSpaceOnUse" color-interpolation-filters="sRGB">
<feFlood flood-opacity="0" result="BackgroundImageFix"/>
<feBlend mode="normal" in="SourceGraphic" in2="BackgroundImageFix" result="shape"/>
<feColorMatrix in="SourceAlpha" type="matrix" values="0 0 0 0 0 0 0 0 0 0 0 0 0 0 0 0 0 0 127 0" result="hardAlpha"/>
<feOffset dy="1"/>
<feGaussianBlur stdDeviation="0.5"/>
<feComposite in2="hardAlpha" operator="arithmetic" k2="-1" k3="1"/>
<feColorMatrix type="matrix" values="0 0 0 0 0.101528 0 0 0 0 0.173595 0 0 0 0 0.283333 0 0 0 0.4 0"/>
<feBlend mode="normal" in2="shape" result="effect1_innerShadow_333_51599"/>
</filter>
<filter id="filter3_d_333_51599" x="243.916" y="279" width="77.9858" height="76" filterUnits="userSpaceOnUse" color-interpolation-filters="sRGB">
<feFlood flood-opacity="0" result="BackgroundImageFix"/>
<feColorMatrix in="SourceAlpha" type="matrix" values="0 0 0 0 0 0 0 0 0 0 0 0 0 0 0 0 0 0 127 0" result="hardAlpha"/>
<feOffset dx="20" dy="4"/>
<feGaussianBlur stdDeviation="9"/>
<feComposite in2="hardAlpha" operator="out"/>
<feColorMatrix type="matrix" values="0 0 0 0 0.254653 0 0 0 0 0.272371 0 0 0 0 0.316667 0 0 0 0.4 0"/>
<feBlend mode="normal" in2="BackgroundImageFix" result="effect1_dropShadow_333_51599"/>
<feBlend mode="normal" in="SourceGraphic" in2="effect1_dropShadow_333_51599" result="shape"/>
</filter>
<linearGradient id="paint0_linear_333_51599" x1="508.822" y1="43.9176" x2="525.393" y2="69.3622" gradientUnits="userSpaceOnUse">
<stop stop-color="#E5E9F0"/>
<stop offset="1" stop-color="#E2E5EC"/>
</linearGradient>
<linearGradient id="paint1_linear_333_51599" x1="568.836" y1="56.7992" x2="538.826" y2="71.4142" gradientUnits="userSpaceOnUse">
<stop stop-color="#B8BDCC"/>
<stop offset="1" stop-color="#C3C9D8"/>
</linearGradient>
<linearGradient id="paint2_linear_333_51599" x1="508.822" y1="42.2521" x2="566.065" y2="42.2521" gradientUnits="userSpaceOnUse">
<stop stop-color="#D7DEF3"/>
<stop offset="1" stop-color="#DDDEE1"/>
</linearGradient>
<linearGradient id="paint3_linear_333_51599" x1="353.314" y1="356.734" x2="422.967" y2="397.798" gradientUnits="userSpaceOnUse">
<stop stop-color="#C3CEE4"/>
<stop offset="1" stop-color="#C9D0E4"/>
</linearGradient>
<linearGradient id="paint4_linear_333_51599" x1="492.593" y1="383.706" x2="422.945" y2="417.624" gradientUnits="userSpaceOnUse">
<stop stop-color="#D3D9EF"/>
<stop offset="1" stop-color="#D1D8EB"/>
</linearGradient>
<linearGradient id="paint5_linear_333_51599" x1="353.314" y1="349.948" x2="486.161" y2="349.948" gradientUnits="userSpaceOnUse">
<stop stop-color="#EAEFFF"/>
<stop offset="1" stop-color="#FCFDFF"/>
</linearGradient>
<linearGradient id="paint6_linear_333_51599" x1="433.608" y1="211.311" x2="503.258" y2="252.372" gradientUnits="userSpaceOnUse">
<stop stop-color="#C3CEE4"/>
<stop offset="1" stop-color="#C9D0E4"/>
</linearGradient>
<linearGradient id="paint7_linear_333_51599" x1="572.883" y1="238.284" x2="503.236" y2="272.202" gradientUnits="userSpaceOnUse">
<stop stop-color="#D3D9EF"/>
<stop offset="1" stop-color="#D1D8EB"/>
</linearGradient>
<linearGradient id="paint8_linear_333_51599" x1="433.607" y1="204.524" x2="566.454" y2="204.524" gradientUnits="userSpaceOnUse">
<stop stop-color="#EAEFFF"/>
<stop offset="1" stop-color="#FCFDFF"/>
</linearGradient>
<linearGradient id="paint9_linear_333_51599" x1="272.906" y1="211.341" x2="342.556" y2="252.403" gradientUnits="userSpaceOnUse">
<stop stop-color="#C3CEE4"/>
<stop offset="1" stop-color="#C9D0E4"/>
</linearGradient>
<linearGradient id="paint10_linear_333_51599" x1="412.181" y1="238.313" x2="342.535" y2="272.232" gradientUnits="userSpaceOnUse">
<stop stop-color="#D3D9EF"/>
<stop offset="1" stop-color="#D1D8EB"/>
</linearGradient>
<linearGradient id="paint11_linear_333_51599" x1="272.906" y1="204.553" x2="405.753" y2="204.553" gradientUnits="userSpaceOnUse">
<stop stop-color="#EAEFFF"/>
<stop offset="1" stop-color="#FCFDFF"/>
</linearGradient>
<linearGradient id="paint12_linear_333_51599" x1="347.38" y1="303.5" x2="422.919" y2="274.715" gradientUnits="userSpaceOnUse">
<stop stop-color="#FFC061"/>
<stop offset="0.395348" stop-color="#FC8F2D"/>
<stop offset="0.908997" stop-color="#FA6600"/>
</linearGradient>
<linearGradient id="paint13_linear_333_51599" x1="422.913" y1="283.797" x2="502.178" y2="283.797" gradientUnits="userSpaceOnUse">
<stop stop-color="#CB5300"/>
<stop offset="1" stop-color="#E76E00"/>
</linearGradient>
<linearGradient id="paint14_linear_333_51599" x1="353.563" y1="241.431" x2="497.358" y2="241.431" gradientUnits="userSpaceOnUse">
<stop stop-color="#F4A051"/>
<stop offset="1" stop-color="#FFC48B"/>
</linearGradient>
<linearGradient id="paint15_linear_333_51599" x1="560.305" y1="347.426" x2="560.305" y2="442.574" gradientUnits="userSpaceOnUse">
<stop stop-color="#F5F5F5"/>
<stop offset="1" stop-color="#DEDEDE"/>
</linearGradient>
<linearGradient id="paint16_linear_333_51599" x1="135.954" y1="133.62" x2="197.87" y2="246.76" gradientUnits="userSpaceOnUse">
<stop stop-color="#D9DBDF"/>
<stop offset="1" stop-color="#E6E7EB"/>
</linearGradient>
<radialGradient id="paint17_radial_333_51599" cx="0" cy="0" r="1" gradientUnits="userSpaceOnUse" gradientTransform="translate(254.912 316.5) rotate(-27.5449) scale(31.1585 31.1648)">
<stop stop-color="#FFAF78"/>
<stop offset="0.354167" stop-color="#FF6800"/>
<stop offset="0.682292" stop-color="#BC5101"/>
<stop offset="1" stop-color="#9A400D"/>
</radialGradient>
</defs>
</svg>
