<svg width="160" height="112" viewBox="0 0 160 112" fill="none" xmlns="http://www.w3.org/2000/svg">
<path d="M69.776 54.5325H57.6479L67.332 27.3965H79.456L69.776 54.5325Z" fill="#485059"/>
<mask id="mask0_830_2337" style="mask-type:luminance" maskUnits="userSpaceOnUse" x="77" y="18" width="26" height="37">
<path d="M102.352 27.3975L95.6799 18.7295L83.3799 27.3975H86.7479L77.0239 54.5375L89.1439 54.5335L98.8639 27.3975H102.352Z" fill="white"/>
</mask>
<g mask="url(#mask0_830_2337)">
<path d="M105.656 27.385H73.8156L73.6396 25.665H105.48L105.656 27.385Z" fill="#485059"/>
<path d="M105.656 30.846H73.8156L73.6396 29.126H105.48L105.656 30.846Z" fill="#485059"/>
<path d="M105.656 34.3058H73.8156L73.6396 32.5898H105.48L105.656 34.3058Z" fill="#485059"/>
<path d="M105.656 37.7698H73.8156L73.6396 36.0498H105.48L105.656 37.7698Z" fill="#485059"/>
<path d="M105.656 41.2298H73.8156L73.6396 39.5098H105.48L105.656 41.2298Z" fill="#485059"/>
<path d="M105.656 44.6897H73.8156L73.6396 42.9697H105.48L105.656 44.6897Z" fill="#485059"/>
<path d="M105.656 48.1536H73.8156L73.6396 46.4336H105.48L105.656 48.1536Z" fill="#485059"/>
<path d="M105.656 51.6136H73.8156L73.6396 49.8936H105.48L105.656 51.6136Z" fill="#485059"/>
<path d="M105.656 55.0735H73.8156L73.6396 53.3535H105.48L105.656 55.0735Z" fill="#485059"/>
<path d="M105.656 23.9173H73.8156L73.6396 22.1973H105.48L105.656 23.9173Z" fill="#485059"/>
<path d="M105.656 20.4455H73.8156L73.6396 18.7295H105.48L105.656 20.4455Z" fill="#485059"/>
</g>
<path d="M77.0199 54.5325H89.1399L79.4559 27.3965H67.3359L77.0199 54.5325Z" fill="#737C85"/>
<path fill-rule="evenodd" clip-rule="evenodd" d="M91.52 91.9083C91.784 92.0163 92.068 92.0723 92.372 92.0723C92.676 92.0723 92.96 92.0163 93.228 91.9083C93.496 91.7963 93.728 91.6443 93.928 91.4443C94.128 91.2443 94.284 91.0163 94.396 90.7523C94.508 90.4923 94.564 90.2083 94.564 89.9043C94.564 89.6003 94.508 89.3163 94.396 89.0563C94.284 88.7923 94.128 88.5643 93.928 88.3643C93.728 88.1643 93.492 88.0123 93.228 87.9003C92.96 87.7923 92.676 87.7363 92.372 87.7363C92.068 87.7363 91.784 87.7923 91.52 87.9003C91.256 88.0123 91.02 88.1643 90.82 88.3643C90.616 88.5643 90.464 88.7923 90.352 89.0563C90.244 89.3163 90.188 89.6003 90.188 89.9043C90.188 90.2083 90.24 90.4923 90.352 90.7523C90.464 91.0163 90.616 91.2443 90.82 91.4443C91.024 91.6443 91.256 91.7963 91.52 91.9083ZM92.984 91.3683C92.796 91.4483 92.596 91.4883 92.38 91.4883V91.4843C92.16 91.4843 91.956 91.4443 91.768 91.3643C91.58 91.2843 91.416 91.1763 91.276 91.0323C91.136 90.8923 91.028 90.7243 90.948 90.5283C90.872 90.3363 90.832 90.1203 90.832 89.8963C90.832 89.6723 90.868 89.4643 90.948 89.2723C91.028 89.0803 91.136 88.9123 91.276 88.7723C91.416 88.6323 91.58 88.5203 91.768 88.4403C91.956 88.3603 92.164 88.3203 92.38 88.3203C92.596 88.3203 92.8 88.3603 92.984 88.4403C93.168 88.5203 93.332 88.6283 93.472 88.7723C93.612 88.9123 93.72 89.0803 93.8 89.2723C93.88 89.4683 93.92 89.6803 93.92 89.9043C93.92 90.1283 93.88 90.3403 93.8 90.5323C93.72 90.7283 93.612 90.8963 93.472 91.0363C93.332 91.1763 93.172 91.2883 92.984 91.3683ZM48.5039 87.8043V92.0003H49.1359V90.3083H50.4479C50.7199 90.3083 50.9559 90.2563 51.1639 90.1483C51.3719 90.0443 51.5319 89.8963 51.6479 89.7083C51.7679 89.5243 51.8239 89.3043 51.8239 89.0563C51.8239 88.8083 51.7639 88.5923 51.6479 88.4043C51.5319 88.2163 51.3719 88.0723 51.1679 87.9643C50.9639 87.8563 50.7239 87.8043 50.4479 87.8043H48.5039ZM50.3839 89.7763H49.1359V89.7723V88.3523H50.3839C50.6319 88.3523 50.8319 88.4163 50.9759 88.5443C51.1239 88.6723 51.1959 88.8443 51.1959 89.0603C51.1959 89.2763 51.1239 89.4523 50.9759 89.5803C50.8279 89.7123 50.6319 89.7763 50.3839 89.7763ZM57.4719 87.8043V92.0043H60.5199V91.4483H58.1039V87.8043H57.4719ZM65.46 92.0043L67.192 87.8043H67.936L69.652 92.0043H68.968L68.484 90.7723H66.604L66.112 92.0043H65.46ZM66.812 90.2523H68.28L67.548 88.4043L66.812 90.2523ZM75.4839 88.3603V92.0043H75.4879H76.1159V88.3603H77.5919V87.8043H74.0079V88.3603H75.4839ZM82.7159 92.0043V87.8043H85.8239V88.3563H83.3439V89.6483H84.9759V90.1803H83.3439V92.0043H82.7159ZM99.428 92.0043V87.8043H101.332C101.612 87.8043 101.856 87.8563 102.068 87.9603C102.28 88.0643 102.444 88.2083 102.56 88.3963C102.676 88.5843 102.736 88.8003 102.736 89.0483C102.736 89.3243 102.656 89.5603 102.5 89.7603C102.344 89.9603 102.136 90.1043 101.872 90.1923L102.808 92.0043H102.112L101.24 90.2843H100.056V92.0043H99.428ZM100.056 89.7563H101.28C101.528 89.7563 101.728 89.6923 101.876 89.5683C102.028 89.4443 102.1 89.2723 102.1 89.0563C102.1 88.8403 102.024 88.6803 101.876 88.5523C101.724 88.4243 101.528 88.3603 101.28 88.3603H100.056V89.7563ZM107.58 87.8043V92.0043H107.588H108.176V88.5723L109.74 91.7043L111.308 88.5723V92.0043H111.9V87.8043H111.06L109.744 90.4923L108.428 87.8043H107.58Z" fill="#485059"/>
<path d="M34.1556 81.3566H29.5956L23.8356 71.2766V81.3566H19.5156V64.5566H24.0756L29.8356 74.6366V64.5566H34.1556V81.3566Z" fill="#485059"/>
<path d="M78.0475 81.3566H73.7275V67.9166H68.6875V64.5566H83.0875V67.9166H78.0475V81.3566Z" fill="#485059"/>
<path d="M95.7238 77.9966H104.484V81.3566H91.4038V64.5566H95.7238V77.9966Z" fill="#485059"/>
<path d="M111.084 81.3566H106.404L112.764 64.5566H117.564L123.924 81.3566H119.244L118.164 78.3566H112.164L111.084 81.3566ZM113.244 75.2366H117.084L115.164 69.5966L113.244 75.2366Z" fill="#485059"/>
<path d="M125.604 64.5566H135.204C136.772 64.5566 137.924 64.9126 138.66 65.6246C139.396 66.3366 139.764 67.4206 139.764 68.8766C139.764 69.8366 139.556 70.6166 139.14 71.2166C138.724 71.8166 138.212 72.2366 137.604 72.4766C138.9 72.8286 139.78 73.6926 140.244 75.0686C140.404 75.5646 140.484 76.1406 140.484 76.7966C140.484 78.3646 140.116 79.5166 139.38 80.2526C138.644 80.9886 137.492 81.3566 135.924 81.3566H125.604V64.5566ZM135.444 69.3566C135.444 68.3966 134.964 67.9166 134.004 67.9166H129.924V71.2766H134.004C134.964 71.2766 135.444 70.7966 135.444 69.8366V69.3566ZM136.164 76.0766C136.164 75.1166 135.684 74.6366 134.724 74.6366H129.924V77.9966H134.724C135.684 77.9966 136.164 77.5166 136.164 76.5566V76.0766Z" fill="#485059"/>
<path d="M40.8757 74.5166V71.1566V70.8766V67.9166H49.8757V64.5566H36.5557V81.3566H49.8757V77.9966H40.8757V76.0646V74.5166Z" fill="#485059"/>
<path d="M56.2235 64.5566H51.4475L55.6875 71.1566H40.8755V74.5166H55.7115L51.4475 81.1566H56.2235L61.5555 72.8566L56.2235 64.5566Z" fill="#737C85"/>
<path d="M62.3919 71.5606L66.8919 64.5566H62.1159L60.0039 67.8446L62.3919 71.5606Z" fill="#485059"/>
<path d="M62.3919 74.1562L60.0039 77.8722L62.1159 81.1562H66.8919L62.3919 74.1562Z" fill="#485059"/>
</svg>
