<svg width="79" height="36" viewBox="0 0 79 36" fill="none" xmlns="http://www.w3.org/2000/svg">
<g clip-path="url(#clip0_563_59206)">
<path d="M20.7039 26.9454C20.5336 27.7563 20.5331 28.5807 20.4965 29.4034C20.467 30.0652 20.3856 30.7246 20.3528 31.3864C20.3273 31.8994 20.4523 32.0604 20.9442 32.2301C21.4043 32.3889 21.8693 32.5333 22.3304 32.6889C22.4161 32.7178 22.4941 32.7694 22.5756 32.8104C22.5695 32.8304 22.5633 32.8504 22.5573 32.8705C22.4786 32.8751 22.4 32.8837 22.3213 32.8838C21.6663 32.8849 21.0113 32.8865 20.3564 32.8838C19.6039 32.8807 19.2645 32.4683 19.192 31.7225C19.1408 31.1961 19.0855 30.67 19.0417 30.143C19.0147 29.8194 19.0115 29.4937 18.9871 29.1698C18.9656 28.8859 18.9292 28.6032 18.8994 28.32C18.862 28.3214 18.8246 28.323 18.7872 28.3244C18.7673 29.232 18.7443 30.1395 18.7289 31.047C18.7212 31.5 18.7273 31.9532 18.7276 32.4063C18.7279 32.8542 18.8247 33.0074 19.248 33.1493C19.6768 33.2931 20.1131 33.415 20.546 33.5465C20.4751 33.5785 20.4022 33.6069 20.3336 33.6433C20.2518 33.6866 20.1736 33.7365 20.0939 33.7835C19.5111 33.8873 18.9263 33.8894 18.3564 33.7329C17.9361 33.6175 17.7187 33.2644 17.6414 32.8698C17.5496 32.4022 17.5277 31.9203 17.4845 31.4437C17.4271 30.8087 17.3746 30.1731 17.3279 29.5372C17.3126 29.3286 17.3297 29.1177 17.316 28.9089C17.3116 28.8423 17.2559 28.7793 17.2236 28.7146C17.1925 28.779 17.1346 28.8432 17.1341 28.9078C17.1278 29.6882 17.13 30.4687 17.13 31.2491C17.13 31.8114 17.1468 32.3743 17.1259 32.9358C17.0976 33.6998 17.3122 34.0085 18.1491 34.2759C18.6732 34.4435 19.2083 34.5767 19.7393 34.7223C19.8579 34.7549 19.9882 34.7568 20.0974 34.8069C20.1632 34.8372 20.1986 34.9333 20.2476 34.9999H17.6768C17.6099 34.9817 17.5439 34.9571 17.4758 34.9464C16.8325 34.8452 16.2396 34.642 16.0133 33.9578C15.8564 33.4833 15.7742 32.9838 15.6655 32.4939C15.5814 32.1152 15.5081 31.7341 15.43 31.354C15.3482 31.4113 15.3203 31.4618 15.3087 31.5158C15.1568 32.2188 15.005 32.9218 14.8577 33.6258C14.7367 34.2035 14.4304 34.6258 13.8474 34.7937C13.5339 34.884 13.2082 34.9324 12.8881 34.9997H10.519C10.62 34.9168 10.7097 34.8087 10.8248 34.7572C10.9647 34.6946 11.1277 34.6861 11.2775 34.643C11.8336 34.4826 12.391 34.3259 12.9426 34.1508C13.2246 34.0614 13.4567 33.8876 13.5283 33.5809C13.5714 33.3963 13.5896 33.2022 13.5907 33.0123C13.5937 32.5015 13.5815 31.9906 13.5753 31.4798V28.5643C13.4979 28.6494 13.4597 28.7439 13.444 28.8419C13.423 28.9729 13.4156 29.1064 13.4089 29.2392C13.3788 29.8366 13.351 30.4342 13.3225 31.0317C13.262 31.584 13.1979 32.1358 13.1417 32.6885C13.0761 33.3331 12.711 33.7377 12.0651 33.7833C11.5533 33.8194 11.0366 33.7847 10.522 33.7814C10.4376 33.685 10.3532 33.5886 10.2688 33.4922C10.3243 33.4748 10.3791 33.4544 10.4356 33.4405C10.7868 33.3542 11.1449 33.2896 11.4883 33.1788C11.9055 33.0443 12.0405 32.8277 12.0304 32.3889C12.0124 31.6145 11.9887 30.8403 11.9673 30.066V27.3921L11.8714 27.3855C11.8581 27.4662 11.8385 27.5464 11.8325 27.6277C11.7967 28.1087 11.7587 28.5896 11.7324 29.0712C11.7124 29.4361 11.7088 29.802 11.6979 30.1674C11.6597 30.6124 11.6272 31.0578 11.5822 31.502C11.4973 32.3402 11.3367 32.7044 10.6683 32.8576C10.4686 32.9035 10.2597 32.9316 10.0552 32.9304C9.6054 32.9277 9.1554 32.9074 8.70622 32.8812C8.50917 32.8697 8.31396 32.8261 8.11792 32.7971C8.71291 32.5639 9.30662 32.383 9.89272 32.1803C10.2524 32.056 10.3775 31.8702 10.3654 31.5032C10.3413 30.7794 10.3042 30.0559 10.27 29.3324C10.2416 28.7359 10.2096 28.1397 10.1791 27.5434C10.1845 27.5394 10.1948 27.535 10.1945 27.5313C10.1936 27.5196 10.1889 27.5083 10.1856 27.4968L10.1823 27.3912C10.1769 27.1949 10.1889 26.9963 10.1628 26.8028C10.092 26.2774 10.0051 25.7542 9.92452 25.2302C9.92242 25.1299 9.92031 25.0296 9.9182 24.9293C9.91408 24.7433 9.90995 24.5572 9.90583 24.3712C9.87109 23.5991 9.83636 22.827 9.80162 22.0549C9.78879 21.808 9.77266 21.5613 9.76414 21.3143C9.75717 21.1142 9.76414 20.9136 9.75653 20.7136C9.73041 20.035 9.70053 19.3566 9.67203 18.6781C10.0387 18.7374 10.4042 18.8349 10.7726 18.8468C11.2694 18.8628 11.787 18.8907 12.2627 18.7761C13.4071 18.5006 14.1692 17.7359 14.6205 16.6661C14.8343 16.1592 14.927 15.6132 14.841 15.0697C14.6844 14.0802 14.249 13.2324 13.4385 12.6056C12.6413 11.9891 11.7398 11.7577 10.751 11.9198C10.3512 11.9853 9.96366 12.1264 9.57057 12.2331C9.58679 11.8589 9.55682 11.4758 9.62767 11.1122C9.87705 9.83245 10.4444 8.71398 11.4232 7.82797C12.5296 6.82646 13.8129 6.23716 15.3226 6.2477C15.7811 6.25091 16.2406 6.36154 16.6967 6.44001C17.6944 6.6116 18.5786 7.03591 19.3234 7.71724C20.6607 8.94048 21.2984 10.4701 21.2568 12.2817C20.7157 12.1476 20.1804 11.9373 19.6323 11.8957C18.579 11.8156 17.6765 12.2073 16.9467 12.9852C16.3851 13.5839 16.0002 14.2678 15.9691 15.0987C15.9231 16.3285 16.2624 17.4123 17.2767 18.2021C17.8939 18.6827 18.5915 18.9557 19.378 18.981C19.9814 19.0004 20.5558 18.8701 21.1071 18.6298C21.0896 19.0102 21.0706 19.3906 21.0552 19.7712C21.0498 19.9046 21.0574 20.0384 21.0515 20.1717C21.0247 20.7656 20.9952 21.3593 20.9666 21.953C20.9617 22.0278 20.9568 22.1026 20.952 22.1774C20.9054 22.9092 20.8588 23.6409 20.8122 24.3728C20.7846 24.6086 20.6478 24.8497 20.8457 25.0747C20.8805 25.2099 20.9154 25.3452 20.9503 25.4804C20.7602 25.596 20.6907 25.7647 20.6989 25.9854C20.7107 26.305 20.7035 26.6253 20.7044 26.9454H20.7039ZM13.4518 21.8513C13.4116 22.6067 14.049 23.5929 14.8149 23.9079C15.0028 23.9851 15.2154 24.0737 15.4078 24.0567C16.7305 23.9404 17.3549 22.7591 17.3216 21.853C17.357 21.6661 17.3963 21.4797 17.4263 21.292C17.4512 21.1369 17.4652 20.98 17.4852 20.8144C17.0498 21.0582 16.6735 21.3159 16.2609 21.4847C15.9462 21.6135 15.5808 21.7008 15.2462 21.6791C14.7707 21.6482 14.3376 21.4193 13.9417 21.1434C13.7386 21.0018 13.5322 20.8647 13.2742 20.6896C13.3398 21.1182 13.3958 21.4847 13.4518 21.8512V21.8513ZM13.0637 8.25026C12.516 8.19563 12.2164 8.64679 12.2292 9.03462C12.2491 9.63776 12.5896 9.83154 13.0131 9.85729C13.4591 9.88443 13.8471 9.47992 13.8464 9.03095C13.8456 8.55385 13.5425 8.25154 13.0637 8.25035V8.25026Z" fill="#A6ABB1"/>
<path d="M2.04619 16.3167C2.0307 16.3164 2.01531 16.315 2 16.3124V11.4767C2.01595 11.4759 2.03189 11.475 2.04793 11.4741C2.04738 13.0883 2.04683 14.7025 2.04628 16.3167H2.04619Z" fill="#C5EDF7"/>
<path d="M62.0903 20.0005C61.9598 20.052 61.8231 20.0917 61.6998 20.1568C61.0294 20.5114 60.3305 20.7647 59.5632 20.7967C59.3822 20.8042 59.2016 20.8448 59.0212 20.8432C57.6923 20.8314 56.5402 20.3654 55.5277 19.5093C54.5283 18.6643 53.9298 17.5864 53.6845 16.3243C53.5456 15.6101 53.5666 14.876 53.7329 14.1551C54.0089 12.9578 54.6342 11.9694 55.5613 11.1816C56.3024 10.5517 57.1639 10.1593 58.1365 10.0055C59.4374 9.79983 60.674 9.98765 61.8195 10.6207C63.0735 11.3136 63.9211 12.3701 64.3445 13.7406C64.4639 14.1272 64.5234 14.5411 64.5485 14.9462C64.5929 15.6622 64.5886 16.3811 64.607 17.0987C64.6187 17.5491 64.6479 17.9995 64.6458 18.4499C64.6422 19.236 64.6426 20.0232 64.6016 20.8079C64.5333 22.1146 64.123 23.2886 63.2217 24.2771C62.4725 25.0987 61.5625 25.6102 60.5106 25.9558C59.8188 26.1831 59.1285 26.2273 58.4371 26.1659C57.9636 26.1238 57.4961 25.9271 57.044 25.7528C56.1974 25.4263 55.4809 24.8947 54.8985 24.205C54.5055 23.7398 54.1632 23.2299 54.0241 22.6178C53.9481 22.2827 54.2005 21.795 54.5696 21.5491C55.1762 21.145 55.8062 21.385 56.1845 21.8383C56.5013 22.2179 56.7922 22.6248 57.1459 22.9666C57.5956 23.4011 58.1568 23.6356 58.7874 23.7221C59.6806 23.8445 60.4413 23.5506 61.101 22.995C61.6463 22.5358 62.0224 21.9502 62.0859 21.2121C62.1186 20.8326 62.1345 20.4516 62.1581 20.0713C62.1354 20.0477 62.1128 20.0241 62.0901 20.0005H62.0903ZM59.0082 12.3329C57.3528 12.3438 55.9962 13.7445 56.0009 15.371C56.0057 17.0234 57.3346 18.4291 59.1206 18.4205C60.6046 18.4133 62.3518 17.2025 62.1382 14.9931C62.0077 13.6444 60.7945 12.3201 59.0082 12.3329Z" fill="#A6ABB1"/>
<path d="M40.8752 9.94557C42.2027 9.93347 43.3782 10.3548 44.3838 11.2027C45.2027 11.8931 45.7848 12.7623 46.0531 13.8098C46.1582 14.2195 46.2174 14.6455 46.251 15.0678C46.2841 15.485 46.254 15.9071 46.2591 16.3269C46.2715 17.3635 46.3017 18.4002 46.2963 19.4366C46.2943 19.8156 46.2636 20.2083 45.9373 20.4941C45.5438 20.8387 44.6022 21.0215 44.2237 20.3627C44.0228 20.013 43.8364 19.9963 43.4772 20.1922C42.526 20.7109 41.5003 20.9246 40.4342 20.835C39.3213 20.7415 38.3097 20.3293 37.4202 19.6403C36.4195 18.8654 35.7832 17.8468 35.4868 16.6308C35.3193 15.9435 35.3096 15.229 35.4336 14.5286C35.6473 13.3201 36.2088 12.2812 37.1011 11.4439C37.9378 10.6588 38.9371 10.1713 40.0828 10.0123C40.345 9.97591 40.6109 9.96711 40.8753 9.94566L40.8752 9.94557ZM40.8777 12.3831C39.1095 12.3097 37.7524 13.8771 37.7564 15.4573C37.7606 17.0942 39.1105 18.3876 40.7771 18.4213C42.5319 18.4567 43.9992 17.2563 43.8908 15.1957C43.8175 13.8012 42.6437 12.3074 40.8777 12.3831Z" fill="#A6ABB1"/>
<path d="M76.5534 15.5012C76.5521 18.2387 74.0964 21.0228 70.6786 20.8334C68.0267 20.6864 65.4566 18.4711 65.526 15.2286C65.5879 12.3421 67.945 10.0614 70.7047 9.91373C74.1448 9.72967 76.6267 12.5813 76.5533 15.5011L76.5534 15.5012ZM70.9711 12.3327C69.2307 12.3843 67.9991 13.7008 67.9417 15.2722C67.8772 17.0352 69.3751 18.4326 70.9259 18.4205C72.8511 18.4056 74.122 17.0478 74.1142 15.3738C74.106 13.6193 72.7751 12.3708 70.9711 12.3326V12.3327Z" fill="#A6ABB1"/>
<path d="M2.04614 16.3164C2.04669 14.7022 2.04733 13.088 2.04779 11.4739C2.12817 11.0725 2.36683 10.9123 2.77238 10.9877C3.05246 11.0397 3.13485 10.99 3.20221 10.7156C3.62518 8.99382 4.35013 7.41217 5.42454 5.99928C6.42701 4.68098 7.66703 3.63337 9.11703 2.8315C10.2456 2.20746 11.4346 1.72476 12.6889 1.44225C13.4832 1.26333 14.3022 1.16387 15.1157 1.10603C17.1827 0.959189 19.1162 1.48249 20.9425 2.41269C22.4014 3.15571 23.7237 4.10048 24.8332 5.313C26.1286 6.72864 27.0156 8.37418 27.5072 10.23C27.6194 10.6534 27.802 10.989 28.3071 11.0359C28.5314 11.0568 28.6609 11.3016 28.6627 11.6319C28.6672 12.4375 28.6658 13.2431 28.6657 14.0487C28.6657 14.72 28.6651 15.3913 28.6633 16.0627C28.6618 16.5823 28.5175 16.7235 27.9974 16.7184C27.764 16.7161 27.5889 16.8697 27.5094 17.1466C27.1343 18.4541 26.5632 19.671 25.791 20.7896C24.7771 22.2584 23.4847 23.4355 21.9674 24.3692C21.6608 24.5579 21.3434 24.7291 21.0342 24.9139C20.9642 24.9557 20.9081 25.0205 20.8455 25.0746C20.6475 24.8495 20.7842 24.6084 20.8118 24.3726C20.8681 24.3591 20.9287 24.3548 20.9799 24.3308C22.4308 23.6488 23.6423 22.6587 24.6609 21.432C25.4671 20.4611 26.1292 19.3984 26.6236 18.2328C27.1548 16.9806 27.4464 15.6723 27.496 14.3193C27.5211 13.6373 27.4628 12.9493 27.4022 12.2675C27.288 10.9824 26.9306 9.75599 26.3853 8.59068C25.6622 7.04506 24.6299 5.73162 23.3415 4.60948C22.3738 3.76674 21.3219 3.07046 20.1447 2.55495C18.7624 1.94961 17.3137 1.66114 15.8144 1.60816C15.406 1.59377 14.9943 1.6231 14.5861 1.65647C14.0794 1.6979 13.5685 1.73154 13.0704 1.82641C11.763 2.07546 10.5228 2.5148 9.36356 3.18284C8.04656 3.94172 6.93603 4.93929 5.96601 6.0936C5.23583 6.96238 4.65276 7.92823 4.20514 8.9764C3.70143 10.1562 3.39633 11.3877 3.32374 12.6602C3.26472 13.6934 3.28635 14.7316 3.45416 15.764C3.70061 17.2802 4.22475 18.6845 5.04053 19.983C5.79087 21.1773 6.74192 22.1959 7.81688 23.0989C8.4456 23.6272 9.11043 24.1093 9.90567 24.3706C9.9098 24.5567 9.91392 24.7427 9.91805 24.9288C8.46329 24.2618 7.21364 23.3158 6.14271 22.1338C4.84119 20.6973 3.86439 19.0742 3.3571 17.1894C3.23768 16.7459 3.12202 16.6703 2.65791 16.7532C2.33576 16.8107 2.1191 16.6557 2.04623 16.316L2.04614 16.3164Z" fill="#D3D8DE"/>
<path d="M47.2662 17.2504C47.2662 16.6715 47.2772 16.0924 47.2639 15.5137C47.2351 14.2556 47.6281 13.131 48.3603 12.1279C49.1978 10.9805 50.34 10.2891 51.7331 10.0235C52.2367 9.9274 52.745 9.90678 53.2495 10.0608C53.9927 10.2875 54.1605 11.2425 53.7536 11.7744C53.4395 12.185 52.9979 12.3614 52.5146 12.3754C51.1457 12.4152 50.0751 13.3807 49.7927 14.677C49.7215 15.0039 49.7014 15.3467 49.6986 15.6826C49.6881 16.9417 49.7071 18.2012 49.6872 19.4601C49.6806 19.8848 49.584 20.2987 49.2112 20.5934C48.6525 21.0349 47.6947 20.921 47.4272 20.156C47.3369 19.898 47.2891 19.6142 47.2813 19.3405C47.2612 18.6443 47.2746 17.9471 47.2746 17.2504C47.2718 17.2504 47.2691 17.2504 47.2663 17.2504L47.2662 17.2504Z" fill="#A6ABB1"/>
<path d="M20.7039 26.9454C20.703 26.6254 20.7102 26.3051 20.6984 25.9854C20.6902 25.7647 20.7598 25.5961 20.9498 25.4805C21.2735 26.1905 21.9128 26.403 22.6059 26.5401C22.8724 26.5928 23.1332 26.6745 23.3942 26.7663C22.5029 26.9475 21.6267 27.2954 20.7038 26.9453L20.7039 26.9454Z" fill="#A6ABB1"/>
<path d="M20.094 33.7834C20.1737 33.7364 20.2519 33.6864 20.3337 33.6432C20.4023 33.6069 20.4751 33.5784 20.5461 33.5464C20.8666 33.5107 21.1712 33.5386 21.4654 33.7834H20.094Z" fill="#A6ABB1"/>
<path d="M9.90556 24.3712C9.11031 24.1098 8.44548 23.6277 7.81676 23.0995C6.74189 22.1964 5.79075 21.1778 5.04041 19.9836C4.22464 18.6851 3.70049 17.2808 3.45404 15.7645C3.28633 14.7321 3.2647 13.6939 3.32363 12.6607C3.39631 11.3883 3.70132 10.1568 4.20502 8.97697C4.65255 7.9288 5.23572 6.96295 5.96589 6.09417C6.93601 4.93986 8.04644 3.94229 9.36345 3.18341C10.5226 2.51546 11.7629 2.07603 13.0703 1.82698C13.5683 1.73211 14.0792 1.69847 14.5859 1.65704C14.9941 1.62367 15.4057 1.59434 15.8143 1.60873C17.3136 1.66162 18.7622 1.95018 20.1446 2.55552C21.3217 3.07103 22.3737 3.7673 23.3413 4.61005C24.6298 5.73219 25.6621 7.04563 26.3852 8.59125C26.9304 9.75656 27.2879 10.9829 27.4021 12.268C27.4627 12.9498 27.5209 13.6378 27.4959 14.3199C27.4463 15.6729 27.1547 16.9811 26.6235 18.2334C26.1291 19.399 25.4669 20.4617 24.6607 21.4326C23.6421 22.6592 22.4307 23.6493 20.9798 24.3313C20.9286 24.3555 20.868 24.3597 20.8117 24.3731C20.8584 23.6414 20.9049 22.9097 20.9516 22.1778C20.9563 22.103 20.9613 22.0282 20.9661 21.9534C21.1506 21.8575 21.3673 21.7961 21.5137 21.6596C22.0007 21.2053 22.4855 20.7446 22.9289 20.2487C23.7747 19.3025 24.3883 18.2112 24.7891 17.0088C25.1832 15.8269 25.3511 14.6171 25.2478 13.363C25.1595 12.2901 24.9564 11.2512 24.5829 10.2438C24.0237 8.73507 23.1075 7.47507 21.8819 6.44368C21.0598 5.75181 20.1561 5.18396 19.1617 4.76038C18.1112 4.31297 17.0141 4.0807 15.8812 4.02662C14.7964 3.97483 13.7352 4.16191 12.688 4.43214C12.5027 4.47989 12.3176 4.52829 12.1325 4.57632C12.1152 4.4952 12.0964 4.41445 12.0811 4.33296C12.0282 4.0499 11.7376 3.81378 11.48 3.84577C11.1403 3.88793 11.0036 4.03762 11.0295 4.405C11.0418 4.58146 11.1245 4.75305 11.1754 4.92684C10.9907 4.99467 10.8061 5.0625 10.6214 5.13024C10.2243 4.86359 10.1453 4.86799 9.74224 5.12456C8.90667 5.65639 8.14735 6.27291 7.48664 7.01722C6.95049 7.62118 6.49215 8.27401 6.10016 8.97569C5.27348 10.4556 4.96187 12.0647 4.92723 13.7391C4.92118 14.0301 4.94583 14.323 4.97635 14.613C5.02758 15.1005 5.06443 15.5926 5.16139 16.0718C5.43066 17.4035 6.02675 18.5925 6.81164 19.6937C7.07413 20.062 7.23231 20.1259 7.64529 19.9893C7.71054 20.1131 7.75087 20.2616 7.84527 20.3564C8.2817 20.7946 8.72474 21.2273 9.18345 21.642C9.36528 21.8064 9.59395 21.919 9.80126 22.0551C9.836 22.8272 9.87073 23.5993 9.90547 24.3714L9.90556 24.3712Z" fill="#F5F6F7"/>
<path d="M10.6214 5.12974C10.8061 5.06191 10.9907 4.99408 11.1753 4.92634C11.3775 5.02094 11.5789 5.06768 11.7694 4.90251C11.8924 4.7959 12.0116 4.6849 12.1325 4.57591C12.3177 4.52779 12.5028 4.47948 12.688 4.43173C13.7353 4.1615 14.7964 3.97442 15.8813 4.02621C17.0142 4.08029 18.1112 4.31256 19.1617 4.75997C20.1561 5.18355 21.0599 5.7514 21.882 6.44327C23.1076 7.47466 24.0238 8.73466 24.583 10.2433C24.9565 11.2508 25.1596 12.2897 25.2479 13.3626C25.3512 14.6167 25.1833 15.8264 24.7892 17.0084C24.3883 18.2108 23.7748 19.3021 22.929 20.2483C22.4856 20.7443 22.0008 21.2049 21.5137 21.6591C21.3673 21.7957 21.1507 21.8572 20.9662 21.953C20.9947 21.3592 21.0243 20.7655 21.0511 20.1716C21.0571 20.0384 21.0494 19.9044 21.0548 19.7712C21.0702 19.3907 21.0892 19.0103 21.1067 18.6298C22.0222 18.0627 22.7452 17.3375 22.9492 16.2347C23.1663 15.0619 22.9879 13.9713 22.1315 13.0733C21.8607 12.7894 21.5491 12.5444 21.2563 12.2816C21.2979 10.4699 20.6602 8.94035 19.3229 7.71711C18.5781 7.03578 17.6939 6.61147 16.6962 6.43988C16.2401 6.36141 15.7808 6.25078 15.3221 6.24757C13.8124 6.23694 12.5291 6.82633 11.4227 7.82784C10.4439 8.71385 9.87657 9.83233 9.62719 11.112C9.55635 11.4756 9.58632 11.8588 9.5701 12.233C9.47964 12.3057 9.39138 12.3813 9.29854 12.4506C8.23595 13.2437 7.64801 14.272 7.7569 15.6263C7.78503 15.9763 7.84873 16.3337 7.9632 16.6645C8.23375 17.4461 8.79144 18.0094 9.45361 18.4799C9.53307 18.5364 9.59933 18.6114 9.67165 18.6779C9.70015 19.3564 9.73003 20.0348 9.75615 20.7134C9.76384 20.9135 9.75688 21.114 9.76375 21.3141C9.77237 21.5612 9.78841 21.8078 9.80124 22.0547C9.59393 21.9185 9.36526 21.806 9.18343 21.6416C8.72472 21.227 8.28168 20.7943 7.84525 20.356C7.75085 20.2612 7.71052 20.1126 7.64526 19.9889C7.60219 19.7555 7.62639 19.4762 7.50376 19.2971C7.10536 18.715 6.73766 18.1219 6.45968 17.472C6.01903 16.4419 5.75196 15.3689 5.6857 14.253C5.64006 13.4849 5.7087 12.7204 5.87294 11.9643C6.42128 9.43873 7.69494 7.41288 9.91974 6.02795C10.2555 5.81895 10.5612 5.5645 10.6212 5.12992L10.6214 5.12974Z" fill="#F1F2F5"/>
<path d="M21.2565 12.2819C21.5494 12.5447 21.8609 12.7897 22.1316 13.0736C22.988 13.9716 23.1664 15.0622 22.9494 16.235C22.7454 17.3378 22.0224 18.063 21.1069 18.6301C20.5556 18.8704 19.9812 19.0007 19.3778 18.9813C18.5913 18.956 17.8937 18.683 17.2765 18.2024C16.2621 17.4126 15.9229 16.3288 15.9689 15.099C16 14.2681 16.3849 13.5841 16.9465 12.9855C17.6763 12.2076 18.5788 11.8159 19.6321 11.896C20.1801 11.9377 20.7155 12.1479 21.2566 12.282L21.2565 12.2819ZM19.5017 12.6856C18.1706 12.6034 16.704 13.6817 16.6785 15.4048C16.655 16.9865 17.8819 18.2207 19.4534 18.2256C20.214 18.228 20.8747 17.9735 21.4267 17.446C22.0823 16.8193 22.2803 16.0338 22.2212 15.1596C22.1259 13.7513 20.8965 12.6308 19.5017 12.6856Z" fill="#8C959D"/>
<path d="M9.67176 18.678C9.59945 18.6116 9.53318 18.5365 9.45372 18.48C8.79155 18.0095 8.23386 17.4463 7.96331 16.6646C7.84884 16.3338 7.78514 15.9764 7.75701 15.6265C7.64813 14.2722 8.23606 13.2437 9.29865 12.4507C9.39158 12.3813 9.47984 12.3058 9.57021 12.2331C9.9633 12.1264 10.3508 11.9853 10.7507 11.9198C11.7396 11.7577 12.6409 11.9891 13.4381 12.6056C14.2486 13.2324 14.684 14.0802 14.8406 15.0697C14.9266 15.6132 14.8339 16.1592 14.6201 16.6661C14.1688 17.7359 13.4069 18.5006 12.2623 18.7761C11.7868 18.8906 11.269 18.8628 10.7722 18.8468C10.4039 18.8349 10.0384 18.7374 9.67167 18.6781L9.67176 18.678ZM14.0474 15.4324C14.0474 13.8305 12.8538 12.6282 11.2415 12.6424C9.65847 12.6563 8.50148 13.8329 8.45401 15.3447C8.40268 16.9769 9.70246 18.2368 11.2686 18.2281C12.845 18.2195 14.0474 17.0193 14.0474 15.4324Z" fill="#8C959D"/>
<path d="M17.3216 21.8527C17.3548 22.7589 16.7305 23.9402 15.4078 24.0565C15.2154 24.0734 15.0027 23.9849 14.8149 23.9076C14.0489 23.5927 13.4116 22.6064 13.4517 21.8511C13.5464 21.8898 13.6695 21.9031 13.7312 21.9716C14.0808 22.3596 14.5066 22.6276 15.019 22.6893C15.6062 22.76 16.1882 22.7133 16.6851 22.3203C16.8914 22.157 17.109 22.0082 17.3216 21.8528V21.8527Z" fill="#737C85"/>
<path d="M17.3217 21.8528C17.1091 22.0082 16.8915 22.1572 16.6852 22.3203C16.1883 22.7134 15.6063 22.7601 15.0191 22.6894C14.5067 22.6277 14.0809 22.3596 13.7313 21.9716C13.6696 21.9032 13.5465 21.8899 13.4518 21.8511C13.3959 21.4846 13.3399 21.1181 13.2744 20.6895C13.5324 20.8646 13.7387 21.0017 13.9419 21.1433C14.3377 21.4192 14.7709 21.6481 15.2464 21.679C15.581 21.7007 15.9464 21.6134 16.2611 21.4846C16.6737 21.3158 17.0499 21.0581 17.4854 20.8143C17.4654 20.9799 17.4515 21.1368 17.4265 21.2919C17.3964 21.4796 17.3571 21.6659 17.3218 21.8528H17.3217Z" fill="#FDFAF9"/>
<path d="M13.0639 8.25022C13.5426 8.25141 13.8457 8.5538 13.8466 9.03082C13.8473 9.47978 13.4593 9.88429 13.0133 9.85716C12.5897 9.8314 12.2492 9.63772 12.2294 9.03448C12.2167 8.64675 12.5162 8.19549 13.0639 8.25012V8.25022Z" fill="#D3D8DE"/>
<path d="M10.1824 27.3911C10.0431 27.0478 10.0296 27.0526 9.56976 27.0879C8.98595 27.1326 8.40856 27.0744 7.84335 26.9159C7.70212 26.8763 7.56272 26.8302 7.35303 26.7658C7.77993 26.6599 8.13764 26.5775 8.49178 26.4817C9.02271 26.3383 9.50075 26.109 9.78056 25.6001C9.8438 25.4851 9.87734 25.3538 9.92445 25.23C10.005 25.754 10.092 26.2772 10.1627 26.8026C10.1889 26.9961 10.1769 27.1947 10.1823 27.391L10.1824 27.3911Z" fill="#A6ABB1"/>
<path d="M10.522 33.7814H9.17627C9.51482 33.5231 9.90745 33.5652 10.2686 33.4922C10.3531 33.5886 10.4375 33.685 10.5219 33.7814H10.522Z" fill="#A6ABB1"/>
<path d="M10.1792 27.5436C10.1741 27.5271 10.1762 27.5116 10.1857 27.4971C10.189 27.5085 10.1937 27.5199 10.1946 27.5315C10.1948 27.5352 10.1847 27.5396 10.1792 27.5436Z" fill="#FF5C3F"/>
<path d="M10.6214 5.1298C10.5614 5.56438 10.2557 5.81883 9.91995 6.02782C7.69515 7.41276 6.42149 9.4387 5.87315 11.9642C5.709 12.7204 5.64035 13.4848 5.6859 14.2529C5.75217 15.3687 6.01924 16.4417 6.45989 17.4719C6.73786 18.1217 7.10547 18.7149 7.50396 19.297C7.6265 19.476 7.6024 19.7554 7.64547 19.9887C7.2325 20.1254 7.07431 20.0615 6.81182 19.6932C6.02693 18.5919 5.43084 17.403 5.16158 16.0712C5.0647 15.592 5.02786 15.1 4.97653 14.6124C4.94601 14.3225 4.92145 14.0295 4.92741 13.7386C4.96205 12.0641 5.27366 10.455 6.10035 8.97516C6.49233 8.27348 6.95067 7.62065 7.48683 7.01668C8.14753 6.27238 8.90676 5.65595 9.74242 5.12403C10.1455 4.86746 10.2245 4.86306 10.6216 5.12971L10.6214 5.1298Z" fill="white"/>
<path d="M12.1325 4.57584C12.0116 4.68483 11.8924 4.79583 11.7694 4.90244C11.5789 5.06771 11.3775 5.02087 11.1753 4.92627C11.1245 4.75248 11.0419 4.58098 11.0294 4.40443C11.0036 4.03705 11.1402 3.88736 11.48 3.8452C11.7376 3.81321 12.0281 4.04933 12.0811 4.33239C12.0963 4.41387 12.1152 4.49463 12.1324 4.57575L12.1325 4.57584Z" fill="white"/>
<path d="M19.5016 12.6855C20.8963 12.6306 22.1258 13.7513 22.221 15.1595C22.2801 16.0338 22.0822 16.8193 21.4265 17.446C20.8746 17.9735 20.2139 18.2279 19.4533 18.2256C17.8818 18.2206 16.6548 16.9865 16.6783 15.4047C16.7039 13.6817 18.1705 12.6034 19.5016 12.6855ZM19.5049 14.0958C19.0649 14.094 18.6951 14.4559 18.683 14.8812C18.6683 15.3977 19.0025 15.8269 19.5195 15.8042C20.0541 15.7806 20.3921 15.5027 20.3979 15.0056C20.4048 14.4139 20.091 14.0982 19.5048 14.0959L19.5049 14.0958Z" fill="#FEFDFD"/>
<path d="M14.0475 15.4323C14.0475 17.0192 12.8452 18.2194 11.2687 18.228C9.70256 18.2365 8.40287 16.9767 8.4541 15.3445C8.50158 13.8328 9.65856 12.6561 11.2416 12.6422C12.8538 12.628 14.0474 13.8303 14.0475 15.4323ZM10.3678 14.9194C10.3183 15.4028 10.7118 15.8107 11.1768 15.8078C11.7282 15.8043 12.0847 15.4718 12.0802 14.9559C12.0756 14.4189 11.7733 14.1058 11.215 14.0968C10.708 14.0887 10.3722 14.4196 10.3678 14.9194Z" fill="#FEFDFD"/>
<path d="M19.5049 14.0958C20.0911 14.0981 20.4048 14.4139 20.398 15.0056C20.3923 15.5026 20.0542 15.7806 19.5196 15.8041C19.0026 15.8269 18.6684 15.3976 18.6831 14.8812C18.6952 14.4559 19.065 14.094 19.505 14.0957L19.5049 14.0958Z" fill="#737C85"/>
<path d="M10.3677 14.9194C10.3721 14.4196 10.7079 14.0887 11.215 14.0968C11.7732 14.1058 12.0755 14.4188 12.0802 14.9559C12.0847 15.4719 11.7282 15.8043 11.1768 15.8078C10.7118 15.8107 10.3182 15.4029 10.3677 14.9194Z" fill="#737C85"/>
</g>
<defs>
<clipPath id="clip0_563_59206">
<rect width="74.648" height="34" fill="white" transform="translate(2 1)"/>
</clipPath>
</defs>
</svg>
