<svg width="140" height="36" viewBox="0 0 140 36" fill="none" xmlns="http://www.w3.org/2000/svg">
<g clip-path="url(#clip0_491_59415)">
<path d="M106.723 13.7414C109.389 13.7414 111.396 15.21 111.396 18.4057V24.7955H108.729L108.809 23.2493C108.016 24.4094 106.961 25.0265 105.323 25.0265C103.132 25.0265 101.336 24.0215 101.336 21.5997C101.336 19.3572 103.186 18.3782 105.694 18.3523H108.731C108.731 16.6252 107.938 15.9046 106.513 15.9046C105.365 15.9046 104.601 16.2925 104.029 16.7837L102.103 15.6978L102.076 15.672C102.093 15.653 102.109 15.6323 102.126 15.6151C103.098 14.5136 104.411 13.7397 106.723 13.7397V13.7414ZM108.729 21.0068V20.157H105.878C104.716 20.157 103.949 20.569 103.949 21.5239C103.949 22.4788 104.689 22.9391 106.063 22.9391C107.621 22.9391 108.729 22.191 108.729 21.0068ZM136.888 21.4653L139.022 22.6684C137.972 24.0939 136.262 25.0265 134.324 25.0265C131.13 25.0265 128.543 22.4995 128.543 19.3831C128.543 16.2666 131.13 13.7397 134.324 13.7397C136.258 13.7397 137.963 14.6688 139.015 16.0891L136.879 17.2922C136.238 16.5493 135.305 16.1253 134.324 16.127C132.485 16.127 130.989 17.587 130.989 19.3813C130.989 21.1757 132.485 22.6357 134.324 22.6357C135.309 22.6391 136.245 22.2099 136.886 21.4636L136.888 21.4653ZM43.2202 21.4653L45.3541 22.6684C44.3044 24.0939 42.5944 25.0265 40.657 25.0265C37.463 25.0265 34.8757 22.4995 34.8757 19.3831C34.8757 16.2666 37.463 13.7397 40.657 13.7397C42.591 13.7397 44.2957 14.6688 45.3472 16.0891L43.2115 17.2922C42.5703 16.5493 41.6378 16.1253 40.657 16.127C38.8178 16.127 37.3217 17.587 37.3217 19.3813C37.3217 21.1757 38.8178 22.6357 40.657 22.6357C41.6412 22.6391 42.5772 22.2099 43.2184 21.4636L43.2202 21.4653ZM82.2567 13.9724H84.9233L84.8698 15.8271C85.6093 14.4619 86.7452 13.7397 88.1707 13.7397C89.7807 13.7397 90.8373 14.486 91.4182 15.8012C92.2886 14.5136 93.609 13.7397 95.2207 13.7397C97.8338 13.7397 99.392 15.441 99.392 18.1972V24.7938H96.7272V18.4557C96.7272 16.9613 96.1721 16.1356 94.6415 16.1356C93.1108 16.1356 92.1594 17.063 92.1594 18.8677V24.7938H89.4945V18.454C89.4945 16.9596 88.9653 16.1339 87.4347 16.1339C85.9041 16.1339 84.9267 17.0613 84.9267 18.866V24.792H82.2602V13.9689L82.2567 13.9724ZM47.2829 7.71191H49.9495V15.8788C50.6631 14.5395 51.9834 13.7397 53.6485 13.7397C56.1031 13.7397 57.7923 15.441 57.7923 18.3782V24.7938H55.124V18.5833C55.124 17.0371 54.3863 16.1339 52.8263 16.1339C51.0837 16.1339 49.9477 17.1647 49.9477 18.9177V24.792H47.2812V7.71364L47.2829 7.71191ZM74.3587 13.7397C77.5528 13.7397 80.14 16.2666 80.14 19.3831C80.14 22.4995 77.5528 25.0265 74.3587 25.0265C71.1647 25.0265 68.5775 22.4995 68.5775 19.3831C68.5775 16.2666 71.1665 13.7397 74.3587 13.7397ZM74.3587 16.1287C72.5213 16.1287 71.0251 17.5887 71.0251 19.3831C71.0251 21.1774 72.5213 22.6374 74.3587 22.6374C76.1962 22.6374 77.6958 21.1757 77.6958 19.3831C77.6958 17.5904 76.1996 16.1287 74.3587 16.1287ZM60.4416 13.9724H63.1099L63.0823 16.0081C63.8235 14.3085 65.0904 13.7655 66.3039 13.7655C66.8727 13.7655 67.3192 13.8586 67.7001 14.0155C67.8501 14.0758 68.1638 14.224 68.4689 14.4464C68.4689 14.4464 68.1 14.8946 67.7742 15.441C67.4484 15.9874 67.2278 16.5734 67.2278 16.5734C66.8055 16.3683 66.3832 16.2115 65.7765 16.2115C64.1924 16.2115 63.1099 17.113 63.1099 19.5365V24.7938H60.4416V13.9707V13.9724ZM123.525 24.811V13.9724H126.223V24.811H123.525ZM123.103 9.76656C123.103 8.78578 123.922 8.06355 124.875 8.06355C125.828 8.06355 126.647 8.7875 126.647 9.76656C126.647 10.7991 125.827 11.4954 124.875 11.4954C123.924 11.4954 123.103 10.7991 123.103 9.76656ZM115.153 21.1481V16.1667H113.487V13.9724H115.153V7.71364H117.823V13.9741H120.785V16.1667H117.823V21.1981C117.823 22.4375 118.248 22.7994 118.934 22.7994C119.568 22.7994 119.964 22.515 120.256 22.2823L121.526 24.0371C120.969 24.5542 120.097 25.0695 118.67 25.0695C116.581 25.0695 115.153 24.0371 115.153 21.1464V21.1481Z" fill="#A6ABB1"/>
<path fill-rule="evenodd" clip-rule="evenodd" d="M28.1248 18C28.1248 25.4558 22.0806 31.5 14.6248 31.5C7.16891 31.5 1.12476 25.4558 1.12476 18C1.12476 10.5442 7.16891 4.5 14.6248 4.5C22.0806 4.5 28.1248 10.5442 28.1248 18ZM15.6505 22.9729L17.7966 24.2105V24.2088C18.3723 24.5415 19.0255 24.7173 19.6874 24.7173C21.044 24.7156 22.2954 23.995 22.9763 22.8229C23.7226 21.5267 23.6416 19.9547 22.8022 18.7602C22.585 18.9429 22.3523 19.1066 22.1041 19.2497L15.6505 22.9729ZM18.0517 25.4654C17.7862 25.3688 17.5277 25.2482 17.2794 25.1051L17.2777 25.1034L14.3578 23.4176C14.1975 23.3263 14.0992 23.1556 14.0992 22.9712V18.3L10.8242 16.4108V23.8572C10.8242 25.9463 12.5272 27.6458 14.6163 27.6458C16.1142 27.6458 17.4363 26.7874 18.0517 25.4654ZM6.27018 22.8229C6.95104 23.995 8.20245 24.7173 9.55728 24.7173V24.7156C9.66415 24.7156 9.77101 24.7121 9.87788 24.7035C9.8279 24.4225 9.80376 24.1398 9.80376 23.8537V16.4091L7.65948 17.6467C6.78557 18.1465 6.14952 18.9756 5.89269 19.9478C5.62897 20.9182 5.76514 21.9542 6.27018 22.8229ZM17.9019 15.517L17.9034 15.5162V15.5179L17.9019 15.517ZM14.6301 17.4054L17.9019 15.517L11.4499 11.7947C10.8742 11.462 10.2192 11.2862 9.559 11.2862C8.20245 11.2862 6.95104 12.0085 6.27018 13.1806C5.52382 14.4768 5.60656 16.0488 6.44428 17.2433C6.66146 17.0589 6.89416 16.8969 7.14237 16.7538L10.0623 15.0697C10.2226 14.9784 10.4191 14.9784 10.5794 15.0697L14.6301 17.4054ZM18.4102 12.1464C18.4102 10.0572 16.7089 8.35767 14.6181 8.35767L14.6198 8.35939C13.1219 8.35939 11.7998 9.21607 11.1844 10.5399C11.4533 10.6364 11.7119 10.7571 11.9584 10.9001L18.4102 14.6216V12.1464ZM21.5887 18.3568C23.3986 17.3105 24.0208 14.9905 22.9763 13.1806V13.1788C22.2368 11.9085 20.8337 11.1759 19.3686 11.2983C19.4168 11.5775 19.4427 11.8619 19.4427 12.1464V15.5162C19.4427 15.7006 19.3444 15.8695 19.1841 15.9626L15.1352 18.3V22.0783L21.5887 18.3568Z" fill="#A6ABB1"/>
</g>
<defs>
<clipPath id="clip0_491_59415">
<rect width="139.5" height="36" fill="white"/>
</clipPath>
</defs>
</svg>
