<svg width="97" height="36" viewBox="0 0 97 36" fill="none" xmlns="http://www.w3.org/2000/svg">
<g clip-path="url(#clip0_491_59417)">
<path d="M10.2607 4.00135V25.6297L13.0456 25.6383V15.3386H19.76V12.6162H13.0456V6.72245H21.7901V4L10.2607 4.00135Z" fill="#A6ABB1"/>
<path d="M26.8023 8.39165C27.8054 8.39165 28.6184 7.57906 28.6184 6.57668C28.6184 5.57431 27.8054 4.76172 26.8023 4.76172C25.7993 4.76172 24.9861 5.57431 24.9861 6.57668C24.9861 7.57906 25.7993 8.39165 26.8023 8.39165Z" fill="#A6ABB1"/>
<path d="M25.3855 11.1138V25.6335H28.1703V11.1138H25.3855Z" fill="#A6ABB1"/>
<path fill-rule="evenodd" clip-rule="evenodd" d="M38.4993 10.6909C34.8012 10.6909 32.2205 13.8164 32.2205 17.5273C32.2205 21.2382 34.8012 24.3637 38.4993 24.3637C40.1923 24.3637 41.5876 23.7086 42.603 22.6424V24.5754C42.603 26.9811 40.7121 28.9918 38.2442 28.9918C37.3572 28.9918 36.4758 28.6482 35.7736 28.1646L34.3782 30.5797C35.4927 31.2976 36.8197 31.7143 38.2442 31.7143C42.1896 31.7143 45.3878 28.5181 45.3878 24.5754V11.1144H42.603V12.4123C41.5876 11.3459 40.1923 10.6909 38.4993 10.6909ZM35.0053 17.5273C35.0053 15.2239 36.7684 13.4134 38.802 13.4134C40.8357 13.4134 42.5987 15.2239 42.5987 17.5273C42.5987 19.8307 40.8357 21.6412 38.802 21.6412C36.7684 21.6412 35.0053 19.8307 35.0053 17.5273Z" fill="#A6ABB1"/>
<path d="M55.4224 13.4134C53.7757 13.4134 52.4408 14.8078 52.4408 16.4534V25.6342H49.656V11.1144H52.4408V12.4445C53.2568 11.3904 54.4589 10.6909 56.0278 10.6909C57.9791 10.6909 59.4768 11.6595 60.3442 13.1417C61.3087 11.71 62.8821 10.6909 64.7758 10.6909C67.9454 10.6909 69.9182 13.2464 69.9369 16.408C69.9369 16.4176 69.9369 16.4271 69.9369 16.4368V16.4373V16.4377V16.4383C69.9369 16.4433 69.9369 16.4484 69.9369 16.4534V25.6342H67.152V16.4534C67.152 14.8078 65.8171 13.4134 64.1704 13.4134C62.5237 13.4134 61.1888 14.8078 61.1888 16.4534V25.6342H58.404V16.4534C58.404 14.8078 57.0691 13.4134 55.4224 13.4134Z" fill="#A6ABB1"/>
<path fill-rule="evenodd" clip-rule="evenodd" d="M84.7693 12.7604C83.5303 11.4819 81.8336 10.6909 79.8656 10.6909C75.7226 10.6909 72.7825 14.1963 72.7825 18.3742C72.7825 22.5522 75.7226 26.0576 79.8656 26.0576C81.8336 26.0576 83.5303 25.2666 84.7693 23.9882V25.6342H87.5541V11.1144H84.7693V12.7604ZM75.5673 18.3742C75.5673 15.6025 77.691 13.4134 80.1683 13.4134C82.6454 13.4134 84.7693 15.6025 84.7693 18.3742C84.7693 21.1461 82.6454 23.3352 80.1683 23.3352C77.691 23.3352 75.5673 21.1461 75.5673 18.3742Z" fill="#A6ABB1"/>
</g>
<defs>
<clipPath id="clip0_491_59417">
<rect width="77.2935" height="28" fill="white" transform="translate(10.2605 4)"/>
</clipPath>
</defs>
</svg>
