<svg width="99" height="36" viewBox="0 0 99 36" fill="none" xmlns="http://www.w3.org/2000/svg">
<path d="M40.7256 15.5032H43.8009C43.2879 12.2335 40.457 9.95605 36.7728 9.95605C32.4136 9.95605 29.1426 13.161 29.1426 18.5286C29.1426 23.8962 32.2665 27.07 36.8619 27.07C40.9862 27.07 43.9386 24.4173 43.9386 20.1229V18.1222H37.1791V20.4807H41.0186C40.97 22.8567 39.3837 24.3606 36.8781 24.3606C34.089 24.3606 32.1774 22.2708 32.1774 18.4962C32.1774 14.7216 34.1214 12.6642 36.8133 12.6642C38.8221 12.6642 40.1964 13.7374 40.7256 15.5032Z" fill="#A6ABB1"/>
<path d="M45.9708 26.8436H48.9152V14.3561H45.9708V26.8436ZM47.4558 12.3716C48.3914 12.3716 49.1555 11.6548 49.1555 10.7773C49.1555 9.89975 48.3914 9.1748 47.4558 9.1748C46.5203 9.1748 45.748 9.8903 45.748 10.7773C45.748 11.6642 46.5068 12.3716 47.4504 12.3716H47.4558Z" fill="#A6ABB1"/>
<path d="M57.7323 14.3552H55.2672V11.3555H52.3228V14.3552H50.5503V16.6326H52.3228V23.5797C52.3066 25.9301 54.0158 27.0897 56.2271 27.0209C56.8157 27.0087 57.4002 26.9102 57.9605 26.7279L57.4637 24.4248C57.1829 24.4977 56.8926 24.5369 56.6024 24.5396C55.8612 24.5396 55.2672 24.279 55.2672 23.091V16.6259H57.7323V14.3552Z" fill="#A6ABB1"/>
<path d="M60.0088 26.8445H70.3633V24.3146H63.0274V10.1855H60.0088V26.8445Z" fill="#A6ABB1"/>
<path d="M76.0044 27.0991C77.9646 27.0991 79.1351 26.1798 79.6724 25.1308H79.7696V26.8467H82.6046V18.4848C82.6046 15.1827 79.9127 14.1904 77.5286 14.1904C74.9015 14.1904 72.8846 15.3609 72.2339 17.6383L74.9838 18.0298C75.2754 17.1753 76.1057 16.4436 77.5488 16.4436C78.9164 16.4436 79.6643 17.1429 79.6643 18.3714V18.42C79.6643 19.2651 78.7773 19.3069 76.5728 19.5418C74.1495 19.8024 71.8316 20.526 71.8316 23.3407C71.8235 25.7977 73.6203 27.0991 76.0044 27.0991ZM76.9724 24.9391C75.7439 24.9391 74.865 24.3775 74.865 23.2962C74.865 22.2148 75.8492 21.6937 77.16 21.5061C77.9336 21.4008 79.4793 21.205 79.86 20.8972V22.3687C79.8681 23.7552 78.7449 24.9351 76.9724 24.9351V24.9391Z" fill="#A6ABB1"/>
<path d="M84.7749 26.845H87.6707V24.8767H87.8408C88.3052 25.788 89.2731 27.0651 91.421 27.0651C94.3653 27.0651 96.5699 24.7296 96.5699 20.6148C96.5699 16.5 94.3005 14.1888 91.4129 14.1888C89.2083 14.1888 88.289 15.5145 87.8408 16.4176H87.7166V10.186H84.7749V26.845ZM87.6626 20.5986C87.6626 18.1686 88.7034 16.6039 90.5988 16.6039C92.4942 16.6039 93.5688 18.2712 93.5688 20.5986C93.5688 22.926 92.5442 24.6486 90.5988 24.6486C88.6535 24.6486 87.6626 23.0218 87.6626 20.5986Z" fill="#A6ABB1"/>
<path d="M23.591 15.8907L23.5626 15.8151L20.7006 8.34964C20.6426 8.20249 20.54 8.07829 20.4063 7.99459C20.0553 7.76914 19.5869 7.87174 19.3614 8.22409C19.3209 8.28619 19.2912 8.35504 19.271 8.42659L17.3391 14.3409H9.51584L7.58399 8.42659C7.46924 8.02429 7.05074 7.79074 6.64844 7.90549C6.57824 7.92574 6.51074 7.95544 6.44864 7.99459C6.31498 8.07829 6.21238 8.20249 6.15433 8.34964L3.29368 15.8165L3.26398 15.8907C2.41752 18.102 3.13708 20.6063 5.02708 22.0319L5.03788 22.04L5.06218 22.0589L9.41594 25.3219L11.5759 26.954L12.8882 27.9463C13.2041 28.1852 13.6415 28.1852 13.9574 27.9463L15.2696 26.954L17.4296 25.3219L21.8144 22.04L21.8265 22.0305C23.7165 20.6049 24.4361 18.102 23.591 15.8907Z" fill="#A6ABB1"/>
<path d="M23.5898 15.892L23.5615 15.8164C22.1669 16.1026 20.8534 16.6939 19.7139 17.5471L13.4297 22.2991L17.4311 25.3231L21.8159 22.0413L21.8281 22.0318C23.7167 20.6062 24.4349 18.102 23.5898 15.892Z" fill="#A6ABB1"/>
<path d="M9.41504 25.3199L11.575 26.952L12.8872 27.9443C13.2031 28.1832 13.6405 28.1832 13.9565 27.9443L15.2687 26.952L17.4287 25.3199L13.4272 22.2959L9.41504 25.3199Z" fill="#A6ABB1"/>
<path d="M7.13984 17.5472C6.00043 16.694 4.68823 16.1041 3.29368 15.8179L3.26398 15.8921C2.41752 18.1034 3.13708 20.6077 5.02708 22.0333L5.03788 22.0414L5.06218 22.0603L9.41594 25.3232L13.4201 22.2992L7.13984 17.5472Z" fill="#A6ABB1"/>
</svg>
