<svg width="184" height="36" viewBox="0 0 184 36" fill="none" xmlns="http://www.w3.org/2000/svg">
<g clip-path="url(#clip0_563_59309)">
<path fill-rule="evenodd" clip-rule="evenodd" d="M30.1075 8.36047C30.6398 8.64334 31.065 9.10542 31.2425 9.67291L31.2407 9.67116L33.9376 21.2776C34.0097 21.882 33.8673 22.4846 33.5124 22.9818L26.0243 32.2445C25.6343 32.7769 25.0316 33.0597 24.3921 32.9895H12.4677C11.865 32.9543 11.2606 32.6697 10.8354 32.2445L3.34731 22.9818C2.99241 22.4846 2.85009 21.8802 2.95727 21.2776L5.61905 9.60088C5.76136 8.99824 6.15141 8.53616 6.68376 8.28843L17.5084 3.07028C17.793 3 18.111 3 18.3956 3C18.6802 3 18.9983 3.03514 19.2829 3.17745L30.1075 8.36047ZM29.5049 20.7821C29.5049 20.8173 29.54 20.8173 29.5752 20.8173L29.5734 20.8137C29.8932 20.884 30.1778 21.1686 30.213 21.5587C30.1058 21.8433 29.8229 22.0559 29.5032 22.0559C29.4329 22.0559 29.396 22.0559 29.3257 22.0208C29.3023 21.9973 29.2788 21.9856 29.2554 21.9856C29.213 21.9856 29.1834 21.9734 29.159 21.9634C29.142 21.9564 29.1276 21.9505 29.1131 21.9505C29.01 21.925 28.9262 21.8802 28.8337 21.8307C28.7986 21.8119 28.7622 21.7924 28.7231 21.773C28.6528 21.773 28.5808 21.7379 28.5105 21.7028H28.4753C28.1204 21.5604 27.7304 21.4533 27.3403 21.383H27.3052C27.198 21.383 27.0909 21.4199 27.0206 21.4902C27.0206 21.4902 27.0206 21.5253 26.9854 21.5253L26.7008 21.4902C26.0613 23.5124 24.6768 25.2167 22.8671 26.3165L22.9743 26.6011C22.9743 26.6011 22.9392 26.6011 22.9392 26.6363C22.8689 26.7435 22.8689 26.884 22.904 26.9912C23.0464 27.3461 23.2238 27.701 23.4715 28.0208V28.091C23.5436 28.1613 23.5787 28.1982 23.6138 28.2685C23.7193 28.3757 23.7913 28.4811 23.8616 28.6234L23.8664 28.6284C23.8998 28.6635 23.9319 28.697 23.9319 28.7306C23.9319 28.7306 23.967 28.7306 23.967 28.7657C24.0373 28.9432 24.0373 29.1206 24.0021 29.2981C23.967 29.4755 23.8247 29.6178 23.6824 29.6881C23.6595 29.6956 23.6384 29.7031 23.6181 29.7102C23.5436 29.7366 23.4821 29.7584 23.3977 29.7584C23.1131 29.7584 22.8654 29.5809 22.7231 29.3332C22.6879 29.3332 22.6879 29.2981 22.6879 29.2981C22.6706 29.2799 22.6618 29.2621 22.6531 29.2445C22.6442 29.2265 22.6354 29.2087 22.6177 29.1909C22.5456 29.0855 22.5105 28.9432 22.4753 28.8009L22.4051 28.5883V28.5531C22.2979 28.1631 22.1204 27.8082 21.943 27.4533C21.8709 27.3479 21.7655 27.2758 21.6584 27.2407C21.6584 27.2173 21.6466 27.2055 21.6232 27.2055L21.4809 26.9578C21.3924 26.9845 21.3017 27.0135 21.2094 27.0429C20.9314 27.1315 20.6387 27.2248 20.3459 27.2776C19.7064 27.455 19.0686 27.5253 18.4291 27.5253C17.3644 27.5253 16.3365 27.3479 15.3421 26.9578L15.1998 27.2424C15.1998 27.2659 15.1881 27.2776 15.1647 27.2776C15.0575 27.3127 14.9503 27.383 14.88 27.4902C14.7026 27.8451 14.5251 28.2 14.418 28.59L14.3477 28.8026C14.3301 28.8738 14.3033 28.9357 14.2765 28.9976C14.2497 29.0596 14.2229 29.1215 14.2054 29.1927L14.2006 29.1977C14.1671 29.2328 14.1351 29.2663 14.1351 29.2998C14.0999 29.2998 14.0999 29.335 14.0999 29.335C13.9576 29.5827 13.7099 29.7602 13.4253 29.7602C13.355 29.7602 13.2478 29.725 13.1775 29.6899C12.8578 29.5124 12.7155 29.0872 12.8929 28.7323C12.9281 28.7323 12.9281 28.6972 12.9281 28.6972C12.9454 28.679 12.9542 28.6612 12.9629 28.6436C12.9718 28.6256 12.9805 28.6078 12.9983 28.59C13.0436 28.5289 13.0827 28.4678 13.1182 28.4124C13.1653 28.3388 13.206 28.2752 13.2461 28.2351C13.3181 28.1648 13.3532 28.1279 13.3884 28.0577V28.0225C13.601 27.7028 13.8136 27.3479 13.9559 26.9929C13.991 26.8858 13.991 26.7452 13.9207 26.638C13.9207 26.638 13.8856 26.638 13.8856 26.6029L14.063 26.3552C13.7081 26.1777 13.4253 25.9634 13.1055 25.7156C11.7228 24.6509 10.7284 23.1962 10.196 21.564L9.87623 21.5991C9.87623 21.5991 9.87623 21.564 9.84109 21.564C9.76906 21.4919 9.66364 21.4568 9.55646 21.4568H9.52133C9.09439 21.5288 8.73948 21.6342 8.34944 21.7766H8.3143C8.24402 21.7766 8.17198 21.8117 8.10171 21.8468C8.06259 21.8599 8.01839 21.878 7.97099 21.8974C7.89067 21.9304 7.80117 21.967 7.71166 21.9891C7.70107 21.9891 7.68392 21.9859 7.66514 21.9824C7.62164 21.9743 7.56935 21.9646 7.56935 21.9891C7.56935 22.0126 7.55764 22.0243 7.53421 22.0243C7.46393 22.0594 7.42704 22.0594 7.35676 22.0594C7.03699 22.0946 6.71723 21.882 6.64695 21.5622C6.57491 21.1704 6.8244 20.8155 7.21445 20.7452C7.23787 20.7218 7.2613 20.7101 7.28472 20.7101C7.32714 20.7101 7.35676 20.6979 7.38112 20.6879C7.39814 20.6809 7.41259 20.6749 7.42704 20.6749C7.4971 20.6749 7.56759 20.6662 7.63831 20.6575C7.70946 20.6486 7.78084 20.6398 7.85222 20.6398C7.9225 20.6047 7.99453 20.6047 8.06481 20.6047C8.49175 20.5695 8.88179 20.4992 9.27184 20.3921L9.27614 20.3892C9.38016 20.3199 9.48491 20.2501 9.51957 20.1443C9.51957 20.1443 9.55471 20.1443 9.55471 20.1092L9.83933 20.0389C9.51957 18.0149 9.98165 15.9575 11.0815 14.2181C11.0992 14.1844 11.1165 14.1584 11.1335 14.1327C11.1521 14.1048 11.1704 14.0773 11.1887 14.0407L10.9828 13.8348C10.9988 13.7321 10.9331 13.6077 10.8689 13.5435C10.5843 13.2588 10.2294 13.0462 9.87447 12.8337C9.8217 12.8059 9.76795 12.7792 9.71468 12.7528C9.69701 12.744 9.67939 12.7352 9.66188 12.7265C9.51957 12.6562 9.37901 12.5842 9.27184 12.5139C9.23494 12.5139 9.16466 12.4436 9.16466 12.4436C9.16466 12.4436 9.16466 12.4085 9.12952 12.4085C8.8449 12.159 8.77462 11.7338 8.98721 11.414C9.09439 11.2366 9.27184 11.1663 9.48443 11.1663C9.66188 11.1663 9.83933 11.2366 9.98165 11.3438L10.0168 11.3789C10.035 11.3962 10.0528 11.405 10.0704 11.4137C10.0884 11.4226 10.1062 11.4314 10.124 11.4492C10.1775 11.5028 10.2219 11.5559 10.2663 11.6091C10.3106 11.6622 10.355 11.7154 10.4086 11.7689C10.4192 11.7795 10.4331 11.7903 10.4484 11.8021C10.4838 11.8294 10.5264 11.8622 10.5509 11.9113C10.7986 12.1959 11.1184 12.4805 11.4382 12.7282C11.5084 12.7634 11.5787 12.7985 11.6508 12.7985C11.6932 12.7985 11.7228 12.7863 11.7471 12.7763C11.7642 12.7693 11.7786 12.7634 11.7931 12.7634H11.8282L12.0408 12.9057C13.2127 11.6635 14.7395 10.7763 16.4068 10.4214C16.4825 10.4089 16.5571 10.3964 16.6307 10.384C16.9721 10.3267 17.293 10.2728 17.6139 10.2439L17.649 9.95927V9.889C17.7562 9.81696 17.7913 9.71154 17.8264 9.60437C17.8264 9.17743 17.8264 8.78738 17.7562 8.39734V8.3622C17.7562 8.29192 17.7562 8.21989 17.721 8.14961C17.6859 8.00905 17.6507 7.86674 17.6507 7.72443V7.54698C17.6507 7.36952 17.721 7.19207 17.8633 7.04976C18.0408 6.8723 18.2534 6.76689 18.466 6.80203C18.8209 6.83717 19.1037 7.19207 19.0686 7.54698V7.75957C19.051 7.83006 19.0422 7.901 19.0334 7.97216C19.0246 8.04288 19.0158 8.11381 18.9983 8.18475C18.9983 8.21989 18.9895 8.25547 18.9808 8.29105C18.972 8.32662 18.9632 8.3622 18.9632 8.39734V8.43248C18.8929 8.85942 18.8929 9.24946 18.8929 9.63951C18.9281 9.74668 18.9632 9.85386 19.0704 9.92413V9.889L19.1055 10.1736C20.7729 10.3511 22.4068 10.9888 23.7193 12.0184C23.8616 12.1607 24.0122 12.3026 24.1629 12.4445C24.3136 12.5864 24.4642 12.7282 24.6065 12.8705L24.8912 12.6931H24.9263C24.9614 12.7282 25.0335 12.7282 25.0686 12.7282C25.1389 12.7282 25.2109 12.6931 25.2812 12.658C25.601 12.4454 25.9207 12.1625 26.1685 11.8779C26.1791 11.8673 26.193 11.8565 26.2083 11.8447C26.2437 11.8174 26.2862 11.7846 26.3108 11.7356C26.3828 11.6284 26.4882 11.523 26.5954 11.4158L26.5954 11.4158C26.6323 11.4158 26.6674 11.3807 26.7026 11.3455L26.7377 11.3104C26.88 11.2032 27.0575 11.1329 27.2349 11.1329C27.4124 11.1329 27.625 11.2383 27.7321 11.3807C27.9799 11.7004 27.9096 12.1274 27.5898 12.3751C27.5898 12.3885 27.595 12.3968 27.5993 12.4039C27.6064 12.4154 27.6115 12.4236 27.5898 12.4454C27.5716 12.4627 27.5538 12.4715 27.5363 12.4802C27.5182 12.4891 27.5004 12.4979 27.4827 12.5156C27.4115 12.5508 27.3496 12.5864 27.2876 12.6219C27.2257 12.6575 27.1638 12.6931 27.0926 12.7282C27.0399 12.7559 26.9861 12.7826 26.9328 12.8091C26.9152 12.8179 26.8975 12.8267 26.88 12.8354C26.5251 13.048 26.2054 13.2606 25.8856 13.5452C25.8136 13.6173 25.7784 13.7578 25.7784 13.865V13.9001L25.5658 14.1127C26.1333 15 26.5603 15.9927 26.808 17.0222C27.0206 18.0518 27.0926 19.1165 26.9503 20.1461L27.2349 20.2164C27.2701 20.3218 27.3755 20.429 27.4827 20.4641C27.8727 20.5695 28.2996 20.6416 28.6897 20.6767H28.7248C28.7951 20.7118 28.8671 20.7118 28.9374 20.7118C29.078 20.7118 29.2203 20.7118 29.3626 20.747C29.4346 20.747 29.5049 20.747 29.5049 20.7821ZM10.9828 13.8348L10.9761 13.8281V13.8632C10.9791 13.854 10.9813 13.8445 10.9828 13.8348ZM18.3606 20.1795L19.3181 19.7174H19.3216L19.5693 18.6878L18.8947 17.8357H17.83L17.1553 18.6878L17.403 19.7174L18.3606 20.1795ZM25.2461 19.6471C25.3163 18.9004 25.2812 18.1555 25.1037 17.4105L25.1055 17.4123C24.928 16.6673 24.6434 15.9575 24.2534 15.318L21.5916 17.732C21.5196 17.8023 21.4844 17.8726 21.4493 17.9798C21.3772 18.2995 21.5547 18.6193 21.8745 18.6896L25.2461 19.6471ZM20.2774 16.0629L23.1869 14.0038C22.1224 12.9401 20.7386 12.2661 19.1775 12.0887L19.3901 15.6729C19.3901 15.7783 19.427 15.8503 19.4973 15.9206C19.6748 16.1701 20.0297 16.2052 20.2774 16.0629ZM17.4733 12.0518L16.7635 12.1941C15.5213 12.477 14.3846 13.1165 13.4622 14.0038L16.4086 16.0981C16.4314 16.1056 16.4526 16.1131 16.4728 16.1202C16.5474 16.1466 16.6089 16.1684 16.6932 16.1684C17.0112 16.1684 17.2958 15.9206 17.2958 15.6009L17.4733 12.0518ZM15.061 17.66L12.4344 15.318V15.3197C11.6525 16.6322 11.2976 18.159 11.4048 19.6489L14.8467 18.6544C14.989 18.6193 15.061 18.5842 15.1313 18.477C15.3456 18.2275 15.3087 17.8726 15.061 17.66ZM15.3456 20.7136L11.8317 21.3162C12.3272 22.7358 13.3216 23.978 14.5638 24.795L15.9131 21.5306C15.9834 21.4234 15.9834 21.2828 15.9483 21.1757C15.9131 20.891 15.6303 20.7136 15.3456 20.7136ZM18.3606 25.8949C18.8929 25.8949 19.3901 25.8246 19.8873 25.7174V25.7156C20.1368 25.6436 20.3494 25.6085 20.562 25.5733L20.562 25.5733L18.8578 22.4864C18.85 22.4787 18.8424 22.4712 18.835 22.4639C18.7402 22.3705 18.6725 22.3038 18.5731 22.2386C18.3254 22.0963 18.0408 22.1684 17.8633 22.3809L16.124 25.5399C16.8338 25.7525 17.6156 25.8949 18.3606 25.8949ZM22.0871 24.7599C22.9392 24.2275 23.6841 23.4826 24.2165 22.6304C24.5011 22.2386 24.7137 21.7783 24.8912 21.2811L21.3421 20.6785C21.2366 20.6785 21.1329 20.7125 21.0274 20.7471L21.0223 20.7487C20.7729 20.8559 20.6323 21.1388 20.7026 21.4234L22.0871 24.7599Z" fill="#A6ABB1"/>
<path d="M174.876 25.1816C175.373 25.2168 175.905 25.1465 176.365 24.969C176.65 24.8267 176.827 24.507 176.791 24.189C176.755 23.8341 176.543 23.5143 176.223 23.4089C175.691 23.0891 175.088 22.8062 174.484 22.6288C173.881 22.4162 173.349 22.1667 172.852 21.919C172.389 21.7064 171.999 21.4218 171.609 21.0668C171.254 20.7119 171.007 20.3219 170.829 19.8598C170.617 19.3275 170.545 18.76 170.545 18.1925C170.509 17.0206 171.042 15.8856 171.964 15.1758C172.922 14.4308 174.201 14.0759 175.833 14.0759C176.613 14.0759 177.43 14.1462 178.21 14.3237C178.813 14.4308 179.417 14.5714 180.02 14.7857L179.345 17.8024C178.848 17.625 178.388 17.5178 177.89 17.3772C177.323 17.2349 176.719 17.1998 176.151 17.1998C174.944 17.1998 174.341 17.5196 174.341 18.1942C174.341 18.3365 174.377 18.4789 174.412 18.6194C174.482 18.7617 174.589 18.8671 174.731 18.9743C174.874 19.0815 175.086 19.1869 175.334 19.3292C175.582 19.4715 175.937 19.6138 176.364 19.7544C177.073 20.0021 177.783 20.3219 178.423 20.6768C178.92 20.9245 179.345 21.2443 179.7 21.6712C180.02 21.991 180.232 22.3811 180.375 22.8431C180.517 23.3403 180.587 23.8376 180.587 24.333C180.658 25.5401 180.09 26.7102 179.061 27.3849C178.066 28.0595 176.647 28.4144 174.802 28.4144C173.772 28.4496 172.779 28.3442 171.785 28.0947C171.218 27.9524 170.685 27.7749 170.153 27.5974L170.792 24.4736C171.432 24.7213 172.105 24.9357 172.779 25.0762C173.489 25.1114 174.164 25.1834 174.874 25.1834M155.319 21.2794C155.284 20.2147 155.496 19.15 155.851 18.1556C156.171 17.3035 156.668 16.5585 157.306 15.8838C157.909 15.2812 158.583 14.8191 159.365 14.5345C160.145 14.2147 160.962 14.0724 161.779 14.0724C163.696 14.0724 165.221 14.675 166.323 15.8469C167.423 17.0188 167.99 18.7565 167.99 21.0282C167.99 21.2408 167.99 21.4903 167.955 21.7731C167.955 22.0578 167.92 22.2704 167.92 22.483H159.26C159.33 23.2279 159.722 23.9377 160.36 24.3647C161.14 24.8619 162.064 25.1096 162.986 25.0745C163.661 25.0745 164.371 25.0042 165.045 24.897C165.613 24.7898 166.18 24.6124 166.713 24.3647L167.245 27.4885C166.997 27.6308 166.713 27.7011 166.428 27.8083C166.038 27.9155 165.648 28.0209 165.256 28.056C164.831 28.1263 164.404 28.1983 163.907 28.2686C163.445 28.3037 162.949 28.3389 162.452 28.3389C161.352 28.374 160.288 28.1966 159.258 27.8065C158.406 27.4868 157.661 26.9895 157.021 26.3518C156.419 25.7122 155.992 24.9321 155.709 24.1152C155.461 23.1576 155.319 22.1983 155.319 21.2759M164.299 19.8212C164.299 19.5014 164.228 19.1816 164.121 18.8636C164.051 18.5439 163.873 18.2961 163.696 18.0466C163.483 17.7989 163.234 17.5846 162.951 17.444C162.596 17.2666 162.241 17.1963 161.851 17.1963C161.461 17.1963 161.106 17.2666 160.751 17.444C160.467 17.5863 160.184 17.7638 159.971 18.0115C159.759 18.2592 159.581 18.5439 159.474 18.8636C159.367 19.1834 159.297 19.5032 159.261 19.8212H164.3M144.923 11.0188L148.757 10.4162V14.3904H153.37V17.5846H148.757V22.3406C148.722 23.0153 148.864 23.69 149.182 24.2575C149.466 24.7196 150.034 24.9673 150.921 24.9673C151.346 24.9673 151.773 24.9321 152.163 24.8601C152.589 24.7898 152.98 24.6827 153.37 24.5403L153.903 27.5219C153.406 27.7345 152.873 27.8768 152.341 28.0191C151.666 28.1614 150.956 28.2317 150.247 28.2317C149.359 28.2668 148.472 28.1245 147.655 27.8065C147.016 27.5588 146.448 27.1319 146.023 26.6346C145.598 26.1023 145.313 25.4627 145.136 24.7898C144.958 24.0097 144.888 23.1928 144.923 22.4127V11.0206M129.413 21.2777C129.377 20.213 129.59 19.1483 129.945 18.1538C130.265 17.3017 130.762 16.5567 131.4 15.8821C132.002 15.2794 132.677 14.8174 133.459 14.5327C134.239 14.213 135.056 14.0707 135.873 14.0707C137.79 14.0707 139.315 14.6733 140.416 15.8452C141.516 17.0171 142.084 18.7547 142.084 21.0264C142.084 21.239 142.084 21.4885 142.049 21.7714C142.013 22.0543 142.013 22.2686 142.013 22.4812H133.318C133.389 23.2261 133.78 23.936 134.418 24.3629C135.198 24.8601 136.122 25.1078 137.045 25.0727C137.719 25.0727 138.429 25.0024 139.104 24.8953C139.671 24.7881 140.239 24.6106 140.808 24.3629L141.341 27.4868C141.093 27.6291 140.808 27.6994 140.524 27.8065C140.134 27.9137 139.743 28.0191 139.352 28.0543C138.927 28.1245 138.5 28.1966 138.002 28.2668C137.54 28.302 137.045 28.3371 136.548 28.3371C135.448 28.3723 134.383 28.1948 133.353 27.8048C132.501 27.485 131.756 26.9878 131.117 26.35C130.514 25.7105 130.087 24.9304 129.804 24.1134C129.52 23.1559 129.379 22.1966 129.414 21.2742M138.394 19.8194C138.394 19.4996 138.324 19.1799 138.217 18.8619C138.146 18.5421 137.969 18.2944 137.792 18.0449C137.579 17.7972 137.329 17.5828 137.047 17.4423C136.692 17.2648 136.337 17.1945 135.947 17.1945C135.557 17.1945 135.202 17.2648 134.847 17.4423C134.562 17.5846 134.315 17.762 134.102 18.0097C133.889 18.2575 133.712 18.5421 133.605 18.8619C133.498 19.1816 133.427 19.5014 133.392 19.8194H138.396M114.865 14.8507C115.682 14.6382 116.532 14.4607 117.384 14.3184C118.449 14.1409 119.549 14.0707 120.614 14.0707C121.571 14.0355 122.531 14.213 123.453 14.5327C124.163 14.7805 124.802 15.2074 125.263 15.7749C125.725 16.3424 126.043 17.0171 126.22 17.7269C126.433 18.5439 126.505 19.3942 126.505 20.2464V27.8768H122.708V20.7436C122.708 19.5014 122.531 18.6493 122.211 18.1169C121.891 17.6197 121.288 17.3368 120.401 17.3368C120.117 17.3368 119.834 17.3368 119.514 17.372C119.194 17.372 118.946 17.4071 118.697 17.4423V27.8768H114.863V14.8507M112.166 17.7972C111.811 17.7269 111.421 17.6197 110.959 17.5494C110.462 17.4423 109.965 17.4071 109.469 17.4071C109.185 17.4071 108.902 17.4423 108.582 17.4774C108.334 17.5125 108.085 17.5477 107.837 17.6197V27.9471H104.004V15.0985C104.784 14.8138 105.601 14.6013 106.418 14.4238C107.447 14.1761 108.512 14.0689 109.541 14.104C109.789 14.104 110.039 14.1392 110.286 14.1392C110.571 14.1392 110.854 14.1743 111.174 14.2464C111.458 14.2815 111.741 14.3166 112.061 14.3887C112.309 14.4238 112.558 14.4958 112.806 14.6013L112.166 17.7954M88.3526 21.2742C88.3175 20.2095 88.5301 19.1447 88.885 18.1503C89.2047 17.2982 89.7019 16.5532 90.3397 15.8786C90.9424 15.2759 91.617 14.8138 92.3989 14.5292C93.179 14.2095 93.9959 14.0671 94.8129 14.0671C96.7298 14.0671 98.2548 14.6698 99.3564 15.8417C100.456 17.0136 101.024 18.7512 101.024 20.9878C101.024 21.2004 101.024 21.4499 100.989 21.7327C100.953 22.0156 100.953 22.23 100.953 22.4425H92.2583C92.3286 23.1875 92.7204 23.8973 93.3582 24.3242C94.1383 24.8215 95.0624 25.0692 95.9848 25.0341C96.6595 25.0341 97.3693 24.9638 98.044 24.8566C98.6115 24.7494 99.179 24.572 99.7113 24.3594L100.244 27.4832C99.9959 27.6256 99.7113 27.6958 99.4267 27.803C99.0366 27.9102 98.6466 28.0156 98.2548 28.0507C97.8296 28.121 97.4027 28.1931 96.9055 28.2633C96.4434 28.2985 95.9479 28.3336 95.4507 28.3336C94.3508 28.3688 93.2861 28.1913 92.2566 27.8013C91.4044 27.4815 90.6595 26.9843 90.02 26.3465C89.4173 25.707 88.9904 24.9269 88.7075 24.1099C88.4949 23.1524 88.3526 22.2282 88.3526 21.2707M97.3675 19.8159C97.3675 19.4961 97.2973 19.1764 97.1901 18.8584C97.1198 18.5386 96.9424 18.2909 96.7649 18.0414C96.5523 17.7936 96.3028 17.5793 96.02 17.4387C95.665 17.2613 95.3101 17.191 94.9201 17.191C94.5301 17.191 94.1751 17.2613 93.8202 17.4387C93.5356 17.581 93.2527 17.7585 93.0402 18.0062C92.8276 18.254 92.6501 18.5386 92.5429 18.8584C92.4358 19.1781 92.3655 19.4979 92.3304 19.8159H97.3693M82.1435 21.0581C82.1435 18.5737 81.2211 17.3667 79.4115 17.3667C79.0214 17.3667 78.6314 17.4018 78.2396 17.509C77.9198 17.5793 77.6001 17.7216 77.3172 17.8991V24.8548C77.4946 24.89 77.7424 24.9251 78.027 24.962C78.3116 24.9989 78.6296 24.9972 78.9845 24.9972C79.9069 25.0674 80.7942 24.6774 81.3617 23.9324C81.8941 23.0803 82.1787 22.0876 82.1418 21.0581M86.0457 21.2004C86.0457 22.1948 85.9034 23.1875 85.5485 24.1468C85.2639 24.9989 84.8036 25.7439 84.1992 26.3834C83.5596 27.0229 82.8147 27.5184 81.9995 27.8382C81.0419 28.1931 80.0475 28.3354 79.0179 28.3354C78.5558 28.3354 78.0604 28.3002 77.5632 28.2651C77.0659 28.23 76.5687 28.1579 76.0733 28.1228C75.6112 28.0525 75.1509 27.9805 74.6888 27.875C74.2267 27.8048 73.8367 27.6976 73.5169 27.5553V8.57139L77.3506 7.96875V14.7119C77.7758 14.5345 78.2378 14.3922 78.6999 14.2868C79.1971 14.1796 79.6943 14.1444 80.1898 14.1444C81.0771 14.1444 81.9292 14.2868 82.7444 14.6768C83.4542 14.9966 84.0938 15.4938 84.5892 16.0964C85.1216 16.7711 85.5116 17.516 85.7242 18.333C85.9368 19.2203 86.044 20.2147 86.044 21.2074M69.8607 27.4534C69.0437 27.666 68.1933 27.8434 67.3412 27.9506C66.2765 28.128 65.1766 28.1983 64.1119 28.1983C63.1175 28.2335 62.16 28.056 61.2376 27.7362C60.5277 27.4516 59.9251 27.0264 59.4279 26.4589C58.9658 25.8563 58.6478 25.1816 58.4704 24.4367C58.2578 23.6197 58.1857 22.7324 58.1857 21.8821V14.3939H62.0194V21.4569C62.0194 22.6991 62.1968 23.5863 62.5166 24.1187C62.8364 24.651 63.439 24.9357 64.3263 24.9357C64.6109 24.9357 64.8938 24.9357 65.2135 24.9005C65.5333 24.8654 65.781 24.8654 66.0305 24.7934V14.3939H69.8642V27.4551M47.5052 19.2923C47.8953 18.8671 48.2502 18.4402 48.6771 18.015C49.0671 17.5529 49.4572 17.1278 49.849 16.7026C50.239 16.2405 50.5939 15.8504 50.9137 15.4604C51.2335 15.0704 51.5532 14.7155 51.801 14.4308H56.3444C55.422 15.4604 54.5348 16.49 53.6827 17.4475C52.7954 18.4051 51.873 19.3995 50.8434 20.3939C51.4109 20.9263 51.9433 21.4586 52.4405 22.0613C52.9728 22.7008 53.5052 23.3386 54.0376 24.0484C54.5348 24.7231 55.032 25.4329 55.4572 26.1076C55.8824 26.7822 56.2373 27.42 56.5219 27.9893H52.1207C51.8361 27.5272 51.5181 27.0668 51.1632 26.5345C50.8083 26.0021 50.4182 25.4698 50.0633 24.9023C49.6733 24.3699 49.2463 23.8376 48.786 23.3403C48.396 22.8783 47.969 22.4531 47.5087 22.0982V28.0244H43.675V8.57139L47.5087 7.96875V19.2906" fill="#A6ABB1"/>
</g>
<defs>
<clipPath id="clip0_563_59309">
<rect width="177.674" height="30" fill="white" transform="translate(2.92236 3)"/>
</clipPath>
</defs>
</svg>
