<svg width="184" height="36" viewBox="0 0 184 36" fill="none" xmlns="http://www.w3.org/2000/svg">
<path d="M180.162 10.7646V22.3842H178.389V10.7646H180.162Z" fill="#A6ABB1"/>
<path d="M171.627 10.7646H173.399V18.4125C173.399 20.8415 171.561 22.5811 168.804 22.5811C165.998 22.5811 164.176 20.8415 164.176 18.4125V10.7646H165.948V18.2484C165.932 19.8404 167.032 20.9728 168.804 20.9728C170.544 20.9728 171.627 19.8404 171.627 18.2484V10.7646Z" fill="#A6ABB1"/>
<path d="M159.343 15.8193V17.2964H154.19V15.8193H159.343Z" fill="#A6ABB1"/>
<path d="M143.987 22.3842V10.7646H145.76V20.8743H151.011V22.3842H143.987Z" fill="#A6ABB1"/>
<path d="M131.351 22.3842H129.48L133.649 10.7646H135.684L139.885 22.3842H137.982L136.931 19.3316H132.402L131.351 22.3842ZM132.927 17.8545H136.422L134.732 12.8982H134.634L132.927 17.8545Z" fill="#A6ABB1"/>
<path d="M125.378 10.7646V22.3842H123.605V10.7646H125.378Z" fill="#A6ABB1"/>
<path d="M110.866 22.3842V10.7646H115.002C117.71 10.7811 119.04 12.2745 119.04 14.4081C119.04 15.9672 118.334 17.1652 116.906 17.6904L119.466 22.3842H117.464L115.084 17.9858H115.002H112.639V22.3842H110.866ZM112.639 16.4759H114.838C116.545 16.4759 117.251 15.721 117.267 14.4081C117.251 13.1115 116.545 12.2909 114.838 12.3074H112.639V16.4759Z" fill="#A6ABB1"/>
<path d="M98.8167 22.3842V10.7646H106.103V12.3074H100.589V15.8195H105.71V17.3294H100.589V20.8743H106.169V22.3842H98.8167Z" fill="#A6ABB1"/>
<path d="M85.3906 12.3074V10.7646H94.3843V12.3074H90.7737V22.3842H89.034V12.3074H85.3906Z" fill="#A6ABB1"/>
<path d="M74.7237 22.3842H72.8528L77.0214 10.7646H79.0564L83.2578 22.3842H81.3541L80.3037 19.3316H75.7741L74.7237 22.3842ZM76.2993 17.8545H79.795L78.1045 12.8982H78.0061L76.2993 17.8545Z" fill="#A6ABB1"/>
<path d="M56.9617 10.7646H59.0952L62.8043 19.7583H62.9355L66.6118 10.7646H68.7453V22.3842H67.0713V14.0142H66.9728L63.5592 22.3514H62.1478L58.7341 13.9814H58.6357V22.3842H56.9617V10.7646Z" fill="#A6ABB1"/>
<g clip-path="url(#clip0_562_50872)">
<path d="M27.4805 27.4745C28.0641 27.1506 28.6502 26.8317 29.23 26.5021C30.2586 25.9178 31.2847 25.3304 32.3088 24.7392C33.5662 24.0138 34.821 23.284 36.0758 22.5554C36.2359 22.4628 36.3821 22.3336 36.5536 22.275C36.8863 22.1609 36.9267 21.9315 36.9242 21.622C36.9116 20.0413 36.9216 18.46 36.9141 16.8794C36.9135 16.6922 36.9607 16.5951 37.1328 16.4968C38.5445 15.6926 39.9469 14.872 41.3536 14.059C41.4418 14.0079 41.5427 13.9808 41.6378 13.9424V24.8231C41.0466 25.1527 40.4523 25.4766 39.8656 25.8138C39.009 26.3067 38.1595 26.8115 37.3042 27.3063C36.263 27.9088 35.2187 28.5063 34.1769 29.1075C33.321 29.6016 32.4658 30.0983 31.6105 30.593C30.7206 31.1073 29.8319 31.6241 28.9395 32.134C28.458 32.4094 27.9695 32.6722 27.4843 32.9407C27.483 31.1187 27.4817 29.2966 27.4805 27.4752V27.4745Z" fill="#A6ABB1"/>
<path d="M27.4846 32.941C27.4809 32.9605 27.4796 32.9801 27.4802 32.9996H27.4172C26.9634 32.7236 26.5134 32.4406 26.0552 32.1721C24.7393 31.4026 23.4214 30.6355 22.101 29.8729C20.8348 29.1419 19.5655 28.4158 18.2949 27.6916C18.1424 27.6047 18.0353 27.524 18.0359 27.316C18.0447 25.6408 18.0403 23.9656 18.0435 22.2904C18.0435 22.2135 18.0794 22.136 18.0983 22.0591C18.697 22.4133 19.2926 22.7732 19.8951 23.1217C20.8481 23.6732 21.8054 24.2177 22.7603 24.7648C23.1945 25.0351 23.6224 25.315 24.063 25.5734C25.0935 26.1765 26.129 26.7708 27.1651 27.3639C27.2603 27.4181 27.3743 27.4383 27.4802 27.4748C27.4815 29.2969 27.4827 31.119 27.484 32.9404L27.4846 32.941Z" fill="#A6ABB1"/>
<path d="M41.6384 8.47185C41.056 8.79391 40.4686 9.10778 39.8913 9.43992C38.9125 10.0027 37.9407 10.5763 36.9184 11.1725V10.8315C36.9184 9.25147 36.9235 7.6708 36.9134 6.09076C36.9115 5.82605 36.9714 5.67668 37.2266 5.53361C38.634 4.74454 40.023 3.92395 41.419 3.11471C41.4903 3.07311 41.5653 3.03782 41.6384 3V8.47185Z" fill="#A6ABB1"/>
<path d="M22.7605 24.7664C21.8051 24.2187 20.8484 23.6748 19.8954 23.1233C19.2935 22.7748 18.6973 22.4155 18.0986 22.0607C18.7956 21.6479 19.4902 21.2313 20.1904 20.8235C21.0803 20.3054 21.9746 19.7949 22.8677 19.2819C23.8931 18.6926 24.9198 18.1033 25.9452 17.5141C26.3921 17.2575 26.8427 17.0073 27.2801 16.7357C27.3734 16.6777 27.4711 16.5378 27.4717 16.4344C27.4837 14.7473 27.4799 13.0601 27.4792 11.3729C27.4792 11.3332 27.4685 11.2941 27.4534 11.1926C27.0828 11.4025 26.7381 11.5954 26.3965 11.7926C25.5223 12.2975 24.6494 12.8042 23.7759 13.3103C22.7517 13.9033 21.7282 14.4964 20.7034 15.0895C19.8563 15.5792 19.0099 16.0689 18.1616 16.5567C18.1288 16.5756 18.0822 16.5699 18.0425 16.5756C18.0425 14.7586 18.0425 12.9416 18.0425 11.1246C18.6103 10.8145 19.1832 10.5126 19.7442 10.1912C20.6108 9.69578 21.4679 9.18402 22.3313 8.6836C23.2225 8.16679 24.1162 7.65439 25.0099 7.14074C26.036 6.55082 27.0645 5.96532 28.0893 5.37288C29.2042 4.72813 30.316 4.07771 31.4303 3.43108C31.6679 3.29305 31.9087 3.16007 32.1853 3.00439C32.1916 3.13549 32.1998 3.22309 32.1998 3.31133C32.1998 8.56196 32.1998 13.8126 32.2049 19.0632C32.2049 19.2617 32.157 19.3765 31.9742 19.4811C29.9732 20.6262 27.9784 21.7809 25.983 22.9355C24.9664 23.5235 23.9524 24.1159 22.9358 24.7046C22.8834 24.7349 22.8198 24.7468 22.7618 24.7676L22.7605 24.7664Z" fill="#A6ABB1"/>
<path d="M18.0411 11.1221C18.0411 12.9391 18.0411 14.7561 18.0411 16.5732C17.6302 16.362 17.2105 16.166 16.8096 15.9372C15.655 15.278 14.5073 14.6061 13.3571 13.9381C11.9302 13.1093 10.5046 12.278 9.07769 11.4492C8.93589 11.3673 8.78841 11.2961 8.60437 11.1996V22.0891C7.57517 21.4935 6.59765 20.9263 5.61887 20.3622C5.13546 20.0837 4.6508 19.8076 4.16488 19.5347C3.99597 19.4395 3.87622 19.3469 3.87622 19.1112C3.88378 13.8183 3.88189 8.52486 3.88252 3.23201C3.88252 3.17213 3.88757 3.11163 3.89198 3.01709C4.73588 3.50301 5.55395 3.97444 6.37328 4.44524C7.40942 5.04083 8.44744 5.63389 9.48231 6.23263C10.4907 6.81687 11.4947 7.40931 12.5031 7.99481C13.5021 8.57464 14.5035 9.14943 15.5044 9.72611C16.2374 10.1484 16.9697 10.5707 17.7052 10.9879C17.8092 11.0471 17.929 11.078 18.0418 11.1221H18.0411Z" fill="#A6ABB1"/>
</g>
<defs>
<clipPath id="clip0_562_50872">
<rect width="37.7622" height="30" fill="white" transform="translate(3.87573 3)"/>
</clipPath>
</defs>
</svg>
