<svg width="126" height="36" viewBox="0 0 126 36" fill="none" xmlns="http://www.w3.org/2000/svg">
<path fill-rule="evenodd" clip-rule="evenodd" d="M120.428 12.0813L123.91 11.251V24.4026H121.259L121.027 23.8164C120.211 24.4034 119.219 24.7512 118.15 24.7512C115.369 24.7512 113.115 22.6083 113.115 19.595C113.115 16.5816 115.369 14.4388 118.15 14.4388C118.971 14.4388 119.745 14.6441 120.428 15.0053V12.0813ZM118.673 21.618C119.775 21.618 120.673 20.7769 120.668 19.5555C120.663 18.3341 119.775 17.493 118.673 17.493C117.571 17.493 116.678 18.3502 116.678 19.5555C116.678 20.7609 117.571 21.618 118.673 21.618ZM84.9105 12.0816L88.6068 11.2512V24.4029H84.9105V12.0816ZM77.1021 24.6965C73.5001 24.6965 70.58 21.7763 70.58 18.1742C70.58 14.5721 73.5001 11.652 77.1021 11.652C79.8701 11.652 82.2353 13.3763 83.1823 15.8093L79.6333 16.6742C78.819 15.0564 77.2584 14.9912 76.5798 15.1608C74.7263 15.5573 74.3344 17.3439 74.3701 18.1876C74.3808 20.6626 76.2584 21.2724 77.1959 21.2679C78.4708 21.2894 79.3521 20.2411 79.6333 19.7144H83.4413C82.7492 22.5732 80.1736 24.6965 77.1021 24.6965ZM1.11328 11.8534H4.95691L9.67104 18.5363V11.8534H13.7022V24.4157H9.83175L5.18458 17.7194V24.4157H1.11328V11.8534ZM19.9832 11.8534L15.0414 24.4157H19.1931L19.7957 22.755H24.5366L25.1393 24.4157H29.3043L24.4027 11.8534H19.9832ZM32.1034 24.4157L27.1482 11.8534H31.3534L34.3399 20.1167L37.2728 11.8534H41.4513L36.5229 24.4157H32.1034ZM42.7637 11.8534V24.4157H52.6607V21.3622H46.7681V19.6613H52.4599V16.648H46.7681V14.9203H52.5268V11.8534H42.7637ZM54.6294 24.4157V11.8534L60.3346 11.8668C61.6631 11.9203 62.8435 12.2194 63.2675 12.3623C65.5068 13.0801 66.013 15.2685 65.9862 16.273C66.0398 18.7479 64.2854 19.8756 63.4015 20.1301L66.5755 24.4157H62.3836L59.9864 20.9068H58.5534V24.4157H54.6294ZM58.5693 17.6537L58.5694 15.0823H60.6987C61.4088 15.0823 61.9844 15.6579 61.9844 16.368C61.9844 17.078 61.4088 17.6537 60.6987 17.6537H58.5693ZM20.8295 19.6894L22.2357 15.8323L23.5883 19.6894H20.8295ZM102.266 15.5386L105.788 14.7082L105.802 14.7131V20.2931C105.802 20.9661 106.348 21.5118 107.021 21.5118C107.694 21.5118 108.24 20.9661 108.24 20.2931V15.5386L108.239 15.5385L111.774 14.7082V20.3868C111.774 22.7685 109.843 24.6992 107.462 24.6992H106.578C104.196 24.6992 102.266 22.7685 102.266 20.3868V15.5386ZM108.239 15.5385L105.802 14.7082V14.7131L108.239 15.5386L108.239 15.5385ZM95.4912 24.7012C98.4794 24.7012 100.915 22.5985 100.902 19.545C100.888 16.4915 98.4794 14.3888 95.4912 14.3888C92.5031 14.3888 90.0807 16.5316 90.0807 19.545C90.0807 22.5584 92.5031 24.7012 95.4912 24.7012ZM95.506 21.5667C96.5785 21.5667 97.4527 20.742 97.4479 19.5444C97.4431 18.3468 96.5785 17.5221 95.506 17.5221C94.4335 17.5221 93.5641 18.3626 93.5641 19.5444C93.5641 20.7263 94.4335 21.5667 95.506 21.5667Z" fill="#A6ABB1"/>
</svg>
