<svg width="99" height="36" viewBox="0 0 99 36" fill="none" xmlns="http://www.w3.org/2000/svg">
<path d="M35.4146 18.0034C35.4146 15.772 32.6427 13.657 28.3923 12.3453C29.3732 7.97806 28.9374 4.50354 27.0164 3.3915C26.574 3.1305 26.0562 3.00675 25.491 3.00675V4.53786C25.8046 4.53786 26.0562 4.59973 26.2677 4.71617C27.1939 5.25166 27.5956 7.29126 27.2826 9.91416C27.2078 10.5593 27.0851 11.2394 26.935 11.933C25.5998 11.6033 24.1425 11.3491 22.6098 11.1843C21.6903 9.91416 20.7368 8.76049 19.7766 7.75082C21.9972 5.67015 24.0811 4.53054 25.4977 4.53054V3C23.6247 3 21.1726 4.34605 18.6936 6.68039C16.2141 4.35955 13.7625 3.02756 11.8895 3.02756V4.55867C13.2994 4.55867 15.3906 5.69153 17.6107 7.75869C16.6571 8.7678 15.7036 9.91473 14.7975 11.1848C13.2582 11.3496 11.8008 11.6039 10.4657 11.9403C10.3089 11.2535 10.1934 10.5875 10.1114 9.94904C9.7911 7.32613 10.1861 5.28653 11.1056 4.74429C11.3098 4.62054 11.5754 4.56598 11.889 4.56598V3.03431C11.3171 3.03431 10.7993 3.15806 10.3496 3.41906C8.43586 4.53167 8.0068 7.99888 8.99436 12.3526C4.75846 13.6705 2 15.7787 2 18.0034C2 20.228 4.77186 22.3498 9.02226 23.6615C8.04139 28.0287 8.47715 31.5032 10.3981 32.6153C10.8406 32.8762 11.3584 33 11.9308 33C13.8038 33 16.256 31.654 18.7349 29.3196C21.2138 31.6405 23.666 32.9724 25.539 32.9724C26.1109 32.9724 26.6287 32.8487 27.0784 32.5877C28.9921 31.4751 29.4212 28.0079 28.4336 23.6542C32.6561 22.3424 35.4146 20.228 35.4146 18.0028V18.0034ZM26.5467 13.4236C26.2945 14.3095 25.9815 15.2224 25.6272 16.1359C25.3482 15.5863 25.0553 15.0373 24.735 14.4878C24.4215 13.9382 24.0878 13.4027 23.7542 12.8813C24.7211 13.0253 25.6545 13.2042 26.5467 13.4236ZM23.4272 20.7365C22.896 21.6635 22.3509 22.5421 21.7857 23.3594C20.7708 23.4489 19.7426 23.4967 18.707 23.4967C17.6715 23.4967 16.6499 23.4489 15.6422 23.3662C15.077 22.5489 14.5252 21.677 13.9941 20.7568C13.4763 19.8574 13.0065 18.9439 12.5775 18.0242C12.9998 17.1039 13.4763 16.1837 13.9874 15.2843C14.5185 14.3573 15.0637 13.4787 15.6288 12.6614C16.6437 12.5719 17.672 12.5241 18.7076 12.5241C19.7431 12.5241 20.7647 12.5719 21.7723 12.6546C22.3375 13.4719 22.8893 14.3438 23.4205 15.264C23.9383 16.1635 24.4081 17.0769 24.8371 17.9966C24.4081 18.9169 23.9383 19.8371 23.4272 20.7365ZM25.6272 19.8439C25.9948 20.7641 26.3084 21.6843 26.5673 22.5764C25.6751 22.7964 24.735 22.9814 23.7614 23.126C24.0951 22.5973 24.4287 22.055 24.7423 21.4987C25.0558 20.9492 25.3482 20.3934 25.6277 19.8439H25.6272ZM18.721 27.1703C18.0877 26.5111 17.4539 25.7765 16.8273 24.9732C17.4405 25.0008 18.0671 25.021 18.7003 25.021C19.3336 25.021 19.9741 25.0075 20.594 24.9732C19.9808 25.7765 19.3475 26.5111 18.721 27.1703ZM13.6537 23.126C12.6868 22.982 11.7534 22.8031 10.8612 22.5838C11.1134 21.6978 11.4264 20.7849 11.7807 19.8714C12.0597 20.421 12.3526 20.97 12.6729 21.5195C12.9931 22.0691 13.3201 22.6046 13.6537 23.126ZM18.6869 8.83699C19.3202 9.49623 19.954 10.2308 20.5806 11.0341C19.9674 11.0065 19.3408 10.9863 18.7076 10.9863C18.0743 10.9863 17.4338 10.9998 16.8139 11.0341C17.4271 10.2308 18.0604 9.49623 18.6869 8.83699ZM13.647 12.8813C13.3134 13.4101 12.9797 13.9523 12.6662 14.5086C12.3526 15.0582 12.0603 15.6072 11.7807 16.1567C11.413 15.2365 11.0995 14.3162 10.8406 13.4241C11.7327 13.2115 12.6729 13.0259 13.6465 12.8819L13.647 12.8813ZM7.48289 21.4779C5.07203 20.4412 3.51202 19.0817 3.51202 18.0034C3.51202 16.9251 5.07147 15.5588 7.48289 14.5289C8.06873 14.2746 8.70869 14.0479 9.3693 13.8353C9.75762 15.1813 10.2681 16.582 10.902 18.0169C10.2754 19.445 9.77157 20.8389 9.38994 22.1782C8.71539 21.9656 8.07543 21.7321 7.48289 21.4779ZM11.1469 31.29C10.2207 30.7545 9.819 28.7149 10.132 26.092C10.2068 25.4468 10.3295 24.7668 10.4796 24.0732C11.8148 24.4029 13.2721 24.6571 14.8048 24.8219C15.7243 26.092 16.6778 27.2457 17.638 28.2554C15.4174 30.336 13.3335 31.4756 11.9169 31.4756C11.6105 31.4689 11.3517 31.407 11.1475 31.29H11.1469ZM27.3027 26.0577C27.6229 28.6806 27.2279 30.7202 26.3084 31.2625C26.1042 31.3862 25.8386 31.4408 25.5251 31.4408C24.1151 31.4408 22.024 30.3079 19.8039 28.2407C20.7574 27.2316 21.711 26.0847 22.6171 24.8146C24.1564 24.6498 25.6138 24.3955 26.9489 24.0592C27.1057 24.7527 27.2279 25.4187 27.3032 26.0571L27.3027 26.0577ZM29.925 21.4779C29.3392 21.7321 28.6992 21.9588 28.0386 22.1714C27.6503 20.8254 27.1397 19.4248 26.5059 17.9899C27.1325 16.5617 27.6363 15.1678 28.0179 13.8286C28.6925 14.0412 29.3325 14.2746 29.9317 14.5289C32.3426 15.5655 33.9026 16.9251 33.9026 18.0034C33.8959 19.0817 32.3359 20.448 29.925 21.4779Z" fill="#A6ABB1"/>
<path d="M18.6997 21.1415C20.4188 21.1415 21.8124 19.7365 21.8124 18.0034C21.8124 16.2702 20.4188 14.8652 18.6997 14.8652C16.9805 14.8652 15.5869 16.2702 15.5869 18.0034C15.5869 19.7365 16.9805 21.1415 18.6997 21.1415Z" fill="#A6ABB1"/>
<g clip-path="url(#clip0_491_59416)">
<path d="M97.8022 23.2348C97.5735 23.3566 97.3496 23.4873 97.1155 23.5984C96.5945 23.8455 96.0456 23.8704 95.4753 23.8407C94.9715 23.8146 94.526 23.6887 94.1214 23.3887C93.6462 23.0352 93.4377 22.535 93.3533 21.9813C93.2981 21.6154 93.2904 21.24 93.2898 20.8687C93.2844 18.774 93.2868 16.6794 93.2868 14.5847V14.2312H91.5212V12.6386H93.2779V9.6748H95.0624V12.6112H97.2492V14.2146H95.069V14.5467C95.069 16.6811 95.0725 18.815 95.0666 20.9495C95.0654 21.4663 95.1729 21.9374 95.6654 22.1851C96.1454 22.4269 96.6112 22.2653 97.0448 22.0033C97.1185 21.9588 97.1916 21.9124 97.2652 21.8667C97.4482 22.2124 97.6252 22.5457 97.8017 22.8796V23.2354L97.8022 23.2348Z" fill="#A6ABB1"/>
<path d="M51.1674 17.4766C52.5212 19.5202 53.8597 21.5394 55.2195 23.5919C54.465 23.5919 53.7634 23.5972 53.0624 23.5853C52.9799 23.5841 52.8682 23.5087 52.8206 23.435C51.7294 21.7449 50.6458 20.0507 49.5598 18.357C49.5438 18.3321 49.5177 18.313 49.5064 18.2869C49.2658 17.7065 48.8458 17.5295 48.2196 17.5889C47.5353 17.6542 46.8396 17.6037 46.1286 17.6037V23.5687H44.2371V8.53245H44.5561C46.6056 8.53245 48.6551 8.51225 50.7046 8.54018C51.9628 8.5574 53.0696 9.01958 53.9197 9.95879C54.5434 10.6479 54.8761 11.4796 54.9842 12.4212C55.0941 13.3776 55.0003 14.2942 54.5874 15.1491C53.9981 16.3705 53.0036 17.1095 51.6622 17.3691C51.5042 17.4 51.3474 17.4374 51.1668 17.4766H51.1674ZM46.1392 10.2523V15.9433C46.8913 15.9433 47.6232 15.9511 48.3545 15.941C49.0929 15.9309 49.8343 15.9356 50.5692 15.8738C51.2464 15.8168 51.8458 15.5109 52.2997 15.0077C52.8123 14.4392 53.0375 13.7519 53.0143 12.9736C52.968 11.4297 51.9349 10.3829 50.4907 10.2754C49.0543 10.1685 47.6042 10.2517 46.1392 10.2517V10.2523Z" fill="#A6ABB1"/>
<path d="M67.1943 18.7308H58.4171C58.4111 19.3254 58.5965 19.8541 58.8454 20.3508C59.3313 21.3215 60.1209 21.9672 61.1634 22.2577C62.1389 22.5292 63.122 22.471 64.044 22.0421C64.6173 21.7753 65.1478 21.4171 65.7163 21.0892C65.9593 21.4165 66.2391 21.7926 66.5219 22.1728C65.6955 22.9795 64.7462 23.4856 63.6561 23.7048C62.1597 24.0054 60.7007 23.9246 59.326 23.1803C58.227 22.585 57.4785 21.6856 56.989 20.5474C56.5428 19.5096 56.4858 18.413 56.5927 17.3264C56.7109 16.1229 57.1731 15.0322 58.0119 14.1161C58.8704 13.1787 59.9028 12.609 61.17 12.4403C62.6813 12.2389 64.0624 12.5389 65.2547 13.5007C66.0793 14.166 66.6015 15.0536 66.9074 16.0635C67.167 16.9201 67.2531 17.7981 67.1949 18.7308H67.1943ZM58.4302 17.4066H65.4716C65.3908 15.3642 64.0173 13.8108 61.9078 13.8256C59.6931 13.8411 58.4723 15.6827 58.4302 17.4066Z" fill="#A6ABB1"/>
<path d="M78.4361 23.5785H76.7258V22.4741C76.3783 22.7236 76.0664 22.9607 75.7415 23.1775C75.1831 23.55 74.5468 23.7306 73.894 23.8173C73.1781 23.9123 72.4581 23.8892 71.7631 23.6498C70.5292 23.2256 69.6565 22.4141 69.3755 21.1327C68.9128 19.0173 69.9767 17.1507 72.2098 16.71C73.367 16.4818 74.4779 16.6286 75.5252 17.1401C75.947 17.3462 76.3082 17.6735 76.7128 17.9569C76.7128 17.5719 76.7252 17.1543 76.7092 16.7385C76.6938 16.35 76.6938 15.9525 76.607 15.5771C76.3944 14.6569 75.7064 14.1787 74.8492 14.0022C73.6825 13.7616 72.5555 13.941 71.5575 14.6408C71.2391 14.8642 70.9569 15.1399 70.6207 15.4232C70.3516 15.0306 70.0771 14.6296 69.7991 14.2238C70.645 13.2983 71.6579 12.7304 72.8639 12.5028C73.9266 12.302 74.9864 12.3145 76.0213 12.6288C77.2456 13.0007 78.148 13.8531 78.3732 15.2141C78.4142 15.463 78.4326 15.7185 78.4326 15.9709C78.4367 18.3911 78.435 20.8113 78.435 23.2309V23.5779L78.4361 23.5785ZM76.7134 20.2482C76.7134 20.1003 76.6973 19.95 76.7163 19.8038C76.7757 19.3559 76.6058 19.0393 76.2494 18.7589C75.1445 17.8909 73.9112 17.6492 72.6031 18.0971C71.3395 18.5302 70.7983 19.8234 71.1945 20.964C71.5534 21.9977 72.4361 22.4931 73.5025 22.5781C74.1328 22.628 74.7441 22.505 75.334 22.2828C75.8692 22.0808 76.3361 21.7458 76.6397 21.2824C76.7876 21.0573 76.6967 20.6765 76.714 20.3658C76.7163 20.3266 76.714 20.2868 76.714 20.247L76.7134 20.2482Z" fill="#A6ABB1"/>
<path d="M90.7059 14.2881C90.2669 14.6826 89.8831 15.0271 89.5172 15.355C89.2415 15.0966 89.0027 14.8554 88.7461 14.6344C88.2583 14.2144 87.6797 14.0451 87.0429 13.9762C86.1821 13.883 85.4128 14.0861 84.6904 14.5323C83.7565 15.1091 83.3015 16.0085 83.0799 17.0297C82.8209 18.2238 82.9599 19.3899 83.5558 20.4687C84.1053 21.4638 84.9542 22.0513 86.0918 22.2319C86.8914 22.359 87.6583 22.2943 88.3445 21.8624C88.7669 21.5962 89.1292 21.235 89.5433 20.8958C89.8902 21.2166 90.2835 21.5808 90.6673 21.9354C90.1789 22.6144 89.5831 23.1408 88.831 23.4259C88.3047 23.6255 87.7344 23.7265 87.1748 23.8204C86.3538 23.9582 85.5369 23.8406 84.7641 23.5679C82.9356 22.9222 81.8342 21.6075 81.3423 19.7475C81.1356 18.9657 81.107 18.1685 81.1837 17.3855C81.3262 15.9325 81.8942 14.6457 83.014 13.6649C83.8029 12.9735 84.7302 12.5612 85.787 12.4394C86.6419 12.3408 87.4783 12.3622 88.3077 12.6158C88.9314 12.8065 89.494 13.0929 89.9645 13.5461C90.211 13.7843 90.4498 14.0309 90.7059 14.2875V14.2881Z" fill="#A6ABB1"/>
</g>
<defs>
<clipPath id="clip0_491_59416">
<rect width="53.5647" height="15.3547" fill="white" transform="translate(44.2371 8.52588)"/>
</clipPath>
</defs>
</svg>
