<svg width="95" height="36" viewBox="0 0 95 36" fill="none" xmlns="http://www.w3.org/2000/svg">
<path d="M31.8668 22.5441C31.5888 22.3942 31.3747 22.0737 31.3747 21.6463C31.3747 21.0699 31.8236 20.6024 32.4248 20.6024C32.6379 20.6024 32.8314 20.6651 32.9798 20.7504C34.0731 21.4767 35.2076 21.8404 36.2341 21.8404C37.3471 21.8404 37.9895 21.3699 37.9895 20.621V20.5789C37.9895 19.7026 36.7911 19.4046 35.463 18.9988C33.7941 18.5283 31.9317 17.8461 31.9317 15.6877V15.6446C31.9317 13.5088 33.7086 12.2061 35.9561 12.2061C37.1555 12.2061 38.4178 12.5482 39.5091 13.1246C39.8745 13.3177 40.1299 13.6597 40.1299 14.1067C40.1299 14.7056 39.6594 15.1545 39.0602 15.1545C38.8451 15.1545 38.7164 15.1114 38.5474 15.0261C37.6251 14.5556 36.684 14.2557 35.8923 14.2557C34.8854 14.2557 34.3078 14.7272 34.3078 15.3682V15.4094C34.3078 16.2425 35.5279 16.5836 36.8559 17.012C38.5042 17.5246 40.3667 18.2725 40.3667 20.3015V20.3446C40.3667 22.7157 38.5248 23.889 36.1703 23.889C34.7371 23.889 33.1743 23.442 31.8678 22.5441M50.4009 18.0598V18.0167C50.4009 15.8387 48.9235 14.4076 47.1691 14.4076C45.4147 14.4076 43.8725 15.8603 43.8725 18.0167V18.0598C43.8725 20.2172 45.4137 21.6708 47.1691 21.6708C48.9245 21.6708 50.4009 20.2819 50.4009 18.0598ZM41.346 13.5098C41.346 12.7844 41.902 12.2071 42.6309 12.2071C43.3597 12.2071 43.9363 12.7844 43.9363 13.5098V14.2802C44.7713 13.1059 45.9481 12.1659 47.7899 12.1659C50.4441 12.1659 53.0344 14.2586 53.0344 18.0176V18.0608C53.0344 21.7992 50.4657 23.9135 47.7899 23.9135C45.9068 23.9135 44.7291 22.9725 43.9363 21.9286V25.9209C43.9363 26.6501 43.3587 27.2049 42.6309 27.2049C41.903 27.2049 41.346 26.6492 41.346 25.9209V13.5117M54.0147 13.5137C54.0147 12.7893 54.5697 12.211 55.2976 12.211C56.0255 12.211 56.6041 12.7884 56.6041 13.5137V14.1351C56.7337 13.1677 58.3162 12.211 59.4508 12.211C60.2641 12.211 60.7356 12.7442 60.7356 13.4921C60.7356 14.1753 60.2857 14.6242 59.7072 14.7311C57.8663 15.0516 56.6041 16.6591 56.6041 18.8831V22.6098C56.6041 23.3155 56.0265 23.8919 55.2976 23.8919C54.5688 23.8919 54.0147 23.3361 54.0147 22.6098V13.5147M61.715 13.5196C61.715 12.7933 62.2729 12.2159 62.9998 12.2159C63.7267 12.2159 64.3053 12.7933 64.3053 13.5196V22.6118C64.3053 23.3371 63.7267 23.8919 62.9998 23.8919C62.2729 23.8919 61.715 23.3371 61.715 22.6118V13.5196ZM65.6118 13.5245C65.6118 12.7982 66.1687 12.2218 66.8956 12.2218C67.6225 12.2218 68.2021 12.7982 68.2021 13.5245V14.0548C68.931 13.0079 69.9781 12.2159 71.7335 12.2159C74.2806 12.2159 75.7589 13.9254 75.7589 16.5307V22.6098C75.7589 23.3351 75.202 23.8919 74.4741 23.8919C73.7462 23.8919 73.1686 23.3361 73.1686 22.6098V17.3207C73.1686 15.5701 72.2914 14.5654 70.7492 14.5654C69.207 14.5654 68.2021 15.6123 68.2021 17.3648V22.6098C68.2021 23.3351 67.6245 23.8919 66.8956 23.8919C66.1668 23.8919 65.6118 23.3361 65.6118 22.6098V13.5245ZM82.6046 21.6502C80.8266 21.6502 79.3718 20.2613 79.3718 18.0402V17.998C79.3718 15.8201 80.8472 14.389 82.6046 14.389C84.3619 14.389 85.9012 15.8416 85.9012 17.998V18.0402C85.9012 20.1976 84.3599 21.6502 82.6046 21.6502ZM87.1398 12.1875C86.4129 12.1875 85.8354 12.7658 85.8354 13.4902V14.2586C84.9994 13.0844 83.8236 12.1444 81.9838 12.1444C79.3276 12.1444 76.7383 14.2371 76.7383 17.9961V18.0382C76.7383 21.7767 79.306 23.8899 81.9838 23.8899C83.856 23.8899 85.0309 22.9607 85.8236 21.9207C85.6939 23.9517 84.4474 25.024 82.2617 25.024C80.9573 25.024 79.8217 24.7025 78.7933 24.1252C78.6646 24.0624 78.5172 24.0203 78.3237 24.0203C77.7245 24.0203 77.2304 24.5124 77.2304 25.0867C77.2304 25.5788 77.5094 25.9415 77.9603 26.112C79.3286 26.7746 80.7402 27.1167 82.3246 27.1167C84.359 27.1167 85.9434 26.6256 86.9709 25.6004C87.911 24.6594 88.4247 23.2518 88.4247 21.3503V13.4902C88.4247 12.7648 87.8687 12.1875 87.1389 12.1875M64.3151 9.10286C64.3151 9.82133 63.7297 10.4055 63.0087 10.4055C62.2877 10.4055 61.7032 9.82133 61.7032 9.10286C61.7032 8.38438 62.2867 7.80019 63.0087 7.80019C63.7307 7.80019 64.3151 8.38242 64.3151 9.10286ZM23.1774 23.1156C20.3061 26.9334 14.1727 25.6445 10.2395 25.8297C10.2395 25.8297 9.54308 25.8679 8.84172 25.9836C8.84172 25.9836 9.10694 25.8709 9.44485 25.7542C12.2071 24.8015 13.5126 24.6094 15.1903 23.7498C18.3435 22.1383 21.482 18.6273 22.1204 14.98C20.9201 18.4881 17.2698 21.5071 13.9457 22.7333C11.6707 23.5714 7.55687 24.3859 7.55589 24.3869C7.55785 24.3898 7.39184 24.3006 7.38988 24.2987C4.59229 22.9401 4.51076 16.8934 9.59318 14.9438C11.821 14.0891 13.9526 14.5586 16.3612 13.9861C18.9299 13.3765 21.9053 11.4553 23.1145 8.94309C24.4701 12.956 26.0988 19.2331 23.1774 23.1156ZM23.2275 7.69923C22.8857 8.50984 22.4682 9.24008 21.9878 9.89289C19.871 7.7257 16.9162 6.375 13.6501 6.375C7.22583 6.375 2 11.5906 2 17.999C2 21.3591 3.4371 24.3888 5.72881 26.5129L5.98421 26.7384C5.55789 26.3914 5.49306 25.767 5.83785 25.3416C6.18558 24.9162 6.8113 24.8495 7.23762 25.1946C7.66492 25.5406 7.72975 26.1659 7.38399 26.5923C7.0392 27.0187 6.41151 27.0834 5.98519 26.7393L6.15906 26.8932C8.18554 28.5958 10.7985 29.625 13.6501 29.625C19.7904 29.625 24.8326 24.8564 25.2648 18.8381C25.584 15.8916 24.7118 12.1493 23.2275 7.69923ZM91.459 12.9981H91.0523V13.5353H91.459C91.5907 13.5353 91.735 13.4294 91.735 13.2726C91.735 13.104 91.5907 12.9971 91.459 12.9971V12.9981ZM91.7105 14.3292L91.3156 13.7293H91.0523V14.3292H90.8402V12.8109H91.46C91.7174 12.8109 91.9551 12.9922 91.9551 13.2735C91.9551 13.6107 91.6535 13.7235 91.5661 13.7235L91.9737 14.3292H91.7105ZM91.347 12.4423C90.7203 12.4423 90.2194 12.9422 90.2194 13.5676C90.2194 14.193 90.7203 14.6929 91.347 14.6929C91.9737 14.6929 92.4737 14.1861 92.4737 13.5676C92.4737 12.9491 91.9659 12.4423 91.347 12.4423ZM91.347 14.8928C90.6142 14.8928 90.019 14.2988 90.019 13.5676C90.019 12.8364 90.6142 12.2424 91.347 12.2424C92.0798 12.2424 92.6751 12.8295 92.6751 13.5676C92.6751 14.3057 92.0857 14.8928 91.347 14.8928Z" fill="#A6ABB1"/>
</svg>
