<svg width="140" height="36" viewBox="0 0 140 36" fill="none" xmlns="http://www.w3.org/2000/svg">
<path fill-rule="evenodd" clip-rule="evenodd" d="M18.4281 4.75993L18.3005 7.81931V7.81594C18.2988 7.86319 18.3123 7.91044 18.341 7.94756C18.4085 8.037 18.535 8.05387 18.6245 7.98637L19.8125 7.08525L20.8165 7.87669C20.8537 7.90706 20.9009 7.92056 20.9482 7.92056C21.0595 7.91719 21.1473 7.82269 21.1439 7.71131L21.0359 4.59698L22.5298 4.50363C23.2773 4.45638 23.9219 5.02507 23.9692 5.77432L23.9695 5.77885C23.9711 5.80586 23.9726 5.83152 23.9726 5.85869V30.1435C23.9726 30.8928 23.3651 31.5003 22.6158 31.5003H22.5551L4.43469 30.6869C3.72931 30.6548 3.16569 30.0878 3.13869 29.3824L3.137 29.3791L2.3 7.09394C2.273 6.35819 2.83831 5.73382 3.57238 5.68825L18.4281 4.75993ZM18.4281 4.75993L18.4304 4.70588L21.0325 4.5L21.0359 4.59698L18.4281 4.75993ZM19.0058 14.5811C18.5283 14.9524 14.971 15.2055 14.971 14.6773C15.047 12.6607 14.1442 12.573 13.643 12.573C13.1671 12.573 12.3655 12.7164 12.3655 13.7964C12.3655 14.8965 13.5373 15.5173 14.9128 16.2461C16.8668 17.2814 19.232 18.5345 19.232 21.6889C19.232 24.7112 16.8762 26.3818 13.643 26.3818C10.4097 26.3818 7.58484 25.074 7.90377 20.5397C8.02865 20.0064 12.1394 20.133 12.1394 20.5397C12.0888 22.4111 12.514 22.9612 13.5923 22.9612C14.4192 22.9612 14.7955 22.5056 14.7955 21.7378C14.7955 20.5757 13.5742 19.8899 12.1692 19.1011C10.2672 18.0331 8.02865 16.7762 8.02865 13.8926C8.02865 11.0137 10.0081 9.09506 13.5417 9.09506C17.0753 9.09506 19.0058 10.9851 19.0058 14.5811Z" fill="#A6ABB1"/>
<path d="M38.2615 25.8683C37.1089 25.8683 36.0002 25.7131 34.9354 25.4042C33.8706 25.0954 32.9847 24.6668 32.2793 24.1184L33.3593 21.7204C34.8274 22.7431 36.4761 23.2544 38.3054 23.2544C39.2554 23.2544 39.9861 23.0991 40.4974 22.7903C41.0087 22.4815 41.2636 22.0529 41.2636 21.5044C41.2636 21.0151 41.029 20.6337 40.5616 20.3603C40.0941 20.0869 39.2622 19.8203 38.0674 19.5604C36.7276 19.2871 35.6594 18.9563 34.8595 18.5665C34.0596 18.1767 33.4774 17.6991 33.1095 17.1304C32.7417 16.5617 32.5594 15.8597 32.5594 15.0244C32.5594 14.1031 32.8142 13.2812 33.3255 12.5624C33.8369 11.8435 34.5524 11.2765 35.4754 10.8664C36.3985 10.4564 37.4633 10.2505 38.6716 10.2505C39.7516 10.2505 40.7927 10.4091 41.7934 10.7264C42.7941 11.0436 43.5906 11.4672 44.1796 12.0004L43.0996 14.3984C41.7023 13.3757 40.2342 12.8644 38.6935 12.8644C37.8143 12.8644 37.1241 13.0332 36.6196 13.3724C36.115 13.7116 35.8636 14.1756 35.8636 14.7662C35.8636 15.1122 35.9614 15.3957 36.1555 15.6201C36.3496 15.8429 36.6735 16.042 37.1275 16.2141C37.5814 16.3862 38.2261 16.5668 39.0614 16.7541C41.0206 17.1861 42.4279 17.7413 43.2835 18.418C44.1407 19.0947 44.5694 20.0312 44.5694 21.226C44.5694 22.6654 44.0142 23.7994 42.9055 24.628C41.7968 25.4566 40.2494 25.87 38.2615 25.87V25.8683ZM52.3876 23.4484C52.7183 23.4484 53.0642 23.4265 53.4237 23.3843L53.2516 25.7603C52.8348 25.8177 52.4162 25.8464 51.9994 25.8464C50.3862 25.8464 49.21 25.4937 48.4675 24.7883C47.7267 24.0829 47.3554 23.0097 47.3554 21.5702V17.5101H45.3473V15.07H47.3554V11.9599H50.6174V15.07H53.2735V17.5101H50.6174V21.55C50.6174 22.8173 51.208 23.4501 52.3892 23.4501L52.3876 23.4484ZM59.9695 25.8464C58.8456 25.8464 57.8601 25.6202 57.0096 25.1663C56.1591 24.7124 55.5044 24.0711 55.0437 23.2442C54.583 22.4157 54.3518 21.4403 54.3518 20.3181C54.3518 19.1959 54.583 18.2189 55.0437 17.392C55.5044 16.5651 56.1591 15.9272 57.0096 15.4801C57.8584 15.0329 58.8456 14.8101 59.9695 14.8101C61.0934 14.8101 62.0789 15.0329 62.9294 15.4801C63.7782 15.9272 64.4346 16.5634 64.8953 17.392C65.356 18.2206 65.5872 19.1959 65.5872 20.3181C65.5872 21.4403 65.356 22.4174 64.8953 23.2442C64.4346 24.0728 63.7799 24.7124 62.9294 25.1663C62.0806 25.6202 61.0934 25.8464 59.9695 25.8464ZM59.9695 23.3624C61.5541 23.3624 62.3455 22.3465 62.3455 20.3164C62.3455 19.2938 62.1396 18.5311 61.7296 18.0265C61.3195 17.5219 60.7323 17.2705 59.9695 17.2705C58.3849 17.2705 57.5935 18.2864 57.5935 20.3164C57.5935 22.3465 58.3849 23.3624 59.9695 23.3624ZM74.6136 17.4865L72.7776 17.6806C71.8698 17.7666 71.2302 18.0231 70.8556 18.4467C70.4809 18.8719 70.2936 19.4372 70.2936 20.1426V25.6726H67.0317V15.0666H70.1637V16.8587C70.697 15.6353 71.7989 14.9654 73.4678 14.8506L74.4179 14.7865L74.612 17.4865H74.6136ZM84.0907 15.0886H87.2868L80.8928 29.5606H77.5887L79.6188 25.0887L75.2549 15.0886H78.6468L81.3248 21.8284L84.089 15.0886H84.0907ZM94.8468 14.8084C95.7682 14.8084 96.5815 15.0312 97.2869 15.4784C97.9923 15.9256 98.5441 16.5617 98.939 17.3903C99.3355 18.2189 99.533 19.1791 99.533 20.2742C99.533 21.3694 99.3355 22.3364 98.939 23.1801C98.5424 24.0222 97.9889 24.6769 97.2751 25.1461C96.563 25.6135 95.753 25.8481 94.8451 25.8481C94.111 25.8481 93.4478 25.6928 92.8572 25.384C92.2666 25.0752 91.8127 24.6466 91.4971 24.0981V25.6742H88.279V10.4462H91.541V16.4942C91.8582 15.961 92.3071 15.5476 92.891 15.2522C93.4748 14.9569 94.1262 14.8101 94.8451 14.8101L94.8468 14.8084ZM93.8967 23.3624C94.6595 23.3624 95.2501 23.0924 95.6686 22.5524C96.0854 22.0124 96.2947 21.253 96.2947 20.2742C96.2947 19.2955 96.0854 18.5716 95.6686 18.0602C95.2518 17.5489 94.6612 17.2941 93.8967 17.2941C93.1323 17.2941 92.5433 17.5574 92.1248 18.0822C91.708 18.607 91.4988 19.3529 91.4988 20.3181C91.4988 21.2834 91.708 22.0495 92.1248 22.576C92.5417 23.1008 93.1323 23.3641 93.8967 23.3641V23.3624ZM106.619 25.8464C105.495 25.8464 104.509 25.6202 103.659 25.1663C102.808 24.7124 102.154 24.0711 101.693 23.2442C101.232 22.4157 101.001 21.4403 101.001 20.3181C101.001 19.1959 101.232 18.2189 101.693 17.392C102.154 16.5634 102.808 15.9272 103.659 15.4801C104.508 15.0329 105.495 14.8101 106.619 14.8101C107.743 14.8101 108.728 15.0329 109.579 15.4801C110.427 15.9272 111.084 16.5634 111.545 17.392C112.005 18.2206 112.236 19.1959 112.236 20.3181C112.236 21.4403 112.005 22.4174 111.545 23.2442C111.084 24.0728 110.429 24.7124 109.579 25.1663C108.728 25.6202 107.743 25.8464 106.619 25.8464ZM106.619 23.3624C108.203 23.3624 108.995 22.3465 108.995 20.3164C108.995 19.2938 108.789 18.5311 108.379 18.0265C107.969 17.5219 107.382 17.2705 106.619 17.2705C105.034 17.2705 104.243 18.2864 104.243 20.3164C104.243 22.3465 105.034 23.3624 106.619 23.3624ZM118.779 25.8464C117.655 25.8464 116.67 25.6202 115.819 25.1663C114.97 24.7124 114.314 24.0711 113.853 23.2442C113.392 22.4157 113.161 21.4403 113.161 20.3181C113.161 19.1959 113.392 18.2189 113.853 17.392C114.314 16.5634 114.969 15.9272 115.819 15.4801C116.668 15.0329 117.655 14.8101 118.779 14.8101C119.903 14.8101 120.888 15.0329 121.739 15.4801C122.588 15.9272 123.244 16.5634 123.705 17.392C124.165 18.2206 124.397 19.1959 124.397 20.3181C124.397 21.4403 124.165 22.4174 123.705 23.2442C123.244 24.0728 122.589 24.7124 121.739 25.1663C120.89 25.6202 119.903 25.8464 118.779 25.8464ZM118.779 23.3624C120.363 23.3624 121.155 22.3465 121.155 20.3164C121.155 19.2938 120.949 18.5311 120.539 18.0265C120.129 17.5219 119.542 17.2705 118.779 17.2705C117.194 17.2705 116.403 18.2864 116.403 20.3164C116.403 22.3465 117.194 23.3624 118.779 23.3624ZM137.296 25.6742H133.3L129.24 20.9442V25.6742H125.978V10.4462H129.24V19.6043L133.15 15.0902H137.038L132.588 20.1443L137.296 25.6742Z" fill="#A6ABB1"/>
</svg>
